<svg width="256" height="256" viewBox="0 0 256 256" fill="none" xmlns="http://www.w3.org/2000/svg">
<g filter="url(#filter0_i_3268_189)">
<rect width="256" height="256" rx="65" fill="#AB6AEE"/>
</g>
<path d="M164.909 168.363C160.119 184.813 143.048 197.073 122.871 197.073C101.182 197.073 83.08 182.911 79.96 164.584C87.1621 161.409 94.1169 157.805 100.769 153.815C106.391 150.447 112.081 146.686 118.816 145.829C126.87 144.797 134.787 148.141 141.701 151.92C147.831 155.282 153.652 159.067 159.095 163.232C161.156 164.808 163.197 166.486 164.909 168.357V168.363Z" fill="white" fill-opacity="0.5"/>
<path d="M208.602 39.7514C180.557 22.08 144.706 52.2863 133.526 56.5268L161.689 70.2619C168.199 62.0279 183.213 47.7533 191.196 56.5269C199.178 65.3005 145.903 101.211 138.478 129.986C178.082 110.803 225.368 50.3161 208.602 39.7514Z" fill="white" fill-opacity="0.5"/>
<path d="M58.7205 194.5C69.3404 194.5 80.0817 188.014 82.613 179.07L79.738 172.366C63.1134 181.832 61.3765 184.214 58.7205 194.5Z" fill="white" fill-opacity="0.5"/>
<path d="M122.263 207.359C96.3855 207.359 73.9827 188.316 70.1565 163.055C69.7745 160.545 69.5835 157.967 69.5835 155.39V92.7844C69.5835 64.1255 93.2124 40.8154 122.263 40.8154C136.287 40.8154 149.503 46.2372 159.478 56.0718C169.453 65.9125 174.943 78.9503 174.943 92.7844V155.39C174.943 159.736 174.395 164.052 173.304 168.228C167.328 191.264 146.336 207.359 122.263 207.359ZM122.263 55.4032C101.37 55.4032 84.3708 72.1731 84.3708 92.7844V155.39C84.3708 157.244 84.5064 159.098 84.7836 160.897C87.5378 179.065 103.65 192.772 122.263 192.772C139.583 192.772 154.678 181.186 158.979 164.599C159.762 161.608 160.156 158.508 160.156 155.39V92.7844C160.156 82.8465 156.2 73.4738 149.016 66.3927C141.832 59.3054 132.331 55.4032 122.263 55.4032Z" fill="white"/>
<mask id="path-6-inside-1_3268_189" fill="white">
<path d="M91.8182 140.24C91.5147 133.059 92.5703 125.819 94.8992 119.009C96.2649 115.018 98.0924 110.773 96.8257 106.756C95.6843 103.123 92.3328 100.701 89.3507 98.2859C83.7363 93.748 78.8146 88.3832 74.7901 82.4195C72.1379 78.4871 69.842 74.2097 69.0437 69.5546C68.2388 64.8605 68.9975 60.0621 69.7562 55.3615C71.1549 46.6698 73.0946 37.0667 80.2924 31.8647C83.2811 37.6071 86.3819 43.4927 91.2508 47.8092C95.6118 51.67 101.121 54.0333 105.759 57.5621C110.271 60.9997 113.913 65.5441 116.262 70.6679C118.195 74.8868 119.857 80.0887 124.331 81.495C126.95 82.3154 129.846 81.4885 132.221 80.1148C137.084 77.2957 140.461 72.1133 141.029 66.5727C141.372 63.2458 140.798 59.678 142.355 56.7092C144.486 52.6401 149.83 51.3054 154.455 51.683C165.631 52.588 175.606 61.5986 177.506 72.5039C177.849 74.4701 177.948 76.5405 177.295 78.4285C176.187 81.6643 173.086 83.8519 169.906 85.1996C166.726 86.5473 163.282 87.2895 160.201 88.8585C154.31 91.8534 150.147 97.9278 149.526 104.445C162.754 106.997 172.835 117.303 181.801 127.239C190.767 137.174 200.334 147.766 213.337 151.25C212.367 157.916 207.399 163.281 202.319 167.78C200.531 169.362 198.625 170.938 196.316 171.602C194.303 172.175 192.159 171.999 190.088 171.738C181.306 170.632 172.578 167.943 165.393 162.838C159.766 158.847 155.273 153.535 150.272 148.795C144.354 143.176 137.69 138.339 130.631 134.198C127.016 132.082 123.202 130.116 119.053 129.472C109.42 127.987 100.342 133.782 92.3592 139.303"/>
</mask>
<path d="M91.8182 140.24C91.5147 133.059 92.5703 125.819 94.8992 119.009C96.2649 115.018 98.0924 110.773 96.8257 106.756C95.6843 103.123 92.3328 100.701 89.3507 98.2859C83.7363 93.748 78.8146 88.3832 74.7901 82.4195C72.1379 78.4871 69.842 74.2097 69.0437 69.5546C68.2388 64.8605 68.9975 60.0621 69.7562 55.3615C71.1549 46.6698 73.0946 37.0667 80.2924 31.8647C83.2811 37.6071 86.3819 43.4927 91.2508 47.8092C95.6118 51.67 101.121 54.0333 105.759 57.5621C110.271 60.9997 113.913 65.5441 116.262 70.6679C118.195 74.8868 119.857 80.0887 124.331 81.495C126.95 82.3154 129.846 81.4885 132.221 80.1148C137.084 77.2957 140.461 72.1133 141.029 66.5727C141.372 63.2458 140.798 59.678 142.355 56.7092C144.486 52.6401 149.83 51.3054 154.455 51.683C165.631 52.588 175.606 61.5986 177.506 72.5039C177.849 74.4701 177.948 76.5405 177.295 78.4285C176.187 81.6643 173.086 83.8519 169.906 85.1996C166.726 86.5473 163.282 87.2895 160.201 88.8585C154.31 91.8534 150.147 97.9278 149.526 104.445C162.754 106.997 172.835 117.303 181.801 127.239C190.767 137.174 200.334 147.766 213.337 151.25C212.367 157.916 207.399 163.281 202.319 167.78C200.531 169.362 198.625 170.938 196.316 171.602C194.303 172.175 192.159 171.999 190.088 171.738C181.306 170.632 172.578 167.943 165.393 162.838C159.766 158.847 155.273 153.535 150.272 148.795C144.354 143.176 137.69 138.339 130.631 134.198C127.016 132.082 123.202 130.116 119.053 129.472C109.42 127.987 100.342 133.782 92.3592 139.303" fill="white"/>
<path d="M94.8992 119.009L93.9531 118.685L93.953 118.686L94.8992 119.009ZM96.8257 106.756L95.8717 107.056L95.872 107.057L96.8257 106.756ZM89.3507 98.2859L89.9802 97.5088L89.9793 97.5081L89.3507 98.2859ZM74.7901 82.4195L73.961 82.9787L73.9612 82.9789L74.7901 82.4195ZM69.0437 69.5546L68.0581 69.7236L68.0581 69.7236L69.0437 69.5546ZM69.7562 55.3615L70.7435 55.5208L70.7435 55.5204L69.7562 55.3615ZM80.2924 31.8647L81.1795 31.4031L80.645 30.3761L79.7067 31.0543L80.2924 31.8647ZM91.2508 47.8092L90.5874 48.5575L90.588 48.5579L91.2508 47.8092ZM105.759 57.5621L106.365 56.7666L106.364 56.7662L105.759 57.5621ZM116.262 70.6679L117.171 70.2514L117.171 70.2512L116.262 70.6679ZM124.331 81.495L124.031 82.449L124.032 82.4493L124.331 81.495ZM132.221 80.1148L132.722 80.9804L132.723 80.9799L132.221 80.1148ZM141.029 66.5727L140.034 66.4702L140.034 66.4709L141.029 66.5727ZM142.355 56.7092L143.24 57.1736L143.241 57.1731L142.355 56.7092ZM154.455 51.683L154.373 52.6797L154.374 52.6797L154.455 51.683ZM177.506 72.5039L176.521 72.6755L176.521 72.6758L177.506 72.5039ZM177.295 78.4285L176.35 78.1016L176.349 78.1045L177.295 78.4285ZM160.201 88.8585L160.654 89.75L160.655 89.7496L160.201 88.8585ZM149.526 104.445L148.531 104.35L148.445 105.255L149.337 105.427L149.526 104.445ZM213.337 151.25L214.327 151.394L214.455 150.514L213.596 150.284L213.337 151.25ZM202.319 167.78L202.982 168.529L202.982 168.529L202.319 167.78ZM196.316 171.602L196.59 172.563L196.592 172.563L196.316 171.602ZM190.088 171.738L189.963 172.731L189.963 172.731L190.088 171.738ZM165.393 162.838L165.972 162.023L165.972 162.023L165.393 162.838ZM150.272 148.795L149.583 149.52L149.584 149.521L150.272 148.795ZM130.631 134.198L131.137 133.336L131.136 133.335L130.631 134.198ZM119.053 129.472L119.206 128.483L119.205 128.483L119.053 129.472ZM91.8182 140.24L92.8173 140.198C92.5191 133.142 93.5564 126.026 95.8454 119.333L94.8992 119.009L93.953 118.686C91.5842 125.612 90.5103 132.976 90.8191 140.282L91.8182 140.24ZM94.8992 119.009L95.8454 119.333C96.5098 117.391 97.3398 115.245 97.8247 113.114C98.3147 110.961 98.4867 108.698 97.7794 106.455L96.8257 106.756L95.872 107.057C96.4314 108.831 96.323 110.7 95.8745 112.671C95.4209 114.664 94.6543 116.636 93.9531 118.685L94.8992 119.009ZM96.8257 106.756L97.7797 106.456C97.1431 104.43 95.9025 102.783 94.4877 101.359C93.085 99.9483 91.4386 98.6901 89.9802 97.5088L89.3507 98.2859L88.7213 99.0629C90.245 100.297 91.7653 101.458 93.0692 102.769C94.3611 104.069 95.3669 105.449 95.8717 107.056L96.8257 106.756ZM89.3507 98.2859L89.9793 97.5081C84.442 93.0326 79.5878 87.7414 75.619 81.8602L74.7901 82.4195L73.9612 82.9789C78.0413 89.0251 83.0306 94.4634 88.7221 99.0636L89.3507 98.2859ZM74.7901 82.4195L75.6192 81.8604C72.997 77.9724 70.7923 73.8345 70.0293 69.3856L69.0437 69.5546L68.0581 69.7236C68.8917 74.5848 71.2789 79.0019 73.961 82.9787L74.7901 82.4195ZM69.0437 69.5546L70.0293 69.3856C69.2572 64.8824 69.9802 60.2494 70.7435 55.5208L69.7562 55.3615L68.769 55.2022C68.0148 59.8749 67.2205 64.8385 68.0581 69.7236L69.0437 69.5546ZM69.7562 55.3615L70.7435 55.5204C71.4427 51.1758 72.2649 46.6912 73.7854 42.6572C75.3023 38.6325 77.4902 35.1238 80.8782 32.6752L80.2924 31.8647L79.7067 31.0543C75.8968 33.8077 73.5159 37.7015 71.9139 41.9518C70.3154 46.1928 69.4685 50.8555 68.7689 55.2026L69.7562 55.3615ZM80.2924 31.8647L79.4054 32.3264C82.38 38.0418 85.5578 44.0985 90.5874 48.5575L91.2508 47.8092L91.9142 47.0609C87.2059 42.8868 84.1821 37.1724 81.1795 31.4031L80.2924 31.8647ZM91.2508 47.8092L90.588 48.5579C92.8424 50.5538 95.379 52.15 97.883 53.6656C100.409 55.1949 102.888 56.6341 105.153 58.3579L105.759 57.5621L106.364 56.7662C103.992 54.9613 101.396 53.4544 98.9187 51.9547C96.4185 50.4413 94.0202 48.9254 91.9137 47.0605L91.2508 47.8092ZM105.759 57.5621L105.153 58.3576C109.536 61.6963 113.073 66.111 115.353 71.0846L116.262 70.6679L117.171 70.2512C114.753 64.9772 111.007 60.303 106.365 56.7666L105.759 57.5621ZM116.262 70.6679L115.353 71.0845C116.28 73.109 117.233 75.5857 118.489 77.6551C119.766 79.7589 121.466 81.6426 124.031 82.449L124.331 81.495L124.63 80.5411C122.723 79.9412 121.354 78.5208 120.199 76.6172C119.022 74.6794 118.176 72.4457 117.171 70.2514L116.262 70.6679ZM124.331 81.495L124.032 82.4493C127.032 83.3889 130.231 82.4209 132.722 80.9804L132.221 80.1148L131.72 79.2492C129.461 80.5562 126.868 81.2418 124.629 80.5407L124.331 81.495ZM132.221 80.1148L132.723 80.9799C137.858 78.0025 141.423 72.5386 142.024 66.6746L141.029 66.5727L140.034 66.4709C139.5 71.6879 136.309 76.5889 131.72 79.2497L132.221 80.1148ZM141.029 66.5727L142.024 66.6753C142.114 65.801 142.143 64.9202 142.162 64.0676C142.181 63.2031 142.189 62.3798 142.235 61.5626C142.326 59.9325 142.561 58.4686 143.24 57.1736L142.355 56.7092L141.469 56.2447C140.591 57.9186 140.335 59.723 140.238 61.4508C140.19 62.3125 140.18 63.1905 140.162 64.0234C140.143 64.8683 140.115 65.6811 140.034 66.4702L141.029 66.5727ZM142.355 56.7092L143.241 57.1731C144.16 55.4174 145.796 54.2034 147.812 53.4681C149.832 52.7314 152.176 52.5003 154.373 52.6797L154.455 51.683L154.536 50.6863C152.108 50.4881 149.468 50.7356 147.127 51.5891C144.783 52.4439 142.681 53.9318 141.469 56.2453L142.355 56.7092ZM154.455 51.683L154.374 52.6797C165.104 53.5486 174.701 62.2275 176.521 72.6755L177.506 72.5039L178.491 72.3322C176.512 60.9698 166.157 51.6274 154.535 50.6863L154.455 51.683ZM177.506 72.5039L176.521 72.6758C176.853 74.5761 176.922 76.4487 176.35 78.1016L177.295 78.4285L178.24 78.7555C178.975 76.6322 178.846 74.3641 178.491 72.332L177.506 72.5039ZM177.295 78.4285L176.349 78.1045C175.38 80.9344 172.607 82.9689 169.516 84.2788L169.906 85.1996L170.296 86.1203C173.565 84.7348 176.994 82.3943 178.241 78.7526L177.295 78.4285ZM169.906 85.1996L169.516 84.2788C167.972 84.9332 166.367 85.4395 164.699 85.9977C163.051 86.5492 161.359 87.1466 159.747 87.9674L160.201 88.8585L160.655 89.7496C162.124 89.0014 163.694 88.4431 165.334 87.8943C166.953 87.3522 168.66 86.8136 170.296 86.1203L169.906 85.1996ZM160.201 88.8585L159.748 87.9671C153.555 91.1151 149.184 97.4877 148.531 104.35L149.526 104.445L150.522 104.54C151.109 98.3678 155.064 92.5917 160.654 89.75L160.201 88.8585ZM149.526 104.445L149.337 105.427C162.192 107.907 172.066 117.944 181.059 127.908L181.801 127.239L182.544 126.569C173.604 116.663 163.317 106.087 149.716 103.463L149.526 104.445ZM181.801 127.239L181.059 127.908C189.979 137.793 199.738 148.642 213.078 152.216L213.337 151.25L213.596 150.284C200.929 146.891 191.556 136.555 182.544 126.569L181.801 127.239ZM213.337 151.25L212.348 151.106C211.434 157.384 206.73 162.539 201.656 167.031L202.319 167.78L202.982 168.529C208.069 164.024 213.3 158.449 214.327 151.394L213.337 151.25ZM202.319 167.78L201.657 167.031C199.86 168.621 198.106 170.046 196.039 170.641L196.316 171.602L196.592 172.563C199.144 171.829 201.203 170.104 202.982 168.529L202.319 167.78ZM196.316 171.602L196.042 170.64C194.244 171.152 192.281 171.006 190.212 170.746L190.088 171.738L189.963 172.731C192.037 172.991 194.363 173.197 196.59 172.563L196.316 171.602ZM190.088 171.738L190.213 170.746C181.54 169.653 172.983 167.004 165.972 162.023L165.393 162.838L164.814 163.654C172.172 168.881 181.073 171.61 189.963 172.731L190.088 171.738ZM165.393 162.838L165.972 162.023C160.418 158.084 156.071 152.914 150.96 148.069L150.272 148.795L149.584 149.521C154.474 154.156 159.113 159.611 164.815 163.654L165.393 162.838ZM150.272 148.795L150.96 148.07C144.979 142.391 138.252 137.509 131.137 133.336L130.631 134.198L130.125 135.061C137.129 139.169 143.729 143.962 149.583 149.52L150.272 148.795ZM130.631 134.198L131.136 133.335C127.507 131.211 123.555 129.159 119.206 128.483L119.053 129.472L118.899 130.46C122.85 131.073 126.525 132.954 130.126 135.061L130.631 134.198ZM119.053 129.472L119.205 128.483C114.14 127.703 109.264 128.844 104.687 130.844C100.118 132.84 95.7825 135.719 91.7904 138.48L92.3592 139.303L92.928 140.125C96.9189 137.365 101.114 134.587 105.488 132.676C109.853 130.77 114.333 129.756 118.9 130.46L119.053 129.472Z" fill="#AB6AEE" mask="url(#path-6-inside-1_3268_189)"/>
<path d="M95.3664 140.6C95.2798 138.323 95.3131 136.045 95.4796 133.773C95.5595 132.756 95.5995 131.686 95.7927 130.681C95.6195 131.561 95.7461 131.003 95.7794 130.806C95.826 130.498 95.8726 130.189 95.9193 129.887C96.0192 129.277 96.1258 128.66 96.2457 128.049C96.6587 125.916 97.1982 123.802 97.8444 121.721C98.4905 119.64 99.2765 117.71 99.876 115.668C101.228 111.086 101.328 106.051 98.4172 102.007C96.0991 98.7843 92.8884 96.5851 89.9108 94.0184C86.7467 91.2941 83.8224 88.3072 81.1712 85.0906C80.8648 84.7164 80.5317 84.3554 80.2586 83.9615C80.8715 84.8346 79.9455 83.5479 79.819 83.3773C79.1795 82.5304 78.5533 81.6639 77.9538 80.7843C76.8081 79.1234 75.7356 77.4166 74.7897 75.6311C74.5632 75.211 74.3501 74.7843 74.1436 74.351C74.017 74.095 73.9038 73.8324 73.7839 73.5698C73.3842 72.7164 74.0104 74.1541 73.7905 73.5895C73.4108 72.6114 73.0445 71.6398 72.7647 70.6289C72.6248 70.1234 72.4983 69.618 72.3917 69.1059C72.3517 68.9221 72.3184 68.7317 72.2784 68.5479C72.2385 68.3641 72.012 67.3926 72.2318 68.3641C71.9853 67.2547 72.0253 66.0009 72.0253 64.8718C72.0253 63.8083 72.0853 62.7449 72.1785 61.6814C72.2251 61.1497 72.2784 60.6179 72.345 60.0862C72.385 59.7711 72.4117 59.4495 72.465 59.1278L72.4117 59.5348C72.4383 59.3247 72.4716 59.1081 72.5049 58.898C72.7847 56.9878 73.0978 55.0775 73.4375 53.1737C74.1236 49.3204 75.0162 45.5129 76.475 41.8696C76.7881 41.095 76.1686 42.5457 76.4018 42.0403C76.5217 41.7908 76.6282 41.5348 76.7548 41.2853C76.9613 40.8586 77.1745 40.4385 77.4009 40.0249C77.8539 39.2044 78.3468 38.4035 78.8931 37.642C78.9863 37.5173 79.0796 37.3926 79.1728 37.2678C79.426 36.9396 79.3594 37.0184 78.9797 37.5107C79.0796 37.3926 79.1795 37.2678 79.2794 37.1497C79.5792 36.7952 79.8989 36.4473 80.2253 36.1125C80.5251 35.8039 80.8448 35.502 81.1646 35.2197C81.3111 35.0884 81.4643 34.9571 81.6175 34.8324C81.7374 34.7273 81.864 34.6289 81.9906 34.5304C81.4976 34.898 81.4177 34.9637 81.7574 34.7142L76.2885 33.3028C79.6524 39.7492 83.2562 46.4319 89.0648 51.0862C92.0091 53.4429 95.2331 55.3466 98.4505 57.3028C99.9959 58.2416 101.501 59.2328 102.98 60.2766C103.746 60.8214 102.494 59.8827 102.954 60.2503C103.133 60.3948 103.313 60.5326 103.486 60.677C103.766 60.9068 104.046 61.1365 104.319 61.3794C105.005 61.9702 105.671 62.5939 106.304 63.2372C106.877 63.8149 107.43 64.4188 107.963 65.0359C108.236 65.3576 108.622 65.7186 108.829 66.0797C108.782 66.0009 108.283 65.3641 108.702 65.9287C108.862 66.1453 109.029 66.3619 109.188 66.5851C110.194 67.9768 111.1 69.4407 111.886 70.9702C113.245 73.5895 114.171 76.4188 115.71 78.9527C117.548 81.9724 120.319 84.6311 123.937 85.3532C128.14 86.2 132.476 84.7492 135.847 82.2678C138.771 80.1081 141.262 77.3773 142.841 74.1015C143.634 72.4538 144.307 70.7405 144.666 68.9484C145.046 67.0446 145.159 65.1278 145.199 63.1913C145.219 62.2919 145.233 61.3926 145.313 60.4998C145.332 60.2832 145.313 60.0074 145.386 59.8039C145.359 59.8827 145.213 60.7427 145.372 60.0271C145.472 59.5742 145.566 59.1278 145.712 58.688C145.745 58.5895 146.125 57.8477 145.812 58.386C145.499 58.9243 145.905 58.2416 145.959 58.1562C146.092 57.9199 146.365 57.6639 146.432 57.4144C146.258 58.0184 145.919 57.9921 146.285 57.6179C146.412 57.4867 146.525 57.3488 146.658 57.2241C146.758 57.119 146.865 57.0206 146.971 56.9287C147.291 56.6398 147.644 56.5939 146.838 56.9943C147.424 56.7055 147.957 56.2853 148.543 55.9834C149.129 55.6814 148.263 56.095 148.203 56.1081C148.383 56.0621 148.557 55.9702 148.73 55.9112C149.123 55.7733 149.529 55.6486 149.935 55.5435C150.268 55.4582 150.608 55.386 150.955 55.3204C151.134 55.2875 151.354 55.2875 151.527 55.2219C151.474 55.2416 150.482 55.3335 151.161 55.2744C151.934 55.2022 152.706 55.1562 153.479 55.1759C154.172 55.1891 154.885 55.3466 155.564 55.3269C155.504 55.3269 154.532 55.1694 155.204 55.281C155.358 55.3072 155.518 55.3269 155.671 55.3597C156.097 55.432 156.523 55.5173 156.943 55.6158C157.669 55.7799 158.389 55.9834 159.101 56.2131C159.401 56.3116 159.694 56.4166 159.994 56.5217C160.18 56.5873 160.36 56.6595 160.547 56.7317C161.386 57.06 160.101 56.5282 160.46 56.6989C161.786 57.3094 163.071 57.9724 164.297 58.7602C164.63 58.9768 164.95 59.1934 165.27 59.4232C165.396 59.5151 165.523 59.607 165.649 59.6989C166.182 60.0862 165.443 59.5611 165.403 59.5085C165.876 60.0797 166.649 60.526 167.201 61.0315C167.721 61.5107 168.221 62.0096 168.7 62.5282C168.967 62.8171 169.226 63.1059 169.48 63.4079C169.579 63.526 169.679 63.6508 169.779 63.7689C170.326 64.4188 169.226 63.0271 169.733 63.7099C170.625 64.898 171.431 66.1387 172.111 67.4582C172.271 67.7668 172.424 68.0818 172.577 68.3969C172.657 68.5676 172.717 68.7711 172.817 68.9287C172.784 68.8762 172.444 68.0228 172.684 68.6333C172.963 69.3554 173.23 70.084 173.45 70.8324C173.65 71.502 173.816 72.1847 173.949 72.874C174.016 73.2219 174.102 73.5764 174.129 73.9309C174.056 72.9724 174.089 73.7011 174.109 73.9374C174.136 74.2394 174.149 74.5414 174.156 74.8433C174.156 74.8959 174.122 76.2022 174.109 76.2022C174.016 76.1825 174.282 75.4145 174.122 76.0447C174.063 76.2875 174.016 76.537 173.949 76.7733C173.929 76.8455 173.769 77.4429 173.729 77.4363C173.663 77.4298 174.129 76.6355 173.843 77.1672C173.63 77.5611 173.423 77.9484 173.17 78.316C172.764 78.9002 173.023 78.2241 173.283 78.1978C173.243 78.1978 172.957 78.572 172.963 78.5654C172.717 78.8411 172.45 79.0972 172.177 79.3466C172.024 79.4845 171.864 79.6158 171.704 79.7536C171.491 79.9374 171.165 80.0293 171.918 79.5961C171.558 79.7996 171.231 80.0818 170.872 80.2985C170.226 80.6989 169.559 81.0534 168.867 81.3685C168.68 81.4538 168.487 81.5392 168.294 81.6245C167.788 81.8543 169.22 81.2832 168.301 81.6114C167.834 81.7821 167.368 81.9659 166.895 82.13C165.103 82.7602 163.285 83.2985 161.519 83.9943C157.956 85.3926 154.725 87.3029 152.107 90.1125C149.642 92.7514 147.797 95.8565 146.658 99.2635C146.092 100.957 145.805 102.71 145.626 104.476C145.466 106.071 146.971 107.962 148.557 108.277C149.842 108.533 151.121 108.848 152.373 109.242C152.993 109.439 153.606 109.649 154.219 109.878C154.505 109.983 154.785 110.095 155.065 110.207C155.298 110.298 155.664 110.548 154.825 110.108C154.978 110.187 155.145 110.246 155.298 110.318C157.676 111.375 159.947 112.662 162.106 114.112C162.652 114.48 163.191 114.854 163.718 115.235C163.964 115.412 164.211 115.596 164.457 115.78C164.637 115.911 165.01 116.253 164.277 115.642C164.41 115.754 164.557 115.859 164.697 115.964C165.743 116.778 166.762 117.631 167.761 118.498C169.773 120.257 171.698 122.115 173.57 124.025C180.997 131.614 187.552 140.069 196.025 146.6C201.127 150.533 206.703 153.756 212.984 155.463L210.193 150.618C210.027 151.695 209.774 152.758 209.414 153.789C209.327 154.032 209.241 154.281 209.141 154.517C209.094 154.635 209.027 154.76 208.994 154.878C208.994 154.878 209.334 154.143 209.134 154.537C208.881 155.042 208.648 155.555 208.368 156.053C207.835 157.018 207.236 157.937 206.583 158.83C206.496 158.948 205.97 159.631 206.33 159.178C206.689 158.725 206.15 159.401 206.057 159.513C205.684 159.966 205.304 160.406 204.911 160.839C203.405 162.506 201.773 164.056 200.088 165.546C199.668 165.913 199.249 166.281 198.816 166.635C198.709 166.727 198.596 166.806 198.489 166.898C198.156 167.187 198.742 166.714 198.742 166.714C198.476 166.964 198.136 167.161 197.83 167.358C197.364 167.66 196.877 167.922 196.384 168.185C195.725 168.526 197.031 167.988 196.318 168.218C195.998 168.316 195.678 168.421 195.352 168.5C195.205 168.533 194.279 168.71 194.852 168.605C195.392 168.513 194.899 168.592 194.786 168.598C194.632 168.598 194.486 168.618 194.333 168.625C193.68 168.651 193.02 168.625 192.368 168.579C191.761 168.533 191.162 168.46 190.562 168.388C189.776 168.29 191.262 168.493 190.483 168.375C190.149 168.329 189.816 168.277 189.483 168.224C187.105 167.85 184.741 167.364 182.416 166.734C181.257 166.419 180.104 166.071 178.965 165.69C178.419 165.506 177.879 165.316 177.34 165.113C177.073 165.014 176.8 164.909 176.534 164.804C176.374 164.738 175.441 164.364 175.948 164.568C176.454 164.771 175.635 164.43 175.501 164.371C175.242 164.253 174.975 164.134 174.715 164.016C174.149 163.754 173.59 163.485 173.037 163.202C171.971 162.657 170.932 162.073 169.919 161.449C168.907 160.826 167.908 160.137 166.935 159.434C166.322 158.988 167.408 159.808 166.808 159.342C166.575 159.158 166.349 158.981 166.122 158.797C165.629 158.397 165.143 157.99 164.663 157.576C162.812 155.975 161.066 154.261 159.341 152.535C155.824 149.003 152.36 145.458 148.523 142.261C144.686 139.064 140.29 135.867 135.88 133.091C131.47 130.314 126.954 127.622 121.931 126.336C111.427 123.638 101.375 128.555 92.8617 134.2C91.8625 134.863 90.87 135.546 89.8775 136.222C88.1655 137.404 87.2063 139.721 88.4453 141.611C89.5378 143.285 92.0824 144.29 93.9142 143.023C97.931 140.253 102.021 137.528 106.504 135.533C106.677 135.454 106.857 135.382 107.03 135.303C107.443 135.119 106.75 135.421 106.737 135.428C106.977 135.414 107.303 135.204 107.53 135.113C108.103 134.896 108.682 134.692 109.268 134.509C110.381 134.154 111.513 133.865 112.659 133.655C112.912 133.609 113.245 133.609 113.485 133.517C113.485 133.517 112.652 133.609 113.112 133.563C113.252 133.55 113.385 133.53 113.525 133.517C114.171 133.452 114.824 133.412 115.47 133.406C116.03 133.406 116.589 133.412 117.149 133.452C117.428 133.471 117.715 133.498 117.995 133.53C118.101 133.544 118.601 133.59 118.028 133.53C117.428 133.471 118.095 133.55 118.214 133.57C119.427 133.786 120.613 134.108 121.772 134.509C122.051 134.607 122.324 134.705 122.604 134.811C122.744 134.863 122.877 134.922 123.017 134.975C123.45 135.139 122.744 134.863 122.744 134.863C122.751 134.843 124.469 135.657 124.623 135.736C126.841 136.832 128.979 138.106 131.077 139.406C133.176 140.706 135.354 142.143 137.419 143.614C137.905 143.962 138.385 144.309 138.864 144.664C139.104 144.841 139.344 145.018 139.584 145.196C139.697 145.281 139.837 145.366 139.944 145.465C139.737 145.268 139.471 145.104 139.844 145.393C140.863 146.187 141.875 146.988 142.868 147.815C150.688 154.327 156.93 162.644 165.643 168.093C169.933 170.771 174.722 172.747 179.598 174.126C181.963 174.795 184.367 175.32 186.792 175.714C189.49 176.154 192.348 176.692 195.092 176.436C198.05 176.161 200.661 175.117 203.006 173.338C205.057 171.789 206.976 170.069 208.794 168.257C212.358 164.706 215.462 160.642 217.114 155.876C217.474 154.846 217.727 153.782 217.894 152.706C218.06 151.629 218.1 150.605 217.494 149.673C216.928 148.806 216.128 148.143 215.103 147.861C213.837 147.52 212.585 147.113 211.359 146.64C211.092 146.535 210.107 146.016 211.106 146.548C210.839 146.41 210.546 146.305 210.273 146.18C209.68 145.911 209.101 145.629 208.521 145.334C206.203 144.145 203.998 142.741 201.907 141.198C201.707 141.047 200.821 140.292 201.667 141.027C201.434 140.83 201.181 140.653 200.941 140.463C200.421 140.056 199.915 139.635 199.409 139.215C198.396 138.362 197.404 137.482 196.431 136.583C194.473 134.765 192.594 132.867 190.762 130.931C183.268 123.021 176.387 114.592 167.415 108.198C162.425 104.646 156.723 101.87 150.661 100.675L153.592 104.476C153.606 104.371 153.712 103.557 153.606 104.272C153.499 104.988 153.626 104.18 153.646 104.075C153.699 103.754 153.766 103.439 153.839 103.117C154.019 102.323 154.259 101.541 154.538 100.78C154.612 100.59 154.685 100.399 154.758 100.209C154.951 99.6836 154.325 101.121 154.692 100.366C154.831 100.071 154.971 99.7755 155.118 99.4867C155.491 98.758 155.911 98.0556 156.364 97.3795C156.517 97.1563 157.036 96.6377 157.083 96.3816C157.07 96.4473 156.477 97.1234 156.916 96.6048C157.023 96.4801 157.13 96.3554 157.236 96.2307C157.769 95.6136 158.349 95.0293 158.955 94.4779C159.261 94.2022 159.574 93.9462 159.894 93.6836C160.094 93.5129 160.467 93.3619 159.668 93.8477C159.807 93.7624 159.934 93.6508 160.067 93.5589C160.74 93.0862 161.439 92.6595 162.172 92.2788C162.552 92.0819 162.945 91.8915 163.338 91.7142L163.471 91.6552C163.877 91.4779 163.837 91.4976 163.345 91.7011C163.371 91.6486 163.811 91.5173 163.897 91.4845C164.83 91.13 165.776 90.8083 166.722 90.4932C168.727 89.8236 170.719 89.1409 172.644 88.2744C175.888 86.8171 179.145 84.3751 180.71 81.1387C182.609 77.2066 182.316 72.8215 181.117 68.7252C180.218 65.6595 178.772 62.6792 176.874 60.0928C172.89 54.6639 167.361 50.5151 160.847 48.4932C154.332 46.4713 146.492 46.6551 141.276 51.3357C138.112 54.1781 137.299 58.281 137.186 62.3182C137.159 63.1716 137.159 64.025 137.119 64.8849C137.099 65.3576 137.053 65.8236 137.019 66.2963C136.999 66.5589 136.853 66.9921 137.073 65.9878C137.019 66.2306 136.993 66.4801 136.946 66.7164C136.806 67.4451 136.62 68.1672 136.386 68.8696C136.326 69.0534 135.907 69.8608 135.96 70.0315C135.947 69.9856 136.373 69.1387 136.067 69.7755C135.96 69.9987 135.854 70.2219 135.74 70.4451C135.401 71.1081 135.028 71.7514 134.608 72.3751C134.481 72.5654 133.895 73.1694 133.882 73.386C133.882 73.3204 134.495 72.6508 134.042 73.1694C133.875 73.3597 133.715 73.5501 133.549 73.7339C133.049 74.2853 132.51 74.8105 131.943 75.2963C131.783 75.4341 131.624 75.5589 131.464 75.6967C131.037 76.0578 132.283 75.1322 131.577 75.6114C131.231 75.8477 130.891 76.084 130.538 76.3072C130.185 76.5304 129.852 76.7142 129.499 76.898C129.292 77.0031 129.079 77.1015 128.873 77.2066C128.446 77.4232 128.653 77.1015 129.052 77.1409C128.713 77.1081 128.053 77.4889 127.72 77.5742C127.54 77.6201 127.36 77.6661 127.181 77.6989C127.047 77.7252 126.907 77.7514 126.774 77.7711C126.468 77.8236 126.594 77.804 127.154 77.7186C126.841 77.6201 126.255 77.758 125.922 77.7383C125.076 77.6858 126.015 77.8039 126.035 77.7646C126.028 77.7843 125.462 77.6333 125.502 77.6398C125.342 77.5939 125.182 77.5348 125.022 77.4889C124.276 77.2919 125.682 77.8696 125.262 77.5939C124.942 77.3838 124.569 77.2131 124.236 77.0096C123.71 76.6945 124.496 77.1934 124.536 77.246C124.436 77.1147 124.256 77.0096 124.13 76.898C123.89 76.6814 123.663 76.4516 123.45 76.2153C123.35 76.1103 123.264 75.9987 123.17 75.8871C122.658 75.3094 123.623 76.5173 123.324 76.084C123.097 75.7492 122.857 75.4145 122.644 75.0665C121.878 73.8258 121.265 72.4998 120.673 71.1672C119.347 68.1737 117.988 65.2788 116.063 62.607C113.925 59.653 111.467 56.9418 108.569 54.6902C105.518 52.3138 102.201 50.3904 98.9102 48.3619C98.1841 47.9155 97.458 47.456 96.7452 46.9834C96.3922 46.747 96.0392 46.5042 95.6861 46.2613C95.4929 46.1234 95.2998 45.9856 95.1066 45.8477C94.9933 45.7624 94.8801 45.677 94.7669 45.5982C95.1599 45.9002 95.2398 45.9593 95.0133 45.7821C93.6211 44.653 92.3089 43.4648 91.1231 42.1322C90.8434 41.8171 90.5703 41.502 90.3038 41.1803C90.2039 41.0556 90.0307 40.8915 89.9508 40.747C90.3904 41.5282 90.1439 40.9965 89.9774 40.7733C89.4445 40.0709 88.9316 39.3422 88.4387 38.607C87.4461 37.1234 86.5402 35.5939 85.6742 34.0381C84.8083 32.4823 83.9823 30.9068 83.1563 29.3247C82.2437 27.5785 79.3594 26.6858 77.6874 27.9133C74.43 30.2963 71.8321 33.3028 70.0269 36.9002C68.3416 40.2547 67.2159 43.8324 66.4099 47.4823C65.5173 51.5326 64.8711 55.6617 64.3649 59.7777C63.7853 64.4779 63.8653 69.2766 65.364 73.8193C66.7496 78.014 68.9811 81.8674 71.5257 85.4779C74.0703 89.0884 76.8814 92.4823 79.9855 95.6136C82.8099 98.4692 85.9673 100.878 89.0049 103.498C89.711 104.108 90.3971 104.738 91.0232 105.428C91.1365 105.552 91.2497 105.677 91.3563 105.802L91.5162 105.992C91.7826 106.32 91.7293 106.248 91.3496 105.776C91.3163 105.9 92.0824 106.872 92.1556 107.01C92.2556 107.187 92.3422 107.377 92.4421 107.555C92.7085 108.034 92.1223 106.609 92.3821 107.404C92.5287 107.843 92.6353 108.283 92.7685 108.73C93.0349 109.649 92.7552 107.876 92.7951 108.828C92.8018 109.071 92.8284 109.307 92.8284 109.55C92.8284 109.793 92.8284 110.029 92.8218 110.272C92.8218 110.384 92.7285 111.552 92.7885 110.909C92.8484 110.266 92.7352 111.191 92.7218 111.257C92.6486 111.644 92.562 112.032 92.4687 112.419C92.3222 113.003 92.1556 113.581 91.9758 114.158C91.6161 115.314 91.1964 116.449 90.7967 117.592C89.9774 119.935 89.2913 122.318 88.7651 124.741C87.6393 129.94 87.133 135.29 87.3462 140.607C87.4261 142.662 89.1248 144.644 91.343 144.546C93.4413 144.454 95.4263 142.813 95.3397 140.607L95.3664 140.6Z" fill="#AB6AEE"/>
<defs>
<filter id="filter0_i_3268_189" x="0" y="-1.2" width="256" height="257.2" filterUnits="userSpaceOnUse" color-interpolation-filters="sRGB">
<feFlood flood-opacity="0" result="BackgroundImageFix"/>
<feBlend mode="normal" in="SourceGraphic" in2="BackgroundImageFix" result="shape"/>
<feColorMatrix in="SourceAlpha" type="matrix" values="0 0 0 0 0 0 0 0 0 0 0 0 0 0 0 0 0 0 127 0" result="hardAlpha"/>
<feMorphology radius="1.2" operator="erode" in="SourceAlpha" result="effect1_innerShadow_3268_189"/>
<feOffset dy="-23"/>
<feComposite in2="hardAlpha" operator="arithmetic" k2="-1" k3="1"/>
<feColorMatrix type="matrix" values="0 0 0 0 0 0 0 0 0 0 0 0 0 0 0 0 0 0 0.15 0"/>
<feBlend mode="normal" in2="shape" result="effect1_innerShadow_3268_189"/>
</filter>
</defs>
</svg>
