<svg xmlns="http://www.w3.org/2000/svg" width="2048" height="2048" viewBox="0 0 2048 2048" version="1.1">
	<path d="M 159 446.679 C 153.343 448.645, 137.972 457.153, 134.406 460.292 C 128.765 465.257, 121.622 476.106, 117.272 486.315 C 112.751 496.927, 107.657 517.114, 105.367 533.500 C 102.792 551.919, 102.780 608.755, 105.346 630.500 C 117.008 729.307, 150.978 816.493, 222.819 932 C 245.528 968.512, 257.209 984.440, 272.389 999.590 C 284.310 1011.489, 291.152 1016.587, 303.612 1022.856 C 323.339 1032.780, 352.780 1038.100, 379.750 1036.612 C 385.938 1036.270, 391 1036.268, 391 1036.607 C 391 1036.945, 389.234 1039.332, 387.075 1041.911 C 380.506 1049.757, 370.196 1065.938, 365.036 1076.500 C 350.672 1105.901, 345.277 1134.923, 346.285 1177.365 C 346.919 1204.049, 348.833 1218.655, 354.928 1243.329 C 369.390 1301.872, 398.636 1361.746, 439.558 1416.588 C 463.384 1448.520, 504.699 1491.387, 535 1515.617 C 599.987 1567.584, 652.277 1578.820, 705.500 1552.254 C 739.559 1535.254, 779.722 1499.323, 811.905 1457.061 C 844.378 1414.419, 876.703 1354.489, 894.733 1303.500 C 896.094 1299.650, 900.315 1287.050, 904.111 1275.500 C 908.293 1262.779, 910.826 1256.274, 910.536 1259 C 910.272 1261.475, 909.047 1289.239, 907.814 1320.698 L 905.571 1377.896 918.223 1446.517 C 929.335 1506.782, 931.250 1515.890, 933.948 1521.319 C 939.005 1531.493, 943.003 1538.360, 945.317 1540.845 C 949.071 1544.877, 1014.197 1596, 1015.579 1596 C 1015.912 1596, 1017.329 1596.900, 1018.727 1598 C 1020.126 1599.100, 1022.498 1600, 1024 1600 C 1025.502 1600, 1027.874 1599.100, 1029.273 1598 C 1030.671 1596.900, 1032.088 1596, 1032.421 1596 C 1033.803 1596, 1098.929 1544.877, 1102.683 1540.845 C 1104.997 1538.360, 1108.995 1531.493, 1114.052 1521.319 C 1116.750 1515.890, 1118.665 1506.782, 1129.777 1446.517 L 1142.429 1377.896 1140.186 1320.698 C 1138.953 1289.239, 1137.728 1261.475, 1137.464 1259 C 1137.174 1256.274, 1139.707 1262.779, 1143.889 1275.500 C 1147.685 1287.050, 1151.906 1299.650, 1153.267 1303.500 C 1171.297 1354.489, 1203.622 1414.419, 1236.095 1457.061 C 1262.627 1491.903, 1294.645 1522.584, 1325 1542.254 C 1380.436 1578.177, 1433.052 1573.734, 1497 1527.730 C 1517.707 1512.833, 1531.568 1500.664, 1557.514 1474.603 C 1602.113 1429.805, 1632.815 1387.430, 1659.022 1334.500 C 1679.320 1293.504, 1693.373 1251.208, 1699.119 1213.818 C 1701.732 1196.810, 1702.777 1159.196, 1701.090 1142.865 C 1698.521 1117.998, 1692.542 1096.104, 1682.964 1076.500 C 1677.804 1065.938, 1667.494 1049.757, 1660.925 1041.911 C 1658.766 1039.332, 1657 1036.945, 1657 1036.607 C 1657 1036.268, 1662.063 1036.270, 1668.250 1036.612 C 1695.220 1038.100, 1724.661 1032.780, 1744.388 1022.856 C 1756.848 1016.587, 1763.690 1011.489, 1775.611 999.590 C 1790.791 984.440, 1802.472 968.512, 1825.181 932 C 1897.022 816.493, 1930.992 729.307, 1942.654 630.500 C 1945.220 608.755, 1945.208 551.919, 1942.633 533.500 C 1938.944 507.105, 1931.862 485.083, 1922.571 471.107 C 1916.400 461.824, 1911.313 457.523, 1899.393 451.508 C 1890.472 447.007, 1888.723 446.480, 1881.599 446.146 C 1871.882 445.689, 1862.541 447.095, 1845.001 451.655 C 1821.688 457.715, 1797.487 468.446, 1732.500 501.540 C 1627.565 554.976, 1561.090 584.794, 1430.862 636.844 C 1342.364 672.216, 1307.504 689.451, 1255 723.797 C 1226.889 742.186, 1201.653 760.663, 1177.315 780.675 C 1164.778 790.983, 1166.089 791.019, 1164.479 780.328 C 1163.898 776.473, 1164.184 775.746, 1168.228 770.781 C 1176.835 760.214, 1187.122 737.205, 1191.038 719.761 C 1193.364 709.399, 1193.594 694.484, 1191.574 685 L 1190.189 678.500 1201.397 667 C 1207.561 660.675, 1214.636 653.025, 1217.120 650 C 1228.833 635.733, 1241.508 615.531, 1251.350 595.441 C 1256.171 585.602, 1257.869 583.080, 1260.998 581.114 C 1271.790 574.332, 1279.633 564.712, 1287.949 548.056 C 1299.811 524.300, 1304.448 506.066, 1303.823 485.641 C 1303.471 474.164, 1303.097 471.804, 1300.870 467 C 1296.947 458.539, 1293.787 455.528, 1283.439 450.392 L 1273.984 445.699 1264.395 446.329 C 1259.120 446.676, 1252.487 447.628, 1249.653 448.444 C 1246.819 449.261, 1241.255 450.853, 1237.289 451.982 C 1226.996 454.911, 1219.644 461.827, 1213.483 474.375 C 1207.319 486.928, 1205.628 494.124, 1205.696 507.500 C 1205.757 519.435, 1208.356 532.856, 1211.981 539.963 C 1213.632 543.200, 1213.792 544.363, 1212.863 546.402 C 1212.031 548.228, 1212.020 550.036, 1212.821 553.193 C 1213.874 557.343, 1213.734 557.833, 1208.863 566.998 C 1195.398 592.334, 1175.430 617.063, 1155.315 633.315 L 1148.178 639.081 1141.839 636.946 C 1128.473 632.443, 1107.793 633.597, 1084.500 640.147 C 1071.286 643.862, 1062.669 645.702, 1050 647.514 C 1044.775 648.262, 1036.787 649.818, 1032.250 650.972 L 1024 653.071 1015.750 650.972 C 1011.212 649.818, 1003.225 648.262, 998 647.514 C 985.331 645.702, 976.714 643.862, 963.500 640.147 C 940.207 633.597, 919.527 632.443, 906.161 636.946 L 899.822 639.081 892.685 633.315 C 872.570 617.063, 852.602 592.334, 839.137 566.998 C 834.266 557.833, 834.126 557.343, 835.179 553.193 C 835.980 550.036, 835.969 548.228, 835.137 546.402 C 834.208 544.363, 834.368 543.200, 836.019 539.963 C 839.644 532.856, 842.243 519.435, 842.304 507.500 C 842.372 494.124, 840.681 486.928, 834.517 474.375 C 828.356 461.827, 821.004 454.911, 810.711 451.982 C 806.745 450.853, 801.181 449.261, 798.347 448.444 C 795.513 447.628, 788.880 446.676, 783.605 446.329 L 774.016 445.699 764.561 450.392 C 754.213 455.528, 751.053 458.539, 747.130 467 C 744.903 471.804, 744.529 474.164, 744.177 485.641 C 743.552 506.066, 748.189 524.300, 760.051 548.056 C 768.367 564.712, 776.210 574.332, 787.002 581.114 C 790.131 583.080, 791.829 585.602, 796.650 595.441 C 806.492 615.531, 819.167 635.733, 830.880 650 C 833.364 653.025, 840.439 660.675, 846.603 667 L 857.811 678.500 856.426 685 C 854.406 694.484, 854.636 709.399, 856.962 719.761 C 860.878 737.205, 871.165 760.214, 879.772 770.781 C 883.816 775.746, 884.102 776.473, 883.521 780.328 C 881.911 791.019, 883.222 790.983, 870.685 780.675 C 846.347 760.663, 821.111 742.186, 793 723.797 C 740.496 689.451, 705.636 672.216, 617.138 636.844 C 486.910 584.794, 420.435 554.976, 315.500 501.540 C 239.212 462.692, 215.389 452.848, 184.500 447.411 C 176.735 446.044, 162.041 445.622, 159 446.679" stroke="none" fill="#F2E8BF" fill-rule="evenodd"/>
</svg>