<svg xmlns="http://www.w3.org/2000/svg" width="2048" height="2048" viewBox="0 0 2048 2048" version="1.1">
	<path d="M 338.701 46.632 C 337.127 48.207, 338.061 50.130, 340.250 49.820 C 341.488 49.644, 342.500 48.831, 342.500 48.014 C 342.500 46.425, 339.866 45.467, 338.701 46.632 M 1705.534 46.945 C 1704.569 48.506, 1705.839 50, 1708.132 50 C 1709.507 50, 1710.040 49.448, 1709.812 48.261 C 1709.428 46.269, 1706.507 45.370, 1705.534 46.945 M 406 429.676 C 360.030 431.732, 319.138 442.751, 280.424 463.517 C 228.495 491.372, 192.864 533.788, 167.034 598.500 C 134.249 680.635, 124.323 783.535, 139.590 883 C 151.781 962.427, 183.577 1050.365, 225.103 1119.504 C 255.871 1170.730, 297.380 1217.404, 338.322 1246.810 C 355.942 1259.466, 369.612 1265.353, 393.129 1270.412 L 395.757 1270.977 390.874 1282.239 C 381.007 1304.991, 373.905 1330.467, 370.311 1356 C 367.642 1374.957, 367.912 1416.572, 370.826 1435.500 C 376.076 1469.594, 386.750 1501.947, 403.819 1535.500 C 418.552 1564.461, 432.217 1583.347, 454.506 1605.553 C 500.861 1651.736, 564.421 1679.950, 636 1686.116 C 652.356 1687.525, 687.776 1686.690, 703.500 1684.525 C 764.248 1676.161, 819.328 1653.354, 868.259 1616.305 C 906.995 1586.976, 935.497 1556.526, 957.376 1521.100 C 977.987 1487.726, 993.843 1453.370, 1001.434 1425.640 L 1004.681 1413.780 1007.348 1418.331 C 1008.815 1420.835, 1012.233 1425.159, 1014.943 1427.941 C 1019.293 1432.408, 1020.354 1433, 1024 1433 C 1027.646 1433, 1028.707 1432.408, 1033.057 1427.941 C 1035.767 1425.159, 1039.185 1420.835, 1040.652 1418.331 L 1043.319 1413.780 1046.566 1425.640 C 1054.157 1453.370, 1070.013 1487.726, 1090.624 1521.100 C 1112.503 1556.526, 1141.005 1586.976, 1179.741 1616.305 C 1228.672 1653.354, 1283.752 1676.161, 1344.500 1684.525 C 1360.224 1686.690, 1395.644 1687.525, 1412 1686.116 C 1483.579 1679.950, 1547.139 1651.736, 1593.494 1605.553 C 1615.783 1583.347, 1629.448 1564.461, 1644.181 1535.500 C 1661.250 1501.947, 1671.924 1469.594, 1677.174 1435.500 C 1680.088 1416.572, 1680.358 1374.957, 1677.689 1356 C 1674.095 1330.467, 1666.993 1304.991, 1657.126 1282.239 L 1652.243 1270.977 1654.871 1270.412 C 1671.030 1266.936, 1678.666 1264.478, 1688.500 1259.589 C 1723.227 1242.326, 1770.250 1197.011, 1804.812 1147.504 C 1854.390 1076.489, 1894.386 974.372, 1908.410 883 C 1927.995 755.406, 1905.636 622.751, 1850.512 539.487 C 1824.430 500.090, 1792.743 473.733, 1747.166 453.526 C 1689.587 427.996, 1621.884 422.811, 1545.500 438.079 C 1533.525 440.472, 1501.645 448.847, 1488.170 453.139 C 1453.280 464.251, 1409.386 484.928, 1371 508.333 C 1285.242 560.622, 1205.188 634.358, 1134.680 726 C 1127.698 735.075, 1120.617 744.075, 1118.945 746 C 1117.273 747.925, 1109.064 759.009, 1100.702 770.631 C 1092.341 782.253, 1085.405 791.682, 1085.288 791.586 C 1085.086 791.417, 1090.142 776.531, 1131.515 655.500 C 1148.372 606.188, 1152.808 590.923, 1151.520 586.666 C 1151.326 586.025, 1150.901 584.282, 1150.575 582.794 C 1150.099 580.614, 1149.256 579.958, 1146.242 579.423 C 1144.184 579.057, 1141.292 577.632, 1139.817 576.256 C 1137.645 574.231, 1136.500 573.875, 1133.817 574.389 C 1131.992 574.739, 1129.150 575.239, 1127.500 575.501 C 1125.850 575.763, 1120.298 576.980, 1115.163 578.206 C 1107.095 580.133, 1105.635 580.806, 1104.417 583.161 C 1103.641 584.661, 1090.665 622.025, 1075.580 666.194 C 1057.247 719.874, 1045.859 751.639, 1041.234 762 C 1037.429 770.525, 1032.107 783.227, 1029.408 790.226 C 1026.708 797.225, 1024.275 802.951, 1024 802.951 C 1023.725 802.951, 1021.292 797.225, 1018.592 790.226 C 1015.893 783.227, 1010.571 770.525, 1006.766 762 C 1002.141 751.639, 990.753 719.874, 972.420 666.194 C 957.335 622.025, 944.359 584.661, 943.583 583.161 C 942.365 580.806, 940.905 580.133, 932.837 578.206 C 927.702 576.980, 922.150 575.763, 920.500 575.501 C 918.850 575.239, 916.008 574.739, 914.183 574.389 C 911.500 573.875, 910.355 574.231, 908.183 576.256 C 906.708 577.632, 903.816 579.057, 901.758 579.423 C 898.744 579.958, 897.901 580.614, 897.425 582.794 C 897.099 584.282, 896.674 586.025, 896.480 586.666 C 895.192 590.923, 899.628 606.188, 916.485 655.500 C 957.858 776.531, 962.914 791.417, 962.712 791.586 C 962.595 791.682, 955.659 782.253, 947.298 770.631 C 938.936 759.009, 930.727 747.925, 929.055 746 C 927.383 744.075, 920.302 735.075, 913.320 726 C 817.325 601.230, 700.011 506.988, 585 462.248 C 565.801 454.780, 555.351 451.435, 531.330 445.068 C 499.457 436.621, 470.492 431.827, 440.500 430.035 C 424.208 429.062, 420.583 429.024, 406 429.676 M 960.079 1379.583 C 960.127 1380.748, 960.364 1380.985, 960.683 1380.188 C 960.972 1379.466, 960.936 1378.603, 960.604 1378.271 C 960.272 1377.939, 960.036 1378.529, 960.079 1379.583 M 1087.079 1379.583 C 1087.127 1380.748, 1087.364 1380.985, 1087.683 1380.188 C 1087.972 1379.466, 1087.936 1378.603, 1087.604 1378.271 C 1087.272 1377.939, 1087.036 1378.529, 1087.079 1379.583 M 952.717 1402.839 C 944.142 1428.958, 938.049 1444.231, 927.962 1464.889 C 919.239 1482.754, 910.131 1498.426, 901.388 1510.612 C 893.806 1521.179, 897.387 1517.959, 906.081 1506.392 C 927.323 1478.131, 944.358 1444.469, 953.379 1412.933 C 956.402 1402.365, 960.300 1384.370, 959.840 1383.110 C 959.653 1382.598, 956.448 1391.476, 952.717 1402.839 M 1088.537 1386.317 C 1088.870 1388.967, 1090.430 1396.392, 1092.004 1402.817 C 1100.939 1439.307, 1117.813 1474.320, 1141.919 1506.392 C 1150.613 1517.959, 1154.194 1521.179, 1146.612 1510.612 C 1127.278 1483.664, 1110.378 1448.219, 1094.829 1402 C 1090.487 1389.096, 1088.156 1383.285, 1088.537 1386.317 M 893.872 1520.750 C 892.629 1522.336, 892.664 1522.371, 894.250 1521.128 C 895.916 1519.821, 896.445 1519, 895.622 1519 C 895.415 1519, 894.627 1519.787, 893.872 1520.750 M 1152 1519.378 C 1152 1519.585, 1152.787 1520.373, 1153.750 1521.128 C 1155.336 1522.371, 1155.371 1522.336, 1154.128 1520.750 C 1152.821 1519.084, 1152 1518.555, 1152 1519.378" stroke="none" fill="#F2E8BF" fill-rule="evenodd"/>
</svg>