<svg xmlns="http://www.w3.org/2000/svg" width="2048" height="2048" viewBox="0 0 2048 2048" version="1.1">
	<path d="M 268.500 426.634 C 249.262 428.212, 226.830 432.608, 213 437.509 C 202.009 441.404, 172.914 455.960, 162.280 462.885 C 149.758 471.037, 144.694 476.348, 139.962 486.288 C 125.679 516.290, 120.281 591.460, 127.594 658.500 C 133.272 710.557, 149.907 769.259, 173.784 821.500 C 194.200 866.168, 225.523 920.465, 247.764 949.743 C 251.345 954.457, 253.555 958.471, 254.095 961.243 C 254.551 963.584, 256.758 980.125, 259 998 C 265.750 1051.811, 268.554 1068.105, 275.965 1096.592 C 282.209 1120.594, 290.017 1141.394, 301.456 1164.500 C 312.775 1187.362, 320.112 1199.320, 331.447 1213.382 C 363.547 1253.202, 398.197 1274.507, 449.325 1285.857 C 454.178 1286.935, 458.393 1288.059, 458.690 1288.356 C 458.987 1288.653, 457.765 1292.407, 455.974 1296.698 C 445.906 1320.827, 438.733 1350.314, 436.021 1378.721 C 434.638 1393.212, 434.652 1426.536, 436.048 1441.669 C 441.655 1502.462, 468.543 1572.844, 505.321 1623 C 538.377 1668.082, 584.895 1703.866, 637 1724.296 C 709.220 1752.613, 788.748 1750.004, 857.620 1717.059 C 895.418 1698.978, 936.013 1666.950, 962.917 1633.983 C 982.974 1609.406, 1006.564 1568.394, 1019.116 1536.278 C 1021.527 1530.109, 1023.725 1525.061, 1024 1525.061 C 1024.275 1525.061, 1026.473 1530.109, 1028.884 1536.278 C 1034.617 1550.946, 1040.843 1563.785, 1052.024 1584 C 1076.963 1629.085, 1100.652 1656.207, 1143 1688.159 C 1212.884 1740.887, 1299.706 1756.936, 1385 1732.893 C 1434.012 1719.077, 1480.553 1691.250, 1515.500 1654.868 C 1540.133 1629.222, 1555.478 1607.324, 1572.517 1573.500 C 1594.276 1530.307, 1608.012 1484.390, 1611.952 1441.669 C 1613.348 1426.536, 1613.362 1393.212, 1611.979 1378.721 C 1609.267 1350.314, 1602.094 1320.827, 1592.026 1296.698 C 1590.235 1292.407, 1589.013 1288.653, 1589.310 1288.356 C 1589.607 1288.059, 1593.822 1286.935, 1598.675 1285.857 C 1649.803 1274.507, 1684.453 1253.202, 1716.553 1213.382 C 1727.888 1199.320, 1735.225 1187.362, 1746.544 1164.500 C 1757.983 1141.394, 1765.791 1120.594, 1772.035 1096.592 C 1779.446 1068.105, 1782.250 1051.811, 1789 998 C 1791.242 980.125, 1793.449 963.584, 1793.905 961.243 C 1794.445 958.471, 1796.655 954.457, 1800.236 949.743 C 1822.477 920.465, 1853.800 866.168, 1874.216 821.500 C 1898.093 769.259, 1914.728 710.557, 1920.406 658.500 C 1927.719 591.460, 1922.321 516.290, 1908.038 486.288 C 1903.306 476.348, 1898.242 471.037, 1885.720 462.885 C 1875.086 455.960, 1845.991 441.404, 1835 437.509 C 1824.995 433.963, 1810.148 430.519, 1795.500 428.347 C 1780.517 426.124, 1728.670 425.807, 1708.500 427.814 C 1645.600 434.073, 1579.184 447.208, 1502 468.651 C 1412.652 493.473, 1351.845 521.634, 1287.355 568.056 C 1230.367 609.078, 1171.965 665.311, 1121.407 727.842 L 1111.313 740.325 1087.907 746.001 C 1075.033 749.122, 1064.342 751.554, 1064.150 751.404 C 1063.957 751.255, 1079.431 710.940, 1098.537 661.816 C 1117.643 612.692, 1134.339 569.471, 1135.638 565.769 C 1139.189 555.648, 1138.591 549, 1134.129 549 C 1133.320 549, 1131.863 548.281, 1130.892 547.402 C 1129.274 545.938, 1128.454 545.950, 1121.054 547.549 C 1116.614 548.508, 1112.351 549.790, 1111.581 550.397 C 1110.309 551.399, 1030 756.576, 1030 758.824 C 1030 760.096, 1027.506 761, 1024 761 C 1020.494 761, 1018 760.096, 1018 758.824 C 1018 756.576, 937.691 551.399, 936.419 550.397 C 935.649 549.790, 931.386 548.508, 926.946 547.549 C 919.546 545.950, 918.726 545.938, 917.108 547.402 C 916.137 548.281, 914.680 549, 913.871 549 C 909.409 549, 908.811 555.648, 912.362 565.769 C 913.661 569.471, 930.357 612.692, 949.463 661.816 C 968.569 710.940, 984.043 751.255, 983.850 751.404 C 983.658 751.554, 972.967 749.122, 960.093 746.001 L 936.687 740.325 926.593 727.842 C 883.772 674.880, 836.715 627.731, 787.500 588.476 C 714.647 530.367, 646.578 496.593, 546 468.651 C 469.508 447.400, 403.313 434.261, 341 427.962 C 330.197 426.870, 277.412 425.903, 268.500 426.634" stroke="none" fill="#F2E8BF" fill-rule="evenodd"/>
</svg>