<svg xmlns="http://www.w3.org/2000/svg" width="2048" height="2048" viewBox="0 0 2048 2048" version="1.1">
	<path d="M 632.376 140.774 C 631.344 141.852, 628.885 143.026, 626.911 143.382 C 622.040 144.262, 620.698 147.053, 621.274 155.106 C 621.836 162.952, 623.310 168.580, 625.411 170.902 C 626.285 171.867, 627.005 173.747, 627.012 175.079 C 627.033 179.313, 634.178 192.256, 637.843 194.698 C 642.660 197.908, 650.689 200.761, 665.501 204.525 C 686.985 209.984, 703.734 212.109, 764 217.021 C 825.493 222.034, 858.358 228.946, 888 243.100 C 903.274 250.394, 918.773 260.838, 926.804 269.247 L 930.109 272.707 923.048 276.902 C 913.273 282.709, 905.635 289.190, 890.500 304.516 C 869.748 325.530, 854.674 334.688, 806.500 355.549 C 774.979 369.198, 742.593 385.469, 729 394.486 C 722.320 398.917, 714.654 405.279, 707.928 411.975 C 692.247 427.586, 684.370 440.756, 679.213 459.989 C 676.891 468.650, 676.664 471.243, 676.667 489 C 676.672 511.886, 678.106 520.326, 686.081 544.408 C 688.796 552.607, 690.901 559.407, 690.759 559.520 C 690.617 559.632, 683.525 555.353, 675 550.011 C 619.710 515.364, 562.571 485.547, 512.737 465.338 C 471.037 448.427, 429.645 437.018, 394 432.610 C 340.959 426.051, 295.316 429.419, 260.746 442.442 C 226.015 455.525, 189.948 483.996, 170.097 514 C 163.844 523.452, 154.579 542.910, 150.576 555 C 142.887 578.221, 139.691 604.307, 141.138 632.041 C 144.018 687.258, 163.549 736.272, 201.094 782.500 C 219.633 805.327, 249.065 827.110, 276.651 838.421 L 281.802 840.533 277.362 846.406 C 271.213 854.540, 265.486 866.828, 262.871 877.500 C 260.292 888.026, 259.856 907.324, 261.900 920.500 C 268.417 962.527, 289.847 1009.517, 323.012 1054.500 C 365.893 1112.664, 415.916 1145.206, 478.500 1155.653 C 494.173 1158.269, 535.639 1158.281, 551.862 1155.674 C 600.827 1147.805, 648.617 1127.585, 705.090 1090.842 C 715.087 1084.338, 719.536 1082, 721.918 1082 C 724.386 1082, 748.391 1074.805, 757.741 1071.263 C 758.469 1070.987, 757.902 1073.211, 756.369 1076.647 C 729.617 1136.583, 720.705 1221.241, 732.037 1307.787 C 740.292 1370.837, 760.616 1437.424, 789.332 1495.500 C 809.478 1536.244, 825.550 1561.597, 848.922 1589.500 C 858.512 1600.949, 879.624 1621.857, 888.807 1629 C 895.855 1634.482, 895.913 1634.567, 906.500 1655 C 916.355 1674.019, 917.951 1677.956, 928.597 1709.500 C 950.160 1773.390, 966.307 1827.567, 972.467 1856.694 C 979.536 1890.121, 981.555 1896.983, 988.661 1911.764 C 992.447 1919.640, 996.420 1925, 998.471 1925 C 999.284 1925, 1001.164 1930.110, 1003.530 1938.750 C 1007.322 1952.599, 1009.382 1957.571, 1013.991 1964 C 1017.606 1969.043, 1018.866 1969.769, 1024 1969.769 C 1029.134 1969.769, 1030.394 1969.043, 1034.009 1964 C 1038.618 1957.571, 1040.678 1952.599, 1044.470 1938.750 C 1046.836 1930.110, 1048.716 1925, 1049.529 1925 C 1051.580 1925, 1055.553 1919.640, 1059.339 1911.764 C 1066.445 1896.983, 1068.464 1890.121, 1075.533 1856.694 C 1081.693 1827.567, 1097.840 1773.390, 1119.403 1709.500 C 1130.049 1677.956, 1131.645 1674.019, 1141.500 1655 C 1152.087 1634.567, 1152.145 1634.482, 1159.193 1629 C 1168.376 1621.857, 1189.488 1600.949, 1199.078 1589.500 C 1222.450 1561.597, 1238.522 1536.244, 1258.668 1495.500 C 1287.384 1437.424, 1307.708 1370.837, 1315.963 1307.787 C 1327.295 1221.241, 1318.383 1136.583, 1291.631 1076.647 C 1290.098 1073.211, 1289.531 1070.987, 1290.259 1071.263 C 1299.609 1074.805, 1323.614 1082, 1326.082 1082 C 1328.464 1082, 1332.913 1084.338, 1342.910 1090.842 C 1399.383 1127.585, 1447.173 1147.805, 1496.138 1155.674 C 1512.361 1158.281, 1553.827 1158.269, 1569.500 1155.653 C 1632.084 1145.206, 1682.107 1112.664, 1724.988 1054.500 C 1758.153 1009.517, 1779.583 962.527, 1786.100 920.500 C 1788.144 907.324, 1787.708 888.026, 1785.129 877.500 C 1782.514 866.828, 1776.787 854.540, 1770.638 846.406 L 1766.198 840.533 1771.349 838.421 C 1798.935 827.110, 1828.367 805.327, 1846.906 782.500 C 1878.594 743.483, 1897.392 702.477, 1904.472 656.920 C 1913.704 597.517, 1900.357 540.410, 1867.912 500.500 C 1852.345 481.351, 1827.745 461.916, 1803.980 449.990 C 1779.645 437.778, 1756.323 432.005, 1722.500 429.819 C 1686.283 427.478, 1644.099 431.974, 1603.500 442.501 C 1538.445 459.370, 1457.098 497.312, 1373 550.011 C 1364.475 555.353, 1357.383 559.632, 1357.241 559.520 C 1357.099 559.407, 1359.204 552.607, 1361.919 544.408 C 1369.894 520.326, 1371.328 511.886, 1371.333 489 C 1371.336 471.243, 1371.109 468.650, 1368.787 459.989 C 1363.630 440.756, 1355.753 427.586, 1340.072 411.975 C 1333.346 405.279, 1325.680 398.917, 1319 394.486 C 1305.407 385.469, 1273.021 369.198, 1241.500 355.549 C 1208.811 341.393, 1199.170 336.519, 1183.500 326.222 C 1173.047 319.354, 1167.953 315.101, 1157.500 304.516 C 1142.365 289.190, 1134.727 282.709, 1124.952 276.902 L 1117.891 272.707 1121.196 269.247 C 1129.227 260.838, 1144.726 250.394, 1160 243.100 C 1189.642 228.946, 1222.507 222.034, 1284 217.021 C 1344.266 212.109, 1361.015 209.984, 1382.499 204.525 C 1397.311 200.761, 1405.340 197.908, 1410.157 194.698 C 1413.822 192.256, 1420.967 179.313, 1420.988 175.079 C 1420.995 173.747, 1421.715 171.867, 1422.589 170.902 C 1424.690 168.580, 1426.164 162.952, 1426.726 155.106 C 1427.302 147.053, 1425.960 144.262, 1421.089 143.382 C 1419.115 143.026, 1416.656 141.852, 1415.624 140.774 C 1413.940 139.014, 1412.922 138.886, 1405.624 139.518 C 1401.156 139.905, 1397.050 140.571, 1396.500 140.998 C 1395.950 141.425, 1393.475 142.104, 1391 142.507 C 1388.525 142.910, 1382.896 144.727, 1378.491 146.544 C 1365.252 152.005, 1349.359 154.453, 1304 158.019 C 1230.859 163.768, 1194.548 169.980, 1154.828 183.538 C 1131.029 191.662, 1105.013 206.945, 1089.646 221.830 C 1083.153 228.119, 1071.281 242.949, 1067.844 249.064 C 1066.383 251.664, 1065.089 252.859, 1064.062 252.559 C 1052.247 249.108, 995.753 249.108, 983.938 252.559 C 982.911 252.859, 981.617 251.664, 980.156 249.064 C 976.719 242.949, 964.847 228.119, 958.354 221.830 C 929.524 193.906, 883.373 175.544, 817 165.590 C 797.781 162.708, 779.388 160.800, 744 158.019 C 698.641 154.453, 682.748 152.005, 669.509 146.544 C 665.104 144.727, 659.475 142.910, 657 142.507 C 654.525 142.104, 652.050 141.425, 651.500 140.998 C 650.950 140.571, 646.844 139.905, 642.376 139.518 C 635.078 138.886, 634.060 139.014, 632.376 140.774 M 193.066 653 C 192.889 657.199, 202.558 691.775, 203.614 690.719 C 203.838 690.495, 203.295 688.329, 202.407 685.906 C 201.519 683.483, 199.068 674.750, 196.961 666.500 C 194.853 658.250, 193.100 652.175, 193.066 653 M 1852.125 662.163 C 1850.851 667.848, 1848.519 676.530, 1846.944 681.456 C 1845.368 686.382, 1844.240 690.573, 1844.436 690.770 C 1845.547 691.880, 1855.562 655.186, 1854.785 652.854 C 1854.596 652.288, 1853.399 656.477, 1852.125 662.163 M 815.302 722.677 C 815.701 723.324, 817.917 725.349, 820.226 727.177 C 822.535 729.005, 824.098 729.970, 823.698 729.323 C 823.299 728.676, 821.083 726.651, 818.774 724.823 C 816.465 722.995, 814.902 722.030, 815.302 722.677 M 1228 726.092 L 1223.500 730.179 1227.736 727.016 C 1231.468 724.230, 1233.730 721.995, 1232.809 722.003 C 1232.639 722.004, 1230.475 723.844, 1228 726.092" stroke="none" fill="#F2E8BF" fill-rule="evenodd"/>
</svg>