<svg xmlns="http://www.w3.org/2000/svg" width="2048" height="2048" viewBox="0 0 2048 2048" version="1.1">
	<path d="M 406 429.676 C 359.994 431.733, 319.144 442.748, 280.348 463.558 C 235.960 487.367, 203.863 521.574, 179.063 571.500 C 136.254 657.680, 121.910 776.370, 140.633 889.500 C 155.490 979.272, 194.868 1078.343, 243.179 1147.500 C 270.658 1186.835, 307.041 1224.600, 340.428 1248.443 C 355.764 1259.395, 370.531 1265.551, 393.129 1270.412 L 395.757 1270.977 390.874 1282.239 C 381.002 1305.002, 373.895 1330.501, 370.315 1356 C 367.871 1373.408, 367.896 1415.514, 370.360 1432.500 C 375.465 1467.681, 385.962 1500.145, 403.332 1534.469 C 418.431 1564.305, 431.942 1583.073, 454.506 1605.553 C 500.861 1651.737, 564.454 1679.964, 636 1686.114 C 652.451 1687.528, 687.949 1686.700, 703.500 1684.539 C 781.149 1673.751, 849.397 1639.609, 908.327 1582.071 C 933.108 1557.876, 949.773 1535.531, 969.539 1500 C 985.308 1471.653, 995.065 1448.906, 1001.434 1425.640 L 1004.681 1413.780 1007.348 1418.331 C 1008.815 1420.835, 1012.233 1425.159, 1014.943 1427.941 C 1019.293 1432.408, 1020.354 1433, 1024 1433 C 1027.646 1433, 1028.707 1432.408, 1033.057 1427.941 C 1035.767 1425.159, 1039.185 1420.835, 1040.652 1418.331 L 1043.319 1413.780 1046.566 1425.640 C 1052.935 1448.906, 1062.692 1471.653, 1078.461 1500 C 1098.227 1535.531, 1114.892 1557.876, 1139.673 1582.071 C 1198.603 1639.609, 1266.851 1673.751, 1344.500 1684.539 C 1360.051 1686.700, 1395.549 1687.528, 1412 1686.114 C 1483.546 1679.964, 1547.139 1651.737, 1593.494 1605.553 C 1616.058 1583.073, 1629.569 1564.305, 1644.668 1534.469 C 1662.038 1500.145, 1672.535 1467.681, 1677.640 1432.500 C 1680.104 1415.514, 1680.129 1373.408, 1677.685 1356 C 1674.105 1330.501, 1666.998 1305.002, 1657.126 1282.239 L 1652.243 1270.977 1654.871 1270.412 C 1683.685 1264.213, 1697.062 1257.496, 1725 1235.199 C 1739.179 1223.883, 1770.935 1191.571, 1784.164 1175 C 1820.781 1129.132, 1850.672 1075.054, 1873.987 1012.500 C 1911.983 910.555, 1923.722 811.914, 1909.928 710.500 C 1907.236 690.704, 1902.027 665.040, 1896.938 646.500 C 1874.829 565.944, 1838.880 509.549, 1788.181 475.886 C 1728.050 435.961, 1655.359 421.648, 1573.103 433.536 C 1550.004 436.874, 1539.414 439.040, 1516.501 445.113 C 1491.765 451.670, 1479.241 455.762, 1458.500 464.064 C 1344.742 509.598, 1228.801 603.376, 1134.658 726 C 1127.690 735.075, 1120.452 744.300, 1118.572 746.500 C 1116.692 748.700, 1108.300 759.950, 1099.922 771.500 C 1091.544 783.050, 1085.015 791.600, 1085.414 790.500 C 1085.813 789.400, 1093.732 766.225, 1103.012 739 C 1112.291 711.775, 1126.645 669.752, 1134.909 645.615 C 1148.572 605.706, 1152.768 590.807, 1151.515 586.653 C 1151.324 586.019, 1150.901 584.282, 1150.575 582.794 C 1150.099 580.614, 1149.256 579.958, 1146.242 579.423 C 1144.184 579.057, 1141.292 577.632, 1139.817 576.256 C 1137.645 574.231, 1136.500 573.875, 1133.817 574.389 C 1131.992 574.739, 1129.150 575.239, 1127.500 575.501 C 1125.850 575.763, 1120.298 576.980, 1115.163 578.206 C 1107.048 580.144, 1105.639 580.797, 1104.396 583.202 C 1103.609 584.723, 1090.627 622.088, 1075.547 666.234 C 1057.370 719.445, 1045.800 751.724, 1041.222 762 C 1037.423 770.525, 1032.107 783.227, 1029.408 790.226 C 1026.708 797.225, 1024.275 802.951, 1024 802.951 C 1023.725 802.951, 1021.292 797.225, 1018.592 790.226 C 1015.893 783.227, 1010.577 770.525, 1006.778 762 C 1002.200 751.724, 990.630 719.445, 972.453 666.234 C 957.373 622.088, 944.391 584.723, 943.604 583.202 C 942.361 580.797, 940.952 580.144, 932.837 578.206 C 927.702 576.980, 922.150 575.763, 920.500 575.501 C 918.850 575.239, 916.008 574.739, 914.183 574.389 C 911.500 573.875, 910.355 574.231, 908.183 576.256 C 906.708 577.632, 903.816 579.057, 901.758 579.423 C 898.744 579.958, 897.901 580.614, 897.425 582.794 C 897.099 584.282, 896.676 586.019, 896.485 586.653 C 895.232 590.807, 899.428 605.706, 913.091 645.615 C 921.355 669.752, 935.709 711.775, 944.988 739 C 954.268 766.225, 962.187 789.400, 962.586 790.500 C 962.985 791.600, 956.456 783.050, 948.078 771.500 C 939.700 759.950, 931.308 748.700, 929.428 746.500 C 927.548 744.300, 920.310 735.075, 913.342 726 C 819.199 603.376, 703.258 509.598, 589.500 464.064 C 568.759 455.762, 556.235 451.670, 531.499 445.113 C 499.380 436.600, 469.988 431.727, 440.389 430.009 C 424.173 429.067, 420.425 429.031, 406 429.676 M 304.420 513.429 C 287.236 521.986, 276.860 528.659, 267.027 537.476 C 258.893 544.770, 247.613 557.010, 241.202 565.500 C 237.169 570.841, 237.980 570.238, 248.586 560 C 277.494 532.097, 291.068 521.501, 310.208 511.896 C 318.519 507.725, 321.287 506, 319.670 506 C 319.488 506, 312.625 509.343, 304.420 513.429 M 1728 506.503 C 1728 506.767, 1732.406 509.193, 1737.792 511.896 C 1756.932 521.501, 1770.506 532.097, 1799.414 560 C 1810.020 570.238, 1810.831 570.841, 1806.798 565.500 C 1795.607 550.680, 1779.575 535.006, 1766.923 526.518 C 1756.673 519.641, 1728 504.897, 1728 506.503 M 941.667 854.667 C 941.300 855.033, 941 855.798, 941 856.367 C 941 856.993, 941.466 856.934, 942.183 856.217 C 942.834 855.566, 943.134 854.801, 942.850 854.517 C 942.566 854.232, 942.033 854.300, 941.667 854.667 M 1105 854.882 C 1105 855.432, 1105.450 856.160, 1106 856.500 C 1106.550 856.840, 1107 856.668, 1107 856.118 C 1107 855.568, 1106.550 854.840, 1106 854.500 C 1105.450 854.160, 1105 854.332, 1105 854.882 M 1023 1387 C 1023 1387.550, 1023.450 1388, 1024 1388 C 1024.550 1388, 1025 1387.550, 1025 1387 C 1025 1386.450, 1024.550 1386, 1024 1386 C 1023.450 1386, 1023 1386.450, 1023 1387" stroke="none" fill="#F2E8BF" fill-rule="evenodd"/>
</svg>