<svg xmlns="http://www.w3.org/2000/svg" width="2048" height="2048" viewBox="0 0 2048 2048" version="1.1">
	<path d="M 268.500 426.634 C 249.262 428.212, 226.830 432.608, 213 437.509 C 202.009 441.404, 172.914 455.960, 162.280 462.885 C 149.758 471.037, 144.694 476.348, 139.962 486.288 C 125.705 516.235, 120.283 591.707, 127.589 658.500 C 133.291 710.625, 149.911 769.267, 173.784 821.500 C 194.346 866.485, 225.684 920.695, 248.731 951.145 C 253.452 957.382, 253.654 957.932, 255.311 969.040 C 256.251 975.343, 258.133 990.275, 259.493 1002.222 C 267.861 1075.759, 279.165 1119.475, 301.456 1164.500 C 312.775 1187.362, 320.112 1199.320, 331.447 1213.382 C 363.547 1253.202, 398.197 1274.507, 449.325 1285.857 C 454.178 1286.935, 458.393 1288.059, 458.690 1288.356 C 458.987 1288.653, 457.765 1292.407, 455.974 1296.698 C 445.643 1321.456, 438.641 1350.555, 435.959 1379.880 C 434.209 1399.011, 435.217 1440.489, 437.844 1457.500 C 446.198 1511.571, 467.265 1566.082, 497.164 1610.986 C 508.894 1628.602, 514.722 1635.948, 529.138 1651.288 C 564.930 1689.376, 610.241 1717.385, 659.671 1731.979 C 687.939 1740.324, 710.078 1743.457, 740.500 1743.416 C 784.155 1743.356, 819.072 1735.499, 857.620 1717.059 C 895.418 1698.978, 936.013 1666.950, 962.917 1633.983 C 982.974 1609.406, 1006.564 1568.394, 1019.116 1536.278 C 1021.527 1530.109, 1023.725 1525.061, 1024 1525.061 C 1024.275 1525.061, 1026.473 1530.109, 1028.884 1536.278 C 1037.355 1557.950, 1054.752 1590.925, 1068.826 1611.983 C 1083.208 1633.503, 1102.446 1655.048, 1122.072 1671.614 C 1170.569 1712.549, 1215.020 1733.240, 1272.500 1741.632 C 1287.415 1743.810, 1325.767 1744.098, 1340 1742.139 C 1411.250 1732.333, 1471.423 1701.769, 1518.862 1651.288 C 1533.278 1635.948, 1539.106 1628.602, 1550.836 1610.986 C 1580.735 1566.082, 1601.802 1511.571, 1610.156 1457.500 C 1612.783 1440.489, 1613.791 1399.011, 1612.041 1379.880 C 1609.359 1350.555, 1602.357 1321.456, 1592.026 1296.698 C 1590.235 1292.407, 1589.013 1288.653, 1589.310 1288.356 C 1589.607 1288.059, 1593.822 1286.935, 1598.675 1285.857 C 1649.803 1274.507, 1684.453 1253.202, 1716.553 1213.382 C 1727.888 1199.320, 1735.225 1187.362, 1746.544 1164.500 C 1768.835 1119.475, 1780.139 1075.759, 1788.507 1002.222 C 1789.867 990.275, 1791.749 975.343, 1792.689 969.040 C 1794.346 957.932, 1794.548 957.382, 1799.269 951.145 C 1822.316 920.695, 1853.654 866.485, 1874.216 821.500 C 1898.089 769.267, 1914.709 710.625, 1920.411 658.500 C 1927.717 591.707, 1922.295 516.235, 1908.038 486.288 C 1903.306 476.348, 1898.242 471.037, 1885.720 462.885 C 1875.086 455.960, 1845.991 441.404, 1835 437.509 C 1824.995 433.963, 1810.148 430.519, 1795.500 428.347 C 1780.517 426.124, 1728.670 425.807, 1708.500 427.814 C 1642.928 434.339, 1570.889 448.885, 1492 471.528 C 1396.901 498.824, 1332.449 531.398, 1260.500 588.527 C 1211.899 627.116, 1164.299 674.792, 1121.407 727.842 L 1111.313 740.325 1087.907 746.001 C 1075.033 749.122, 1064.340 751.551, 1064.144 751.399 C 1063.948 751.246, 1079.423 710.931, 1098.533 661.810 C 1117.643 612.690, 1134.341 569.471, 1135.639 565.769 C 1139.189 555.647, 1138.591 549, 1134.129 549 C 1133.320 549, 1131.863 548.281, 1130.892 547.402 C 1129.274 545.938, 1128.454 545.950, 1121.054 547.549 C 1116.614 548.508, 1112.352 549.790, 1111.583 550.397 C 1110.318 551.394, 1030 756.609, 1030 758.842 C 1030 760.097, 1027.489 761, 1024 761 C 1020.511 761, 1018 760.097, 1018 758.842 C 1018 756.609, 937.682 551.394, 936.417 550.397 C 935.648 549.790, 931.386 548.508, 926.946 547.549 C 919.546 545.950, 918.726 545.938, 917.108 547.402 C 916.137 548.281, 914.680 549, 913.871 549 C 909.409 549, 908.811 555.647, 912.361 565.769 C 913.659 569.471, 930.357 612.690, 949.467 661.810 C 968.577 710.931, 984.052 751.246, 983.856 751.399 C 983.660 751.551, 972.967 749.122, 960.093 746.001 L 936.687 740.325 926.593 727.842 C 883.701 674.792, 836.101 627.116, 787.500 588.527 C 715.551 531.398, 651.099 498.824, 556 471.528 C 477.799 449.082, 405.996 434.533, 341 427.962 C 330.197 426.870, 277.412 425.903, 268.500 426.634 M 980.079 927.583 C 980.127 928.748, 980.364 928.985, 980.683 928.188 C 980.972 927.466, 980.936 926.603, 980.604 926.271 C 980.272 925.939, 980.036 926.529, 980.079 927.583 M 1067.079 927.583 C 1067.127 928.748, 1067.364 928.985, 1067.683 928.188 C 1067.972 927.466, 1067.936 926.603, 1067.604 926.271 C 1067.272 925.939, 1067.036 926.529, 1067.079 927.583" stroke="none" fill="#F2E8BF" fill-rule="evenodd"/>
</svg>