<svg xmlns="http://www.w3.org/2000/svg" width="2102" height="1932" viewBox="0 0 2102 1932" version="1.1">
	<path d="M 649.500 13.667 C 638.474 14.344, 625.231 16.303, 619.303 18.134 C 614.509 19.614, 611.633 21.371, 607.035 25.628 C 601.791 30.483, 600.782 32.034, 599.090 37.845 C 595.390 50.552, 594.503 61.945, 594.561 96 C 594.618 129.410, 595.843 144.373, 599.540 156.822 C 602.256 165.968, 614.146 176.751, 626.152 180.955 C 647.419 188.403, 718.796 194.253, 834.500 198.031 C 852.650 198.623, 868.723 199.582, 870.217 200.162 C 873.870 201.578, 874.463 204.090, 872.523 209.932 C 871.117 214.165, 870.341 215.046, 866.768 216.476 C 861.081 218.752, 849.098 219.983, 832.500 219.996 C 801.462 220.022, 775.408 223.431, 755.569 230.062 C 697.555 249.451, 659.966 292.306, 649.052 351.500 C 646.312 366.363, 645.023 386.720, 645.002 415.500 C 644.980 443.702, 643.866 455.741, 640.722 461.739 C 639.500 464.071, 634.640 471.721, 629.923 478.739 C 609.115 509.697, 594.420 541.389, 585.054 575.500 C 578.704 598.632, 575.336 618.585, 572.060 652.500 C 570.530 668.340, 570.787 752.984, 572.421 771.354 C 573.148 779.524, 573.409 787.624, 573.001 789.354 C 571.791 794.485, 569.826 797.920, 567.719 798.589 C 562.780 800.157, 471.527 844.660, 445.500 858.195 C 331.039 917.717, 211.522 997.929, 135 1066.582 C 119.032 1080.908, 85.794 1114.680, 75.537 1127 C 53.172 1153.864, 36.786 1179.282, 27.415 1201.649 C 15.347 1230.453, 11.677 1255.112, 11.663 1307.500 C 11.648 1363.377, 15.627 1388.083, 29.728 1419.684 C 60.412 1488.449, 133.158 1517.073, 277 1516.979 C 391.047 1516.905, 479.839 1498.072, 579.222 1452.876 C 585.120 1450.194, 590.878 1448, 592.018 1448 C 595.518 1448, 598.756 1452.367, 601.020 1460.143 C 616.522 1513.373, 634.908 1555.208, 665.688 1607.291 C 699.661 1664.776, 746.806 1718.627, 803 1764.134 C 828.661 1784.915, 850.048 1800.373, 890 1827.015 C 932.028 1855.042, 940.185 1861.783, 958.966 1884 C 970.056 1897.120, 979.468 1906.178, 984.878 1908.938 C 994.500 1913.846, 1017.098 1916.395, 1051 1916.395 C 1084.902 1916.395, 1107.500 1913.846, 1117.122 1908.938 C 1122.532 1906.178, 1131.944 1897.120, 1143.034 1884 C 1161.815 1861.783, 1169.972 1855.042, 1212 1827.015 C 1251.952 1800.373, 1273.339 1784.915, 1299 1764.134 C 1355.194 1718.627, 1402.339 1664.776, 1436.312 1607.291 C 1467.092 1555.208, 1485.478 1513.373, 1500.980 1460.143 C 1503.244 1452.367, 1506.482 1448, 1509.982 1448 C 1511.122 1448, 1516.880 1450.194, 1522.778 1452.876 C 1571.133 1474.867, 1615.180 1489.884, 1662.248 1500.428 C 1713.270 1511.857, 1763.240 1516.939, 1825 1516.979 C 1968.842 1517.073, 2041.588 1488.449, 2072.272 1419.684 C 2086.373 1388.083, 2090.352 1363.377, 2090.337 1307.500 C 2090.329 1278.593, 2088.902 1254.252, 2086.465 1241.431 C 2079.110 1202.743, 2061.394 1168.956, 2026.463 1127 C 2016.206 1114.680, 1982.968 1080.908, 1967 1066.582 C 1890.478 997.929, 1770.961 917.717, 1656.500 858.195 C 1630.473 844.660, 1539.220 800.157, 1534.281 798.589 C 1532.174 797.920, 1530.209 794.485, 1528.999 789.354 C 1528.591 787.624, 1528.852 779.524, 1529.579 771.354 C 1531.213 752.984, 1531.470 668.340, 1529.940 652.500 C 1526.664 618.585, 1523.296 598.632, 1516.946 575.500 C 1507.580 541.389, 1492.885 509.697, 1472.077 478.739 C 1467.360 471.721, 1462.500 464.071, 1461.278 461.739 C 1458.134 455.741, 1457.020 443.702, 1456.998 415.500 C 1456.977 386.720, 1455.688 366.363, 1452.948 351.500 C 1442.034 292.306, 1404.445 249.451, 1346.431 230.062 C 1326.592 223.431, 1300.538 220.022, 1269.500 219.996 C 1252.902 219.983, 1240.919 218.752, 1235.232 216.476 C 1231.659 215.046, 1230.883 214.165, 1229.477 209.932 C 1227.537 204.090, 1228.130 201.578, 1231.783 200.162 C 1233.277 199.582, 1249.350 198.623, 1267.500 198.031 C 1383.204 194.253, 1454.581 188.403, 1475.848 180.955 C 1487.854 176.751, 1499.744 165.968, 1502.460 156.822 C 1506.157 144.373, 1507.382 129.410, 1507.439 96 C 1507.497 61.945, 1506.610 50.552, 1502.910 37.845 C 1501.222 32.049, 1500.204 30.479, 1495.032 25.690 C 1484.671 16.097, 1474.852 14.222, 1430.500 13.366 C 1399.825 12.774, 1380.989 13.394, 1337 16.444 C 1307.252 18.506, 1280.964 19.731, 1228.500 21.497 C 1135.778 24.618, 1112.242 27.275, 1093.554 36.730 C 1086.739 40.178, 1077.843 48.941, 1074.179 55.816 C 1068.216 67.003, 1066.158 76.610, 1058.394 129.500 C 1054.364 156.952, 1053.120 162.500, 1051 162.500 C 1048.880 162.500, 1047.636 156.952, 1043.606 129.500 C 1035.842 76.610, 1033.784 67.003, 1027.821 55.816 C 1024.157 48.941, 1015.261 40.178, 1008.446 36.730 C 989.758 27.275, 966.222 24.618, 873.500 21.497 C 820.964 19.728, 794.869 18.512, 764.500 16.415 C 724.534 13.657, 708.794 13.048, 681.500 13.205 C 666.650 13.291, 652.250 13.499, 649.500 13.667" stroke="none" fill="#F2E8BF" fill-rule="evenodd"/>
</svg>