<svg xmlns="http://www.w3.org/2000/svg" width="2202" height="2108" viewBox="0 0 2202 2108" version="1.1">
	<path d="M 737 14.012 C 716.524 15.718, 708.705 17.898, 700.907 24.073 C 695.749 28.159, 692.555 33.894, 690.645 42.500 C 684.644 69.544, 686.395 142.900, 693.438 159.448 C 695.346 163.932, 702.249 171.309, 708.249 175.276 C 715.625 180.153, 724.800 183.192, 745 187.448 C 783.744 195.612, 812.700 205.676, 841.866 221.114 C 878.662 240.591, 913.679 269.157, 916.500 281.999 C 917.515 286.619, 915.336 291.525, 908.570 299.860 C 894.607 317.058, 884.383 334.173, 881.905 344.500 C 879.158 355.944, 874.590 360.349, 867.809 358.093 C 864.079 356.852, 859.539 353.457, 834.844 333.445 C 807.537 311.317, 798.300 304.526, 770 285.776 C 734.675 262.370, 705.297 240.330, 696.090 230.324 C 687.048 220.497, 677.613 207.280, 670.874 195 C 663.940 182.365, 660.894 177.989, 654.761 171.856 C 645.671 162.766, 636.085 160.036, 605.735 157.895 C 579.021 156.010, 538.559 158.133, 524.806 162.141 C 515.734 164.784, 509.233 171.104, 506.041 180.380 C 502.454 190.805, 501.500 202.946, 501.509 238 C 501.523 284.733, 503.556 299.186, 512.679 317.389 C 518.140 328.287, 528.201 345.575, 541.191 366.381 C 552.106 383.866, 554.980 389.674, 554.994 394.281 C 555.003 396.919, 552.612 397.366, 548.840 395.431 C 538.836 390.297, 501.995 362.357, 474.500 339.051 C 411.756 285.866, 362.735 250.857, 332.415 237.579 C 302.557 224.503, 265.187 218.997, 206.500 219.028 C 127.347 219.070, 93.359 228.588, 60.816 259.823 C 42.697 277.215, 29.599 300.949, 21.147 331.709 C 14.354 356.433, 12.968 370.189, 12.327 419.259 C 11.625 473.003, 14.097 501.262, 23.982 552.500 C 29.048 578.758, 29.672 583.483, 31.506 609.500 C 35.425 665.107, 38.570 685.024, 47.217 709 C 61.318 748.100, 88.930 787.298, 132.124 829.536 C 159.013 855.829, 190.261 878.034, 218.665 891.031 C 228.372 895.472, 248.263 903.330, 256.500 905.978 C 260.350 907.215, 264.067 908.943, 264.759 909.817 C 267.189 912.885, 268.088 918.660, 269.007 937.092 C 270.335 963.719, 273.139 978.129, 280.619 996.763 C 287.811 1014.680, 295.870 1026.888, 309.493 1040.500 C 317.977 1048.977, 334.459 1062.077, 347.164 1070.440 C 353.447 1074.576, 355.853 1078.537, 354.088 1081.836 C 353.494 1082.946, 347.719 1086.991, 341.254 1090.825 C 315.922 1105.851, 298.881 1123.410, 288.794 1144.881 C 282.217 1158.879, 279.293 1162.852, 271.099 1168.926 C 262.400 1175.376, 249.566 1188.915, 245.169 1196.282 C 235.666 1212.206, 229.807 1232.275, 223.502 1270.500 C 218.158 1302.895, 216.650 1308.906, 208.822 1329 C 199.568 1352.755, 183.574 1396.534, 180.492 1406.543 C 178.975 1411.469, 175.558 1420.148, 172.900 1425.828 C 163.266 1446.411, 150.616 1454.297, 105.113 1468.092 C 83.212 1474.732, 73.465 1479.462, 65.423 1487.355 C 58.460 1494.190, 57.281 1497.026, 54.559 1513.500 C 47.956 1553.454, 51.367 1611.586, 61.088 1624.805 C 67.278 1633.223, 78.036 1637.951, 97 1640.589 C 111.812 1642.650, 160.278 1643.504, 183.711 1642.117 C 215.711 1640.222, 232.259 1636.689, 264.142 1624.943 C 274.395 1621.165, 291.595 1615.589, 302.365 1612.551 C 324.497 1606.307, 335.650 1602.150, 351.438 1594.260 C 377.161 1581.407, 393.935 1566.455, 415.756 1536.932 C 424.286 1525.393, 440.262 1501.029, 445.330 1491.834 C 459.020 1466.995, 469.278 1432.380, 475.394 1390.392 C 476.747 1381.101, 478.144 1372.754, 478.499 1371.842 C 479.462 1369.364, 483.355 1368.256, 495.169 1367.096 C 507.090 1365.925, 512 1366.794, 512 1370.076 C 512 1371.111, 504.233 1387.604, 494.739 1406.729 C 473.104 1450.311, 454.638 1489.051, 446.229 1508.500 C 435.545 1533.208, 412.171 1593.779, 397.991 1633.500 C 393.672 1645.600, 387.243 1662.475, 383.704 1671 C 376.364 1688.684, 373.106 1698.455, 370.034 1712 C 367.802 1721.838, 366.087 1727.532, 363.939 1732.240 C 363.219 1733.816, 355.448 1740.603, 345.639 1748.222 C 307.413 1777.913, 293.485 1795.306, 286.104 1822.568 C 282.465 1836.011, 279.364 1844.493, 277.353 1846.504 C 271.993 1851.864, 259.104 1858.601, 242.529 1864.707 C 226.630 1870.563, 221.874 1873.288, 215.453 1880.224 C 205.974 1890.462, 203.691 1903.761, 203.646 1949 C 203.615 1979.907, 204.900 1996.550, 208.333 2009.726 C 211.793 2023.005, 223.957 2032.672, 241.222 2035.864 C 259.129 2039.174, 309.537 2039.736, 339 2036.954 C 365.249 2034.476, 395.644 2024.915, 419.500 2011.635 C 423.350 2009.491, 434.600 2003.452, 444.500 1998.215 C 471.211 1984.084, 480.683 1977.264, 497.063 1960.365 C 511.341 1945.636, 519.726 1933.964, 533.963 1909 C 543.464 1892.339, 546.298 1889.033, 558 1880.960 C 580.811 1865.222, 599.881 1842.284, 621.434 1804.658 C 637.291 1776.976, 650.943 1748.946, 665.101 1715 C 672.286 1697.773, 674.714 1694.241, 678.120 1696.064 C 679.253 1696.671, 685.351 1707.947, 692.848 1723.300 C 735.145 1809.922, 779.645 1875.076, 840.278 1939.163 C 883.298 1984.633, 942.419 2031.904, 994.500 2062.474 C 1002.750 2067.316, 1014.585 2074.430, 1020.799 2078.281 C 1034.923 2087.035, 1041.149 2089.299, 1057.500 2091.630 C 1076.159 2094.290, 1125.841 2094.290, 1144.500 2091.630 C 1160.826 2089.303, 1167.055 2087.041, 1181.201 2078.308 C 1187.415 2074.470, 1199.250 2067.353, 1207.500 2062.491 C 1260.108 2031.486, 1318.715 1984.619, 1361.722 1939.163 C 1422.355 1875.076, 1466.855 1809.922, 1509.152 1723.300 C 1516.649 1707.947, 1522.747 1696.671, 1523.880 1696.064 C 1527.286 1694.241, 1529.714 1697.773, 1536.899 1715 C 1551.057 1748.946, 1564.709 1776.976, 1580.566 1804.658 C 1602.119 1842.284, 1621.189 1865.222, 1644 1880.960 C 1655.702 1889.033, 1658.536 1892.339, 1668.037 1909 C 1682.274 1933.964, 1690.659 1945.636, 1704.937 1960.365 C 1721.317 1977.264, 1730.789 1984.084, 1757.500 1998.215 C 1767.400 2003.452, 1778.650 2009.491, 1782.500 2011.635 C 1798.840 2020.731, 1823.295 2029.860, 1842 2033.845 C 1868.321 2039.452, 1935.218 2040.589, 1960.778 2035.864 C 1978.043 2032.672, 1990.207 2023.005, 1993.667 2009.726 C 1997.100 1996.550, 1998.385 1979.907, 1998.354 1949 C 1998.309 1903.761, 1996.026 1890.462, 1986.547 1880.224 C 1980.126 1873.288, 1975.370 1870.563, 1959.471 1864.707 C 1942.896 1858.601, 1930.007 1851.864, 1924.647 1846.504 C 1922.636 1844.493, 1919.535 1836.011, 1915.896 1822.568 C 1908.515 1795.306, 1894.587 1777.913, 1856.361 1748.222 C 1846.552 1740.603, 1838.781 1733.816, 1838.061 1732.240 C 1835.913 1727.532, 1834.198 1721.838, 1831.966 1712 C 1828.894 1698.455, 1825.636 1688.684, 1818.296 1671 C 1814.757 1662.475, 1808.328 1645.600, 1804.009 1633.500 C 1789.829 1593.779, 1766.455 1533.208, 1755.771 1508.500 C 1747.362 1489.051, 1728.896 1450.311, 1707.261 1406.729 C 1697.767 1387.604, 1690 1371.111, 1690 1370.076 C 1690 1366.794, 1694.910 1365.925, 1706.831 1367.096 C 1718.645 1368.256, 1722.538 1369.364, 1723.501 1371.842 C 1723.856 1372.754, 1725.253 1381.101, 1726.606 1390.392 C 1732.722 1432.380, 1742.980 1466.995, 1756.670 1491.834 C 1766.455 1509.588, 1787.380 1539.575, 1801.379 1555.906 C 1825.138 1583.624, 1852.007 1599.114, 1899.635 1612.551 C 1910.405 1615.589, 1927.605 1621.165, 1937.858 1624.943 C 1969.741 1636.689, 1986.289 1640.222, 2018.289 1642.117 C 2041.722 1643.504, 2090.188 1642.650, 2105 1640.589 C 2123.964 1637.951, 2134.722 1633.223, 2140.912 1624.805 C 2150.633 1611.586, 2154.044 1553.454, 2147.441 1513.500 C 2144.719 1497.026, 2143.540 1494.190, 2136.577 1487.355 C 2128.535 1479.462, 2118.788 1474.732, 2096.887 1468.092 C 2074.042 1461.167, 2067.048 1458.567, 2055.788 1452.815 C 2041.778 1445.658, 2035.330 1439.138, 2029.100 1425.828 C 2026.442 1420.148, 2023.025 1411.469, 2021.508 1406.543 C 2018.426 1396.534, 2002.432 1352.755, 1993.178 1329 C 1985.350 1308.906, 1983.842 1302.895, 1978.498 1270.500 C 1972.193 1232.275, 1966.334 1212.206, 1956.831 1196.282 C 1952.434 1188.915, 1939.600 1175.376, 1930.901 1168.926 C 1922.707 1162.852, 1919.783 1158.879, 1913.206 1144.881 C 1903.119 1123.410, 1886.078 1105.851, 1860.746 1090.825 C 1854.281 1086.991, 1848.506 1082.946, 1847.912 1081.836 C 1846.147 1078.537, 1848.553 1074.576, 1854.836 1070.440 C 1867.541 1062.077, 1884.023 1048.977, 1892.507 1040.500 C 1906.130 1026.888, 1914.189 1014.680, 1921.381 996.763 C 1928.861 978.129, 1931.665 963.719, 1932.993 937.092 C 1933.912 918.660, 1934.811 912.885, 1937.241 909.817 C 1937.933 908.943, 1941.650 907.215, 1945.500 905.978 C 1953.737 903.330, 1973.628 895.472, 1983.335 891.031 C 2011.739 878.034, 2042.987 855.829, 2069.876 829.536 C 2113.070 787.298, 2140.682 748.100, 2154.783 709 C 2163.430 685.024, 2166.575 665.107, 2170.494 609.500 C 2172.328 583.483, 2172.952 578.758, 2178.018 552.500 C 2187.903 501.262, 2190.375 473.003, 2189.673 419.259 C 2189.032 370.189, 2187.646 356.433, 2180.853 331.709 C 2172.401 300.949, 2159.303 277.215, 2141.184 259.823 C 2108.641 228.588, 2074.653 219.070, 1995.500 219.028 C 1936.813 218.997, 1899.443 224.503, 1869.585 237.579 C 1839.265 250.857, 1790.244 285.866, 1727.500 339.051 C 1700.005 362.357, 1663.164 390.297, 1653.160 395.431 C 1649.388 397.366, 1646.997 396.919, 1647.006 394.281 C 1647.020 389.674, 1649.894 383.866, 1660.809 366.381 C 1673.799 345.575, 1683.860 328.287, 1689.321 317.389 C 1698.444 299.186, 1700.477 284.733, 1700.491 238 C 1700.500 202.946, 1699.546 190.805, 1695.959 180.380 C 1692.767 171.104, 1686.266 164.784, 1677.194 162.141 C 1663.441 158.133, 1622.979 156.010, 1596.265 157.895 C 1565.915 160.036, 1556.329 162.766, 1547.239 171.856 C 1541.106 177.989, 1538.060 182.365, 1531.126 195 C 1524.387 207.280, 1514.952 220.497, 1505.910 230.324 C 1496.703 240.330, 1467.325 262.370, 1432 285.776 C 1403.700 304.526, 1394.463 311.317, 1367.156 333.445 C 1342.461 353.457, 1337.921 356.852, 1334.191 358.093 C 1327.410 360.349, 1322.842 355.944, 1320.095 344.500 C 1317.617 334.173, 1307.393 317.058, 1293.430 299.860 C 1286.664 291.525, 1284.485 286.619, 1285.500 281.999 C 1288.321 269.157, 1323.338 240.591, 1360.134 221.114 C 1389.300 205.676, 1418.256 195.612, 1457 187.448 C 1477.200 183.192, 1486.375 180.153, 1493.751 175.276 C 1499.751 171.309, 1506.654 163.932, 1508.562 159.448 C 1515.645 142.806, 1517.352 70.792, 1511.332 42.597 C 1509.299 33.076, 1505.491 26.993, 1498.631 22.310 C 1488.135 15.145, 1475.348 13.524, 1429.500 13.547 C 1389.534 13.567, 1377.148 14.550, 1352.643 19.645 C 1270.661 36.691, 1204.311 69.709, 1157.004 117 C 1135.970 138.028, 1124.046 154.297, 1111.466 179.133 C 1104.211 193.455, 1102.569 195.539, 1099.473 194.351 C 1098.633 194.029, 1094.611 187.181, 1090.534 179.133 C 1077.954 154.297, 1066.030 138.028, 1044.996 117 C 1003.836 75.854, 948.870 45.813, 880.384 27.035 C 861.974 21.987, 834.257 16.313, 821.500 14.980 C 808.104 13.580, 750.147 12.916, 737 14.012" stroke="none" fill="#F2E8BF" fill-rule="evenodd"/>
</svg>