<svg xmlns="http://www.w3.org/2000/svg" width="1932" height="1995" viewBox="0 0 1932 1995" version="1.1">
	<path d="M 561 14.051 C 526.606 15.585, 515.004 18.946, 506.174 29.934 C 500.029 37.580, 498.050 44.887, 495.999 67.500 C 493.885 90.819, 495.472 140.644, 498.898 158.500 C 502.873 179.215, 516.116 197.998, 532.599 206.298 C 552.971 216.557, 588.236 223.431, 649 228.988 C 670.955 230.996, 681.151 232.357, 683.058 233.536 C 685.702 235.170, 682.569 237.305, 667.174 244.362 C 617.114 267.310, 589.990 287.352, 571.101 315.353 C 565.039 324.337, 561.068 332.285, 557.533 342.500 C 554.074 352.499, 551.485 356.840, 548.541 357.579 C 546.970 357.973, 540.939 355.812, 529.374 350.709 C 460.956 320.519, 404.373 306.277, 336 302.033 C 314.664 300.709, 258.982 300.708, 238.483 302.032 C 174.511 306.162, 134.180 319.796, 94.500 350.706 C 45.289 389.040, 20.115 437.806, 13.819 507 C 12.051 526.437, 12.043 599.433, 13.807 619 C 18.533 671.403, 33.089 715.465, 58.736 755 C 75.440 780.749, 98.603 806.223, 118.748 821 C 131.718 830.515, 131.551 830.017, 132.441 861.733 C 133.788 909.783, 138.836 936.226, 153.514 972.123 C 165.580 1001.633, 181.148 1028.300, 204.817 1060 C 218.652 1078.531, 247.695 1108.245, 263.593 1120.136 C 299.944 1147.324, 338.117 1162.380, 388.030 1169.215 C 403.353 1171.313, 408.120 1171.471, 456.500 1171.485 C 500.511 1171.498, 510.728 1171.224, 523 1169.707 C 541.717 1167.391, 563.258 1163.055, 579 1158.432 C 595.944 1153.457, 595.580 1153.514, 596.540 1155.660 C 596.993 1156.672, 597.680 1175.050, 598.067 1196.500 C 598.932 1244.393, 601.408 1274.209, 607.619 1311.500 C 620.381 1388.121, 645.064 1458.824, 682.327 1525.500 C 703.008 1562.504, 733.409 1601.206, 760.880 1625.500 C 773.451 1636.617, 777.039 1641.674, 786.952 1662.242 C 795.415 1679.801, 799.713 1691.501, 814.410 1737 C 832.416 1792.742, 836.261 1806.456, 850.926 1867.249 C 855.294 1885.357, 860.415 1900.281, 865.251 1909 C 873.128 1923.201, 876.150 1929.337, 880.517 1940 C 883.108 1946.325, 886.126 1953.267, 887.224 1955.427 C 890.088 1961.058, 898.824 1969.993, 903.500 1972.072 C 916.035 1977.645, 954.831 1980.987, 984.750 1979.071 C 1004.536 1977.803, 1021.833 1975.036, 1028.500 1972.072 C 1033.176 1969.993, 1041.912 1961.058, 1044.776 1955.427 C 1045.874 1953.267, 1048.892 1946.325, 1051.483 1940 C 1055.850 1929.337, 1058.872 1923.201, 1066.749 1909 C 1071.585 1900.281, 1076.706 1885.357, 1081.074 1867.249 C 1095.739 1806.456, 1099.584 1792.742, 1117.590 1737 C 1132.287 1691.501, 1136.585 1679.801, 1145.048 1662.242 C 1154.961 1641.674, 1158.549 1636.617, 1171.120 1625.500 C 1198.591 1601.206, 1228.992 1562.504, 1249.673 1525.500 C 1282.491 1466.779, 1305.375 1405.381, 1319.371 1338.500 C 1328.807 1293.411, 1332.905 1253.451, 1333.933 1196.500 C 1334.320 1175.050, 1335.007 1156.672, 1335.460 1155.660 C 1336.420 1153.514, 1336.056 1153.457, 1353 1158.432 C 1368.742 1163.055, 1390.283 1167.391, 1409 1169.707 C 1421.272 1171.224, 1431.489 1171.498, 1475.500 1171.485 C 1523.880 1171.471, 1528.647 1171.313, 1543.970 1169.215 C 1593.883 1162.380, 1632.056 1147.324, 1668.407 1120.136 C 1684.305 1108.245, 1713.348 1078.531, 1727.183 1060 C 1750.852 1028.300, 1766.420 1001.633, 1778.486 972.123 C 1793.164 936.226, 1798.212 909.783, 1799.559 861.733 C 1800.449 830.017, 1800.282 830.515, 1813.252 821 C 1833.397 806.223, 1856.560 780.749, 1873.264 755 C 1898.911 715.465, 1913.467 671.403, 1918.193 619 C 1919.957 599.433, 1919.949 526.437, 1918.181 507 C 1911.885 437.806, 1886.711 389.040, 1837.500 350.706 C 1797.820 319.796, 1757.489 306.162, 1693.517 302.032 C 1673.018 300.708, 1617.336 300.709, 1596 302.033 C 1527.627 306.277, 1471.044 320.519, 1402.626 350.709 C 1391.061 355.812, 1385.030 357.973, 1383.459 357.579 C 1380.515 356.840, 1377.926 352.499, 1374.467 342.500 C 1370.932 332.285, 1366.961 324.337, 1360.899 315.353 C 1342.010 287.352, 1314.886 267.310, 1264.826 244.362 C 1249.431 237.305, 1246.298 235.170, 1248.942 233.536 C 1250.849 232.357, 1261.045 230.996, 1283 228.988 C 1343.764 223.431, 1379.029 216.557, 1399.401 206.298 C 1415.884 197.998, 1429.127 179.215, 1433.102 158.500 C 1435.121 147.976, 1436.990 119.648, 1436.994 99.500 C 1437 69.779, 1434.759 47.269, 1430.896 38.258 C 1426.893 28.920, 1418.246 21.276, 1408.520 18.478 C 1394.938 14.572, 1358.721 12.635, 1325.533 14.041 C 1299.192 15.157, 1291.100 16.146, 1276.244 20.062 C 1253.394 26.087, 1250.471 26.510, 1200.500 31.027 C 1161.080 34.590, 1142.153 36.896, 1118.500 41.017 C 1056.766 51.775, 1014.016 68.176, 983 93.003 C 968.200 104.850, 963.800 104.850, 949 93.003 C 917.984 68.176, 875.234 51.775, 813.500 41.017 C 789.847 36.896, 770.920 34.590, 731.500 31.027 C 681.529 26.510, 678.606 26.087, 655.756 20.062 C 649.565 18.430, 640.900 16.618, 636.500 16.035 C 628.885 15.026, 586.836 12.878, 580.500 13.175 C 578.850 13.252, 570.075 13.646, 561 14.051" stroke="none" fill="#F2E8BF" fill-rule="evenodd"/>
</svg>