<svg xmlns="http://www.w3.org/2000/svg" width="1948" height="1826" viewBox="0 0 1948 1826" version="1.1">
	<path d="M 288 85 C 288 86.646, 288.518 87.065, 290.250 86.820 C 291.488 86.644, 292.500 85.825, 292.500 85 C 292.500 84.175, 291.488 83.356, 290.250 83.180 C 288.518 82.935, 288 83.354, 288 85 M 1655.500 84 C 1654.577 85.494, 1655.861 87, 1658.059 87 C 1659.333 87, 1660 86.313, 1660 85 C 1660 82.879, 1656.653 82.135, 1655.500 84 M 322.500 396.117 C 264.908 399.513, 218.258 411.792, 175.500 434.811 C 152.624 447.127, 134.971 460.058, 117.912 476.995 C 58.676 535.809, 24.013 627.668, 13.384 754 C 10.932 783.155, 10.910 873.673, 13.349 902.500 C 21.245 995.818, 42.625 1076.993, 80.187 1156.273 C 110.518 1220.290, 139.866 1262.947, 183.944 1307.082 C 205.058 1328.224, 219.246 1340.307, 236.163 1351.555 C 249.367 1360.333, 249.770 1361.383, 248.167 1382.836 C 246.501 1405.138, 246.683 1460.503, 248.498 1483.510 C 252.721 1537.053, 263.725 1577.647, 286.448 1623.500 C 303.180 1657.265, 318.387 1678.634, 343.403 1703.530 C 364.420 1724.446, 381.110 1737.049, 408.279 1752.516 C 445.344 1773.617, 488.840 1786.679, 541.500 1792.523 C 572.938 1796.012, 645.363 1796.269, 678 1793.009 C 729.763 1787.837, 775.723 1774.892, 818 1753.577 C 840.242 1742.363, 854.249 1733.599, 875.462 1717.626 C 911.886 1690.198, 934.122 1667.613, 963.671 1628.032 C 966.327 1624.474, 969.738 1620.874, 971.250 1620.032 C 973.720 1618.656, 974.280 1618.656, 976.750 1620.032 C 978.263 1620.874, 981.673 1624.474, 984.329 1628.032 C 1013.878 1667.613, 1036.114 1690.198, 1072.538 1717.626 C 1093.751 1733.599, 1107.758 1742.363, 1130 1753.577 C 1172.277 1774.892, 1218.237 1787.837, 1270 1793.009 C 1302.401 1796.246, 1375.376 1795.988, 1406.500 1792.527 C 1459.212 1786.664, 1502.660 1773.615, 1539.721 1752.516 C 1566.890 1737.049, 1583.580 1724.446, 1604.597 1703.530 C 1629.613 1678.634, 1644.820 1657.265, 1661.552 1623.500 C 1684.275 1577.647, 1695.279 1537.053, 1699.502 1483.510 C 1701.317 1460.503, 1701.499 1405.138, 1699.833 1382.836 C 1698.230 1361.383, 1698.633 1360.333, 1711.837 1351.555 C 1728.754 1340.307, 1742.942 1328.224, 1764.056 1307.082 C 1808.134 1262.947, 1837.482 1220.290, 1867.813 1156.273 C 1905.375 1076.993, 1926.755 995.818, 1934.651 902.500 C 1937.090 873.673, 1937.068 783.155, 1934.616 754 C 1921.807 601.754, 1873.064 497.524, 1790 444.765 C 1780.301 438.605, 1760.852 428.502, 1748.498 423.207 C 1700.571 402.666, 1653.912 395.019, 1576.500 395.019 C 1516.304 395.019, 1476.056 399.471, 1427.264 411.526 C 1359.559 428.254, 1302.660 454.136, 1236.712 498.202 C 1221.515 508.356, 1192.295 529.964, 1179 540.880 C 1169.698 548.517, 1162.941 552, 1157.427 552 C 1155.127 552, 1149.028 550.703, 1143.873 549.117 C 1131.924 545.442, 1119.111 544.034, 1091 543.308 C 1067.089 542.690, 1037.540 544.078, 1023.896 546.459 C 1004.718 549.807, 990.316 561.799, 983.012 580.500 C 978.706 591.526, 976.104 596, 974 596 C 971.896 596, 969.294 591.526, 964.988 580.500 C 957.684 561.799, 943.282 549.807, 924.104 546.459 C 910.460 544.078, 880.911 542.690, 857 543.308 C 828.889 544.034, 816.076 545.442, 804.127 549.117 C 798.972 550.703, 792.873 552, 790.573 552 C 785.059 552, 778.302 548.517, 769 540.880 C 724.822 504.609, 668.071 468.546, 619.500 445.876 C 558.495 417.404, 488.639 400.160, 417.500 396.011 C 397.738 394.858, 342.808 394.920, 322.500 396.117" stroke="none" fill="#F2E8BF" fill-rule="evenodd"/>
</svg>