<svg xmlns="http://www.w3.org/2000/svg" width="885" height="1130" viewBox="0 0 885 1130" version="1.1">
	<path d="M 277.500 12.604 C 255.467 15.869, 250.798 20.130, 248.037 39.500 C 246.628 49.388, 246.776 60.937, 248.456 72.078 C 250.664 86.728, 252.697 91.016, 263.114 103 C 282.646 125.469, 304.458 156.078, 319.053 181.500 C 333.331 206.369, 354.046 252.162, 353.965 258.675 C 353.912 262.857, 352.275 265.170, 343.928 272.862 C 336.189 279.993, 331.222 287.586, 329.121 295.500 C 328.537 297.700, 326.483 307.825, 324.555 318 C 321.657 333.304, 320.399 337.786, 317.276 343.945 C 313.952 350.499, 312.857 351.746, 308.126 354.362 C 300.877 358.370, 296.820 358.170, 284.500 353.194 C 271.463 347.930, 262.462 346.593, 240.500 346.662 C 205.523 346.770, 195.809 351.805, 182.728 376.605 C 177.681 386.174, 175.122 389.535, 162.365 403.356 C 145.249 421.899, 115.624 448.963, 108.554 452.515 C 103.663 454.972, 103.308 455, 77.054 455.035 C 48.944 455.072, 39.129 456.080, 30.737 459.792 C 25.732 462.006, 18.950 468.262, 16.574 472.857 C 10.906 483.817, 10.471 526.426, 15.886 540.278 C 17.828 545.247, 25.663 552.576, 32.141 555.483 C 35.504 556.992, 45.688 559.757, 54.796 561.634 C 63.896 563.510, 74.812 565.931, 79.054 567.014 C 83.297 568.097, 91.432 569.455, 97.134 570.031 C 111.228 571.454, 111.872 571.640, 112.587 574.489 C 113.555 578.348, 103.524 636.477, 99.535 650.122 C 96.365 660.964, 94.172 662.634, 71 671.847 C 46.096 681.749, 41.558 689.960, 41.625 725 C 41.675 751.334, 43.980 760.385, 52.552 767.911 C 60.887 775.229, 70.034 777.180, 96.891 777.366 C 113.904 777.484, 116.412 777.707, 117.346 779.187 C 118.137 780.440, 117.587 785.198, 115.210 797.687 C 107.945 835.859, 106.500 851.507, 106.501 892 C 106.502 923.686, 106.625 925.959, 108.775 933.984 C 111.936 945.782, 113.661 948.884, 124.387 962.057 C 137.185 977.774, 142.913 982.759, 155.720 989.324 C 166.915 995.063, 170.856 998.383, 175.516 1006 C 177.031 1008.475, 180.661 1013.030, 183.584 1016.122 C 186.506 1019.214, 189.212 1022.996, 189.596 1024.525 C 189.999 1026.132, 189.594 1030.302, 188.636 1034.403 C 183.782 1055.184, 183.784 1085.245, 188.639 1100.285 C 190.910 1107.319, 198.323 1114.271, 205.753 1116.334 C 224.332 1121.493, 257.361 1120.519, 269.066 1114.466 C 273.950 1111.940, 280.858 1104.538, 287.786 1094.406 C 294.275 1084.918, 302.184 1076.789, 312.739 1068.764 C 326.160 1058.558, 328.550 1051.344, 328.398 1021.500 C 328.277 997.671, 326.898 991.038, 319.456 978.500 C 316.845 974.100, 312.186 965.350, 309.104 959.056 L 303.500 947.612 303.625 937.556 C 303.694 932.025, 303.902 916.925, 304.089 904 C 304.328 887.430, 304.034 878.288, 303.092 873 C 299.514 852.923, 288.201 828.857, 268.071 798.498 C 263.075 790.963, 258.705 783.672, 258.359 782.294 C 257.147 777.464, 260.348 773.477, 273.039 764.012 C 279.684 759.055, 286.017 755, 287.112 755 C 289.956 755, 291.214 758.756, 295.386 779.713 C 301.868 812.265, 308.447 830.790, 325.499 864.500 C 337.231 887.693, 354.321 917.484, 370.602 943.125 C 390.612 974.638, 396.877 980.360, 414.886 983.572 C 424.038 985.205, 448.905 985.410, 459.469 983.941 C 479.389 981.170, 485.763 975.298, 508.300 938.952 C 523.699 914.118, 540.324 884.983, 550.122 865.659 C 569.026 828.376, 576.354 806.181, 583.519 764.500 C 586.423 747.610, 587.816 744.313, 591.284 746.123 C 595.886 748.524, 625.996 771.206, 628.443 774.115 C 632.830 779.328, 632.074 782.014, 621.839 797.573 C 603.144 825.994, 592.403 847.368, 587.923 865.063 C 586.174 871.973, 585.698 877.482, 585.297 895.500 C 585.028 907.600, 585.252 922.225, 585.796 928 C 587.409 945.124, 585.567 951.244, 571.483 975.545 C 567.962 981.620, 564.428 989.099, 563.629 992.165 C 557.640 1015.161, 559.705 1050.191, 567.665 1060.628 C 569.171 1062.602, 574.024 1066.967, 578.451 1070.329 C 588.621 1078.053, 594.505 1084.165, 601.085 1093.843 C 606.951 1102.470, 616.140 1112.435, 620.211 1114.581 C 626.339 1117.813, 637.180 1119.307, 654.500 1119.307 C 680.044 1119.307, 689.428 1116.597, 697.112 1107 C 701.724 1101.240, 703.210 1093.672, 703.744 1073.217 C 704.233 1054.441, 703.319 1043.855, 700.245 1032.704 C 698.702 1027.110, 698.721 1026.754, 700.788 1022.500 C 701.965 1020.076, 704.057 1017.353, 705.436 1016.450 C 706.815 1015.546, 710.406 1011.067, 713.417 1006.497 C 719.753 996.875, 721.919 995.079, 735.578 988.124 C 747.066 982.273, 752.268 977.647, 764.957 961.993 C 777.361 946.691, 779.420 942.322, 782.158 925.500 C 783.847 915.126, 783.834 870.950, 782.137 853.500 C 780.339 835.007, 776.346 807.638, 773.471 794.091 C 770.573 780.438, 770.581 780.562, 772.471 778.672 C 773.662 777.481, 777.426 777.209, 792.221 777.242 C 818.373 777.301, 828.065 775.272, 836.339 768.007 C 845.430 760.025, 848.529 746.946, 847.717 720 C 847.084 699.023, 845.322 691.687, 839.310 685 C 833.729 678.792, 829.405 676.210, 814.893 670.413 C 797.652 663.528, 794.621 661.628, 792.161 656.162 C 788.951 649.031, 784.834 629.757, 779.022 594.650 C 776.139 577.233, 776.021 575.617, 777.474 573.400 C 778.339 572.080, 779.610 571, 780.299 571 C 784.990 571, 800.396 568.480, 810.500 566.061 C 817.100 564.480, 826.493 562.445, 831.374 561.538 C 851.009 557.889, 861.388 552.883, 867.336 544.190 C 871.540 538.046, 873.316 526.941, 873.284 507 C 873.254 488.091, 871.655 477.413, 867.957 471.430 C 862.958 463.342, 853.786 458.145, 840.787 456.035 C 837.329 455.474, 822.673 455.012, 808.217 455.008 C 782.158 455, 781.891 454.979, 776.991 452.495 C 769.911 448.908, 750.477 431.389, 728.486 408.771 C 710.126 389.887, 709.233 388.778, 702.542 376.540 C 693.729 360.422, 686.601 353.193, 676.424 350.049 C 659.702 344.884, 623.536 345.183, 607.209 350.620 C 604.619 351.482, 599.552 353.675, 595.949 355.492 C 585.528 360.748, 582.475 361.304, 577.101 358.927 C 574.602 357.821, 569.756 355.023, 566.333 352.708 C 557.159 346.505, 555.561 342.999, 552.997 323.445 C 548.849 291.818, 546.346 284.973, 534.838 273.794 C 531.041 270.105, 527.270 265.497, 526.458 263.553 C 525.088 260.275, 525.153 259.527, 527.357 253.259 C 534.279 233.572, 552.191 196.332, 564.999 175 C 581.047 148.273, 597.891 125.148, 619.261 100.502 C 627.928 90.507, 629.792 86.084, 632.075 70.097 C 633.555 59.730, 632.752 38.813, 630.554 30.500 C 628.245 21.763, 622.998 16.968, 612.983 14.442 C 598.430 10.770, 572.002 12.341, 559.345 17.629 C 554.319 19.729, 548.289 25.644, 535.009 41.499 C 499.415 83.997, 470.789 131.095, 449.006 183 C 443.379 196.409, 442.471 198, 440.449 198 C 437.949 198, 436.288 195.085, 428.968 177.845 C 408.739 130.205, 380.565 83.965, 347.226 43.684 C 337.209 31.582, 326.164 20.153, 322.788 18.398 C 315.220 14.463, 288.244 11.012, 277.500 12.604 M 220.202 607.628 C 218.471 609.038, 217.781 610.856, 217.402 615 C 216.639 623.349, 217.749 624.166, 224.744 620.406 C 233.116 615.905, 242 610.072, 242 609.076 C 242 607.675, 239.318 607.036, 230.667 606.377 C 223.592 605.838, 222.193 606.006, 220.202 607.628 M 652.699 606.966 C 645.726 608.316, 646.239 609.354, 657.182 616.038 C 662.857 619.504, 667.857 622.527, 668.294 622.756 C 670.160 623.734, 672 620.535, 672 616.312 C 672 611.871, 670.675 608.151, 668.600 606.765 C 667.239 605.856, 657.816 605.975, 652.699 606.966" stroke="none" fill="#F2E8BF" fill-rule="evenodd"/>
</svg>