<svg xmlns="http://www.w3.org/2000/svg" width="1948" height="1422" viewBox="0 0 1948 1422" version="1.1">
	<path d="M 322.500 12.117 C 264.908 15.513, 218.258 27.792, 175.500 50.811 C 152.624 63.127, 134.971 76.058, 117.912 92.995 C 58.676 151.809, 24.013 243.668, 13.384 370 C 10.932 399.155, 10.910 489.673, 13.349 518.500 C 21.245 611.818, 42.625 692.993, 80.187 772.273 C 110.518 836.290, 139.866 878.947, 183.944 923.082 C 205.058 944.224, 219.246 956.307, 236.163 967.555 C 249.367 976.333, 249.770 977.383, 248.167 998.836 C 246.501 1021.138, 246.683 1076.503, 248.498 1099.510 C 252.721 1153.053, 263.725 1193.647, 286.448 1239.500 C 301.897 1270.677, 316.818 1292.257, 338.654 1315.008 C 389.655 1368.143, 457.063 1399.223, 541.500 1408.533 C 573.059 1412.013, 645.409 1412.265, 678 1409.009 C 729.621 1403.851, 775.677 1390.876, 818 1369.567 C 840.203 1358.388, 854.225 1349.617, 875.462 1333.626 C 911.886 1306.198, 934.122 1283.613, 963.671 1244.032 C 966.327 1240.474, 969.738 1236.874, 971.250 1236.032 C 973.720 1234.656, 974.280 1234.656, 976.750 1236.032 C 978.263 1236.874, 981.673 1240.474, 984.329 1244.032 C 1013.878 1283.613, 1036.114 1306.198, 1072.538 1333.626 C 1093.775 1349.617, 1107.797 1358.388, 1130 1369.567 C 1172.323 1390.876, 1218.379 1403.851, 1270 1409.009 C 1302.355 1412.241, 1375.257 1411.989, 1406.500 1408.537 C 1490.990 1399.200, 1558.345 1368.143, 1609.346 1315.008 C 1631.182 1292.257, 1646.103 1270.677, 1661.552 1239.500 C 1684.275 1193.647, 1695.279 1153.053, 1699.502 1099.510 C 1701.317 1076.503, 1701.499 1021.138, 1699.833 998.836 C 1698.230 977.383, 1698.633 976.333, 1711.837 967.555 C 1728.754 956.307, 1742.942 944.224, 1764.056 923.082 C 1808.134 878.947, 1837.482 836.290, 1867.813 772.273 C 1905.375 692.993, 1926.755 611.818, 1934.651 518.500 C 1937.090 489.673, 1937.068 399.155, 1934.616 370 C 1921.807 217.754, 1873.064 113.524, 1790 60.765 C 1780.301 54.605, 1760.852 44.502, 1748.498 39.207 C 1700.571 18.666, 1653.912 11.019, 1576.500 11.019 C 1516.304 11.019, 1476.056 15.471, 1427.264 27.526 C 1359.559 44.254, 1302.660 70.136, 1236.712 114.202 C 1221.515 124.356, 1192.295 145.964, 1179 156.880 C 1169.698 164.517, 1162.941 168, 1157.427 168 C 1155.127 168, 1149.028 166.703, 1143.873 165.117 C 1131.924 161.442, 1119.111 160.034, 1091 159.308 C 1067.089 158.690, 1037.540 160.078, 1023.896 162.459 C 1004.718 165.807, 990.316 177.799, 983.012 196.500 C 975.044 216.902, 972.956 216.902, 964.988 196.500 C 957.684 177.799, 943.282 165.807, 924.104 162.459 C 910.460 160.078, 880.911 158.690, 857 159.308 C 828.889 160.034, 816.076 161.442, 804.127 165.117 C 798.972 166.703, 792.873 168, 790.573 168 C 785.059 168, 778.302 164.517, 769 156.880 C 724.822 120.609, 668.071 84.546, 619.500 61.876 C 558.495 33.404, 488.639 16.160, 417.500 12.011 C 397.738 10.858, 342.808 10.920, 322.500 12.117" stroke="none" fill="#F2E8BF" fill-rule="evenodd"/>
</svg>