<svg xmlns="http://www.w3.org/2000/svg" width="1964" height="1482" viewBox="0 0 1964 1482" version="1.1">
	<path d="M 214.500 10.992 C 156.832 13.686, 121.440 22.378, 82 43.531 C 58.923 55.909, 43.789 68.537, 35.731 82.138 C 23.147 103.380, 15.505 141.978, 11.901 202.500 C 10.338 228.739, 11.262 306.895, 13.408 330 C 19.886 399.748, 34.034 457.449, 59.257 517 C 76.353 557.365, 109.848 618.505, 132.382 650.478 C 142.868 665.358, 144.034 669.257, 148.534 704.500 C 158.744 784.464, 170.933 829.847, 195.401 879 C 209.177 906.674, 223.311 926.628, 244.276 948 C 265.060 969.187, 285.602 983.648, 310.364 994.525 C 315.510 996.785, 319.868 999.395, 320.755 1000.749 C 322.077 1002.766, 322.300 1010.917, 322.411 1061.290 C 322.550 1124.043, 322.981 1131.788, 328.051 1162.613 C 337.531 1220.251, 359.465 1276.941, 390.300 1323.500 C 402.934 1342.577, 413.308 1355.213, 431 1373.073 C 448.148 1390.384, 460.699 1401.039, 478.210 1413.151 C 526.954 1446.866, 583.728 1465.548, 651 1470.009 C 669.895 1471.262, 726.361 1471.243, 745.500 1469.977 C 795.553 1466.667, 838.103 1455.628, 876.500 1435.990 C 905.246 1421.289, 938.848 1396.405, 961.845 1372.788 C 971.848 1362.515, 978.002 1358, 982 1358 C 985.998 1358, 992.152 1362.515, 1002.155 1372.788 C 1025.152 1396.405, 1058.754 1421.289, 1087.500 1435.990 C 1125.897 1455.628, 1168.447 1466.667, 1218.500 1469.977 C 1237.639 1471.243, 1294.105 1471.262, 1313 1470.009 C 1389.750 1464.919, 1450.911 1442.097, 1506.290 1397.882 C 1519.611 1387.246, 1547.325 1359.215, 1557.627 1345.958 C 1596.981 1295.313, 1624.855 1230.061, 1635.949 1162.613 C 1641.019 1131.788, 1641.450 1124.043, 1641.589 1061.290 C 1641.700 1010.917, 1641.923 1002.766, 1643.245 1000.749 C 1644.132 999.395, 1648.490 996.785, 1653.636 994.525 C 1678.398 983.648, 1698.940 969.187, 1719.724 948 C 1740.689 926.628, 1754.823 906.674, 1768.599 879 C 1793.067 829.847, 1805.256 784.464, 1815.466 704.500 C 1819.966 669.257, 1821.132 665.358, 1831.618 650.478 C 1854.152 618.505, 1887.647 557.365, 1904.743 517 C 1925.586 467.791, 1940.204 414.399, 1946.964 362.787 C 1951.168 330.694, 1952.207 313.408, 1952.724 267 C 1953.375 208.565, 1951.405 173.751, 1945.434 138.155 C 1936.420 84.415, 1924.178 66.154, 1882 43.531 C 1850.377 26.570, 1820.977 17.641, 1783.250 13.540 C 1739.491 8.782, 1671.527 9.219, 1619.500 14.591 C 1528.754 23.962, 1402.047 54.256, 1323 85.481 C 1270.369 106.271, 1224.824 131.812, 1179.095 166.180 C 1173.373 170.481, 1168.085 174, 1167.345 174 C 1164.760 174, 1162.226 170.186, 1159.620 162.373 C 1156.313 152.462, 1154.334 149.227, 1148.803 144.695 C 1139.921 137.417, 1125.862 135.498, 1081.500 135.508 C 1053.165 135.514, 1045.672 135.821, 1036.531 137.354 C 1020.744 140, 1016.592 141.817, 1009.390 149.233 C 1000.984 157.888, 999.700 160.004, 993.528 175.385 C 985.559 195.246, 984.483 196.890, 980.463 195.347 C 978.463 194.580, 977.005 191.666, 970.472 175.385 C 964.300 160.004, 963.016 157.888, 954.610 149.233 C 947.408 141.817, 943.256 140, 927.469 137.354 C 918.328 135.821, 910.835 135.514, 882.500 135.508 C 838.138 135.498, 824.079 137.417, 815.197 144.695 C 809.666 149.227, 807.687 152.462, 804.380 162.373 C 801.774 170.186, 799.240 174, 796.655 174 C 795.915 174, 790.627 170.481, 784.905 166.180 C 708.800 108.981, 637.505 77.407, 513.500 45.983 C 440.728 27.542, 376.044 16.446, 315.500 12.019 C 295.975 10.592, 236.105 9.983, 214.500 10.992" stroke="none" fill="#F2E8BF" fill-rule="evenodd"/>
</svg>