<svg xmlns="http://www.w3.org/2000/svg" width="1968" height="1482" viewBox="0 0 1968 1482" version="1.1">
	<path d="M 216.500 10.992 C 161.902 13.543, 128.117 21.267, 91.936 39.472 C 46.597 62.285, 32.908 78.891, 23.475 122.521 C 20.178 137.769, 17.517 156.011, 15.309 178.500 C 12.701 205.066, 12.703 300.924, 15.312 329 C 21.901 399.882, 35.881 457.089, 61.257 517 C 78.623 558.001, 111.428 617.645, 136.384 653.589 C 144.429 665.177, 145.953 670.712, 149.992 703 C 159.864 781.932, 172.580 829.139, 197.401 879 C 211.177 906.674, 225.311 926.628, 246.276 948 C 267.060 969.187, 287.602 983.648, 312.364 994.525 C 317.510 996.785, 321.868 999.395, 322.755 1000.749 C 324.077 1002.766, 324.300 1010.917, 324.411 1061.290 C 324.550 1124.043, 324.981 1131.788, 330.051 1162.613 C 339.531 1220.251, 361.465 1276.941, 392.300 1323.500 C 404.934 1342.577, 415.308 1355.213, 433 1373.073 C 450.148 1390.384, 462.699 1401.039, 480.210 1413.151 C 528.954 1446.866, 585.728 1465.548, 653 1470.009 C 671.895 1471.262, 728.361 1471.243, 747.500 1469.977 C 797.553 1466.667, 840.103 1455.628, 878.500 1435.990 C 907.246 1421.289, 940.848 1396.405, 963.845 1372.788 C 973.848 1362.515, 980.002 1358, 984 1358 C 987.998 1358, 994.152 1362.515, 1004.155 1372.788 C 1027.152 1396.405, 1060.754 1421.289, 1089.500 1435.990 C 1127.897 1455.628, 1170.447 1466.667, 1220.500 1469.977 C 1239.639 1471.243, 1296.105 1471.262, 1315 1470.009 C 1391.750 1464.919, 1452.911 1442.097, 1508.290 1397.882 C 1521.611 1387.246, 1549.325 1359.215, 1559.627 1345.958 C 1598.981 1295.313, 1626.855 1230.061, 1637.949 1162.613 C 1643.019 1131.788, 1643.450 1124.043, 1643.589 1061.290 C 1643.700 1010.917, 1643.923 1002.766, 1645.245 1000.749 C 1646.132 999.395, 1650.490 996.785, 1655.636 994.525 C 1680.398 983.648, 1700.940 969.187, 1721.724 948 C 1742.689 926.628, 1756.823 906.674, 1770.599 879 C 1795.420 829.139, 1808.136 781.932, 1818.008 703 C 1822.047 670.712, 1823.571 665.177, 1831.616 653.589 C 1856.572 617.645, 1889.377 558.001, 1906.743 517 C 1927.485 468.031, 1942.088 414.811, 1948.909 363.339 C 1953.799 326.432, 1954.501 312.530, 1954.479 253 C 1954.457 193.547, 1953.736 179.635, 1949.001 147.414 C 1939.662 83.858, 1926.983 65.093, 1876.064 39.472 C 1838.345 20.493, 1806.681 13.548, 1745.750 10.889 C 1707.255 9.208, 1659.987 10.617, 1621.500 14.591 C 1530.754 23.962, 1404.047 54.256, 1325 85.481 C 1272.369 106.271, 1226.824 131.812, 1181.095 166.180 C 1175.373 170.481, 1170.085 174, 1169.345 174 C 1166.760 174, 1164.226 170.186, 1161.620 162.373 C 1158.313 152.462, 1156.334 149.227, 1150.803 144.695 C 1141.921 137.417, 1127.862 135.498, 1083.500 135.508 C 1055.165 135.514, 1047.672 135.821, 1038.531 137.354 C 1022.744 140, 1018.592 141.817, 1011.390 149.233 C 1002.984 157.888, 1001.700 160.004, 995.528 175.385 C 987.559 195.246, 986.483 196.890, 982.463 195.347 C 980.463 194.580, 979.005 191.666, 972.472 175.385 C 966.300 160.004, 965.016 157.888, 956.610 149.233 C 949.408 141.817, 945.256 140, 929.469 137.354 C 920.328 135.821, 912.835 135.514, 884.500 135.508 C 840.138 135.498, 826.079 137.417, 817.197 144.695 C 811.666 149.227, 809.687 152.462, 806.380 162.373 C 803.774 170.186, 801.240 174, 798.655 174 C 797.915 174, 792.627 170.481, 786.905 166.180 C 710.800 108.981, 639.505 77.407, 515.500 45.983 C 442.728 27.542, 378.044 16.446, 317.500 12.019 C 297.975 10.592, 238.105 9.983, 216.500 10.992" stroke="none" fill="#F2E8BF" fill-rule="evenodd"/>
</svg>