<svg xmlns="http://www.w3.org/2000/svg" width="1028" height="834" viewBox="0 0 1028 834" version="1.1">
	<path d="M 459.270 14.054 C 452.469 15.396, 446.475 18.510, 443.721 22.131 C 442.260 24.053, 440.232 29.152, 438.999 34 C 435.953 45.986, 432.192 52.504, 424.863 58.500 C 407.728 72.517, 400.019 90.263, 397.929 120.500 C 396.709 138.143, 396.464 139.608, 394.617 140.317 C 393.846 140.612, 387.880 139.781, 381.358 138.469 C 355.177 133.204, 335.803 131.188, 290.500 129.013 C 268.701 127.967, 267.460 127.735, 242.500 120.045 C 191.782 104.421, 149.764 97.037, 111.424 97.010 C 64.502 96.978, 38.005 105.709, 22.410 126.341 C 13.988 137.483, 10.702 149.555, 9.436 174 C 8.175 198.357, 11.637 222.702, 18.483 237.622 C 27.392 257.037, 38.710 267.758, 71.950 288.273 C 83.610 295.470, 82.761 298.920, 66.356 311 C 41.541 329.273, 33.069 340.890, 28.319 363.154 C 25.819 374.877, 25.838 412.993, 28.351 424 C 30.976 435.502, 35.052 443.209, 42.736 451.201 C 59.148 468.271, 85.033 480.821, 134 495.451 C 151.042 500.543, 165.458 503.529, 180 504.982 C 197.117 506.691, 203.896 507.938, 215.500 511.508 C 248.608 521.694, 291.618 526.996, 341 526.978 C 370.398 526.968, 383.477 526.254, 407.405 523.351 C 425.745 521.126, 424.472 519.541, 425.323 545.661 C 425.679 556.573, 426.658 570.675, 427.500 577 C 428.341 583.325, 429.702 599.300, 430.526 612.500 C 432.207 639.464, 433.092 646.751, 436.589 662.446 C 437.930 668.466, 440.174 680.166, 441.575 688.446 C 444.445 705.401, 453.362 747.568, 458.016 766.185 C 465.025 794.224, 468.205 802.098, 475.800 810.217 C 486.261 821.400, 493.667 823.437, 524 823.473 C 548.125 823.502, 554.778 822.646, 563.092 818.446 C 568.724 815.601, 576.928 806.811, 579.947 800.389 C 582.821 794.275, 586.161 779.451, 590.061 755.500 C 593.855 732.198, 601.933 684.418, 605.953 661.500 C 609.679 640.257, 610.746 622.690, 611.513 570 C 611.845 547.175, 612.312 527.537, 612.550 526.360 C 612.788 525.183, 613.723 523.936, 614.628 523.589 C 615.533 523.242, 622.849 523.745, 630.887 524.707 C 649.381 526.922, 719.723 527.256, 738 525.216 C 768.817 521.778, 794.413 517.127, 810 512.136 C 822.890 508.008, 826.150 507.365, 843.500 505.523 C 862.737 503.481, 875.934 500.849, 894 495.451 C 943.087 480.786, 969.093 468.098, 985.773 450.676 C 992.951 443.180, 997.106 435.181, 999.631 424 C 1002.050 413.285, 1002.075 373.799, 999.670 362.933 C 997.466 352.978, 994.043 344.410, 989.588 337.699 C 984.900 330.635, 971.900 318.341, 959.772 309.500 C 954.491 305.650, 949.419 301.241, 948.501 299.703 C 946.952 297.108, 946.950 296.725, 948.470 294.405 C 949.372 293.029, 953.572 289.714, 957.805 287.037 C 980.877 272.446, 983.998 270.153, 992.500 261.555 C 1009.435 244.427, 1015.802 228.748, 1018.131 198.438 C 1019.456 181.205, 1018.277 158.376, 1015.501 147.500 C 1010.487 127.852, 996.155 112.285, 976.490 105.127 C 961.315 99.604, 942.064 96.993, 916.644 97.010 C 875.666 97.038, 836.239 104.251, 777.436 122.477 C 759.924 127.905, 753.836 128.726, 721.864 129.978 C 694.594 131.045, 674.218 133.256, 651.500 137.615 C 631.471 141.458, 630.429 141.540, 629.538 139.341 C 629.127 138.329, 628.417 130.975, 627.961 123 C 626.191 92.083, 621.455 79.659, 604.898 62.500 C 594.330 51.548, 591.806 47.440, 589.027 36.669 C 588.009 32.726, 586.659 28.150, 586.027 26.500 C 584.189 21.703, 579.015 17.091, 573.527 15.356 C 566.161 13.028, 542.068 12.404, 529.500 14.216 C 518.409 15.816, 504.597 15.766, 495.556 14.095 C 488.764 12.839, 465.556 12.813, 459.270 14.054" stroke="none" fill="#F2E8BF" fill-rule="evenodd"/>
</svg>