<svg xmlns="http://www.w3.org/2000/svg" width="837" height="1077" viewBox="0 0 837 1077" version="1.1">
	<path d="M 169.500 11.569 C 146.208 14.736, 142.029 17.545, 138.361 32.500 C 134.846 46.829, 136.433 76.290, 141.352 88.007 C 143.274 92.586, 152.462 101.088, 169.074 113.660 C 184.745 125.519, 198.538 137.268, 200.004 140.007 C 201.611 143.011, 197.867 144.740, 187 146.013 C 171.891 147.782, 166.652 149.569, 162.104 154.503 C 156.408 160.682, 154.549 169.571, 154.578 190.500 C 154.600 206.896, 156.355 218.849, 159.699 225.364 C 163.024 231.842, 176.531 243.808, 189.587 251.841 C 192.378 253.558, 195.244 256.210, 195.954 257.732 C 199.697 265.752, 199.135 311.621, 194.928 341.500 C 193.469 351.864, 192.797 361.908, 192.752 374 C 192.659 399.191, 194.808 408.454, 202.769 417.176 C 208.916 423.911, 209.482 425.485, 207.123 429.290 C 206.028 431.056, 203.488 434.075, 201.478 436 C 196.546 440.725, 194.693 444.622, 189.623 460.939 C 185.955 472.739, 184.041 476.951, 177.018 488.676 C 160.220 516.722, 133.013 555.218, 113.536 578.500 C 103.831 590.100, 103.616 590.177, 78.297 591.132 C 34.704 592.775, 20.928 597.800, 15.952 613.876 C 12.902 623.727, 11.654 639.976, 12.950 652.943 C 14.407 667.517, 16.240 673.220, 21.193 678.594 C 29.502 687.608, 41.471 689.271, 99 689.403 C 140.222 689.497, 141.738 689.432, 149.414 687.249 C 159.846 684.282, 165.039 681.103, 173.566 672.465 C 186.909 658.949, 219.156 618.426, 233 597.780 C 235.475 594.089, 237.925 591.195, 238.445 591.349 C 240.586 591.985, 240.987 598.488, 239.998 616.500 C 239.425 626.950, 238.690 637.300, 238.366 639.500 C 237.151 647.743, 235.867 649.265, 221.860 659.071 C 161.414 701.387, 141.987 717.779, 135.164 732.219 C 129.485 744.238, 128.496 751.516, 128.534 781 C 128.584 820.345, 129.713 823.966, 152.306 857.287 C 176.004 892.238, 201.924 933.970, 210.453 950.907 C 215.703 961.332, 215.564 966.008, 209.628 978.784 C 203.584 991.789, 201.632 1002.177, 201.601 1021.500 C 201.564 1044.365, 204.660 1055.159, 212.835 1060.668 C 218.423 1064.434, 225.962 1065.500, 247 1065.500 C 264.355 1065.500, 267.270 1065.256, 273.500 1063.286 C 285.832 1059.385, 291.682 1052.413, 300.483 1031.131 C 307.436 1014.317, 309.584 1010.267, 311.945 1009.517 C 314.410 1008.735, 317.851 1010.515, 320.435 1013.909 C 324.905 1019.780, 339.027 1033.637, 346.578 1039.560 C 355.614 1046.649, 367.233 1053.263, 374.482 1055.445 C 388.874 1059.776, 424.150 1060.125, 439.427 1056.087 C 452.794 1052.553, 465.864 1044.130, 481.341 1029.074 C 492.728 1017.996, 497.980 1011.609, 507.819 996.874 C 511.721 991.029, 515.607 985.981, 516.453 985.656 C 518.230 984.974, 520.714 989.335, 523.484 998 C 527.652 1011.041, 541.741 1043.938, 545.541 1049.500 C 552.544 1059.754, 557.801 1062.802, 572.475 1065.122 C 580.748 1066.429, 609.299 1065.703, 616.209 1064.009 C 630.627 1060.476, 635.445 1049.803, 635.399 1021.500 C 635.368 1002.177, 633.416 991.789, 627.372 978.784 C 620.959 964.983, 621.065 961.322, 628.276 947.721 C 639.098 927.310, 661.227 891.823, 684.686 857.258 C 700.407 834.096, 702.577 829.966, 706.111 816.500 C 708.323 808.071, 708.470 805.755, 708.440 780 C 708.410 754.728, 708.228 751.852, 706.189 744.500 C 702.737 732.051, 699.628 726.733, 689.781 716.432 C 678.146 704.262, 651.506 684.207, 594.301 644.556 C 582.273 636.218, 579.861 634.110, 578.521 630.762 C 576.648 626.079, 575.025 603.798, 575.078 583.500 C 575.123 566.671, 575.861 561.500, 578.217 561.500 C 579.298 561.500, 584.498 568.478, 592.748 581 C 608.843 605.431, 618.726 619.065, 635.511 640 C 676.163 690.701, 676.367 690.794, 744.500 689.690 C 795.995 688.856, 807.633 687.142, 815.147 679.282 C 819.852 674.361, 820.493 672.994, 822.549 663.480 C 824.623 653.881, 824.927 631.388, 823.103 622.500 C 820.707 610.833, 819.089 607.248, 814.323 603.053 C 805.579 595.356, 791.703 592.375, 758.852 591.137 C 740.777 590.456, 736.939 590.038, 733.844 588.416 C 724.337 583.434, 681.027 524.713, 658.561 486.347 C 652.777 476.469, 650.145 470.731, 647.991 463.300 C 642.263 443.537, 641.621 442.321, 631.889 432.830 C 627 428.062, 623 423.870, 623 423.514 C 623 422.198, 625.405 418.388, 628.621 414.609 C 632.664 409.859, 634.610 404.143, 635.966 393.026 C 637.864 377.474, 636.976 357.800, 633.281 333.500 C 631.133 319.373, 630.752 264.573, 632.763 259 C 633.766 256.221, 635.927 254.264, 643.252 249.500 C 648.326 246.200, 656.378 239.675, 661.145 235 C 668.690 227.602, 670.009 225.787, 671.325 221 C 676.617 201.752, 676.058 169.477, 670.237 158.207 C 666.344 150.670, 662.555 149.171, 637.079 145.087 C 629.823 143.924, 628.522 143.081, 629.453 140.147 C 630.234 137.686, 647.099 123.394, 666.826 108.475 C 674.705 102.516, 682.638 95.904, 684.455 93.782 C 690.447 86.781, 693.643 69.385, 692.682 49 C 691.641 26.921, 687.369 17.672, 676.757 14.521 C 660.639 9.734, 629.201 10.711, 615.529 16.423 C 610.829 18.387, 602.245 24.487, 586.050 37.370 C 542.264 72.203, 502.037 113.433, 468.297 158.061 C 456.608 173.521, 435.326 205.015, 429.367 215.671 C 424.016 225.240, 417.176 228.055, 408.097 224.422 C 404.754 223.085, 403.303 221.419, 398.570 213.489 C 356.717 143.353, 294.820 75.130, 228.128 25.624 C 216.156 16.737, 213.791 15.607, 202.820 13.525 C 194.647 11.975, 175 10.822, 169.500 11.569 M 526.796 256.766 C 520.729 266.055, 518 271.688, 518 274.925 C 518 276.019, 519.982 280.672, 522.404 285.264 C 527.831 295.554, 529.488 301.004, 531.034 313.642 C 532.154 322.804, 534.014 328.659, 533.990 322.950 C 533.984 321.602, 534.249 305.117, 534.578 286.316 C 535.137 254.397, 534.903 247.976, 533.183 248.016 C 532.807 248.024, 529.933 251.962, 526.796 256.766 M 294.459 252.187 C 293.736 255.481, 294.608 289.784, 295.633 298.343 C 296.330 304.158, 297.013 303.584, 299.801 294.845 C 300.969 291.184, 303.297 286.025, 304.975 283.379 C 309.290 276.574, 310.205 272.623, 308.565 267.864 C 306.844 262.867, 297.862 249.030, 296.329 249.013 C 295.686 249.006, 294.844 250.434, 294.459 252.187 M 573.627 800.250 C 571.569 803.514, 571.201 805.133, 569.055 820.362 C 567.090 834.308, 567.165 837, 569.518 837 C 570.989 837, 580.879 821.787, 584.013 814.704 L 586.069 810.056 584.062 806.122 C 582.166 802.406, 577.733 798, 575.888 798 C 575.425 798, 574.408 799.013, 573.627 800.250" stroke="none" fill="#F2E8BF" fill-rule="evenodd"/>
</svg>