<svg xmlns="http://www.w3.org/2000/svg" width="2006" height="1318" viewBox="0 0 2006 1318" version="1.1">
	<path d="M 123 12.602 C 83.921 15.306, 69.984 20.011, 52.160 36.512 C 35.195 52.219, 23.780 78.442, 17.124 117 C 15.266 127.759, 14.547 133.776, 12.005 159.789 C 10.693 173.221, 10.704 261.043, 12.020 275.947 C 14.477 303.778, 15.313 311.436, 17.570 326.808 C 29.374 407.194, 57.888 487.121, 103.971 569 C 126.070 608.265, 152.480 650.171, 168.871 671.981 C 179.471 686.085, 197.633 704.625, 209 712.946 C 218.318 719.766, 235.752 728.713, 246.118 731.994 C 252.093 733.885, 252.909 734.471, 254.511 738.025 C 256.150 741.659, 256.190 743.139, 255.032 757.231 C 253.527 775.551, 254.098 850.375, 255.877 868 C 261.406 922.782, 276.792 974.644, 303.124 1027.261 C 331.186 1083.336, 365.674 1129.966, 414.621 1178.013 C 472.655 1234.979, 517.610 1261.872, 567.573 1269.514 C 596.499 1273.938, 665.581 1273.622, 693 1268.940 C 733.800 1261.974, 769.891 1240.622, 814.132 1197.275 C 823.830 1187.774, 832.499 1180, 833.397 1180 C 835.843 1180, 838.606 1185.269, 842.549 1197.452 C 849.666 1219.445, 857.900 1232.673, 872.617 1245.753 C 885.365 1257.083, 930.455 1291.969, 935.500 1294.405 C 946.440 1299.687, 969.140 1302.363, 1003 1302.363 C 1036.860 1302.363, 1059.560 1299.687, 1070.500 1294.405 C 1075.545 1291.969, 1120.635 1257.083, 1133.383 1245.753 C 1148.100 1232.673, 1156.334 1219.445, 1163.451 1197.452 C 1167.394 1185.269, 1170.157 1180, 1172.603 1180 C 1173.501 1180, 1182.170 1187.774, 1191.868 1197.275 C 1236.109 1240.622, 1272.200 1261.974, 1313 1268.940 C 1340.419 1273.622, 1409.501 1273.938, 1438.427 1269.514 C 1479.688 1263.203, 1515.385 1244.667, 1562.500 1205.087 C 1584.878 1186.287, 1622.090 1147.504, 1643.181 1121 C 1703.702 1044.945, 1741.223 956.180, 1750.123 868 C 1751.902 850.375, 1752.473 775.551, 1750.968 757.231 C 1749.810 743.139, 1749.850 741.659, 1751.489 738.025 C 1753.091 734.471, 1753.907 733.885, 1759.882 731.994 C 1770.248 728.713, 1787.682 719.766, 1797 712.946 C 1808.367 704.625, 1826.529 686.085, 1837.129 671.981 C 1853.520 650.171, 1879.930 608.265, 1902.029 569 C 1948.112 487.121, 1976.626 407.194, 1988.430 326.808 C 1990.687 311.436, 1991.523 303.778, 1993.980 275.947 C 1995.296 261.043, 1995.307 173.221, 1993.995 159.789 C 1991.453 133.776, 1990.734 127.759, 1988.876 117 C 1986.373 102.502, 1982.904 88.723, 1978.896 77.357 C 1967.357 44.642, 1947.169 24.450, 1918.617 17.067 C 1905.004 13.547, 1890.549 12.551, 1853.500 12.578 C 1804.370 12.614, 1789.824 14.454, 1759.500 24.470 C 1736.901 31.935, 1724.365 37.705, 1646.500 76.486 C 1533.938 132.547, 1481.577 156.154, 1380.374 196.472 C 1352.127 207.725, 1348.915 208.459, 1347.495 203.984 C 1347.144 202.878, 1347.804 197.020, 1348.962 190.966 C 1354.185 163.669, 1354.258 87.849, 1349.085 64.148 C 1342.648 34.652, 1324.944 19.229, 1292.500 14.850 C 1278.744 12.993, 1206.628 12.974, 1192.108 14.823 C 1156.597 19.346, 1134.962 34.731, 1123.948 63.292 C 1119.080 75.913, 1117.108 86.733, 1115.981 107 C 1112.675 166.464, 1113.224 162.453, 1107.154 171.396 C 1105.057 174.486, 1100.036 180.896, 1095.996 185.640 C 1085.633 197.811, 1083.376 198.651, 1053.468 201.453 C 1044.651 202.279, 1032.951 203.945, 1027.468 205.154 C 1013.464 208.243, 992.536 208.243, 978.532 205.154 C 973.049 203.945, 961.349 202.279, 952.532 201.453 C 922.624 198.651, 920.367 197.811, 910.004 185.640 C 900.788 174.817, 895.338 166.827, 893.974 162.139 C 893.392 160.138, 892.495 151.075, 891.981 142 C 891.468 132.925, 890.584 117.175, 890.019 107 C 888.892 86.733, 886.920 75.913, 882.052 63.292 C 871.038 34.731, 849.403 19.346, 813.892 14.823 C 799.372 12.974, 727.256 12.993, 713.500 14.850 C 681.056 19.229, 663.352 34.652, 656.915 64.148 C 651.742 87.849, 651.815 163.669, 657.038 190.966 C 660.771 210.478, 660.779 210.476, 625.626 196.472 C 524.423 156.154, 472.062 132.547, 359.500 76.486 C 281.635 37.705, 269.099 31.935, 246.500 24.470 C 228.899 18.657, 215.734 15.666, 200.500 14.023 C 190.452 12.939, 133.275 11.890, 123 12.602" stroke="none" fill="#F2E8BF" fill-rule="evenodd"/>
</svg>