<svg xmlns="http://www.w3.org/2000/svg" width="679" height="1106" viewBox="0 0 679 1106" version="1.1">
	<path d="M 330.335 15.003 C 318.898 16.244, 310.279 19.583, 304.757 24.913 C 295.008 34.323, 294.385 41.962, 292.960 169.500 C 291.921 262.498, 291.079 295.446, 289.684 297.702 C 289.276 298.363, 286.117 300.294, 282.665 301.993 C 272.139 307.175, 259.859 317.275, 244.161 333.661 C 224.263 354.432, 223.651 354.250, 230.131 329.500 C 231.716 323.450, 234.539 312.650, 236.406 305.500 C 241.940 284.307, 243.549 258.907, 240.600 239.270 C 237.624 219.455, 229.634 213.816, 202.422 212.326 C 190.244 211.660, 178.615 212.949, 168.432 216.094 C 161.139 218.346, 155.757 223.594, 151.492 232.608 C 150.098 235.554, 142.649 260.805, 134.939 288.721 C 127.229 316.637, 119.364 344.389, 117.463 350.394 C 111.270 369.951, 110.508 375.742, 110.535 403 C 110.562 429.884, 111.726 440.552, 118.589 476.866 C 123.197 501.242, 122.786 502.424, 110.764 499.387 C 100.475 496.787, 75.621 496.768, 64.598 499.352 C 57.836 500.937, 56.004 501.851, 51.899 505.691 C 48.717 508.668, 46.580 511.748, 45.554 514.839 C 40.657 529.589, 40.948 564.960, 46.151 587.500 C 50.575 606.665, 58.037 620.689, 72.853 637.682 C 89.542 656.823, 102.688 665.382, 146.304 685.504 C 154.729 689.391, 161.552 693.163, 162.138 694.258 C 164.031 697.795, 161.098 701.618, 145.688 715.693 C 114.624 744.067, 105.647 752.988, 83.042 777.955 C 78.390 783.093, 69.390 791.441, 63.042 796.505 C 48.232 808.320, 40.785 816.193, 32.732 828.552 C 14.660 856.286, 13.504 860.041, 13.502 891 C 13.500 907.822, 13.819 912.531, 15.277 917.246 C 17.214 923.511, 21.582 929.215, 26.316 931.664 C 37.854 937.630, 77.626 937.240, 91.681 931.023 C 94.257 929.883, 98.679 926.214, 102.737 921.848 C 122.270 900.833, 134.156 890.503, 137.969 891.229 C 140.614 891.733, 140.238 895.258, 135.526 914.112 C 129.263 939.175, 127.167 951.583, 125.923 970.970 C 123.041 1015.896, 129.331 1047.294, 146.065 1071.499 C 153.712 1082.562, 161.370 1089.279, 168.670 1091.327 C 183.571 1095.508, 206.792 1096.023, 221.865 1092.506 C 233.436 1089.806, 239.205 1083.533, 242.102 1070.500 C 243.814 1062.801, 243.876 1029.237, 242.198 1019 C 241.522 1014.875, 238.442 1004.097, 235.355 995.050 C 230.060 979.532, 229.773 978.199, 230.303 971.550 C 230.969 963.168, 238.211 937.238, 248.749 905.500 C 259.108 874.300, 268.378 856.230, 290.586 823.951 C 296.619 815.183, 298.721 812.925, 303.042 810.574 L 308.239 807.745 318.156 808.872 C 330.580 810.285, 350.967 810.324, 361.878 808.956 C 371.371 807.766, 375.133 808.561, 380.222 812.836 C 385.502 817.270, 413.405 861.137, 419.764 875 C 424.397 885.099, 435.741 918.776, 443.174 944.500 C 451.192 972.247, 451.307 976.057, 444.681 994.329 C 437.621 1013.800, 436.600 1020.048, 436.565 1044 C 436.524 1071.958, 438.447 1079.947, 446.973 1087.245 C 453.158 1092.539, 462.661 1094.504, 482 1094.485 C 499.832 1094.469, 511.393 1092.405, 518.339 1088 C 527.210 1082.374, 540.534 1063.232, 546.010 1048.245 C 552.858 1029.502, 555.468 1004.646, 553.893 973.179 C 552.954 954.433, 550.902 941.946, 544.530 916.201 C 542.038 906.137, 540 896.560, 540 894.920 C 540 890.161, 542.431 890.258, 549.829 895.313 C 558.016 900.907, 563.558 906.166, 571.817 916.179 C 585.320 932.548, 594.217 935.982, 623.162 935.994 C 651.572 936.006, 661.380 931.490, 665.582 916.461 C 668.079 907.530, 668.672 880.140, 666.620 868.500 C 664.096 854.185, 663.451 852.733, 652.037 835.681 C 639.191 816.490, 633.291 809.778, 619.677 798.868 C 605.378 787.410, 604.075 786.168, 589.343 769.968 C 573.959 753.050, 561.226 740.486, 536.705 718.025 C 526.917 709.060, 518.263 700.476, 517.474 698.950 C 516.193 696.472, 516.225 695.950, 517.769 694.091 C 518.721 692.945, 528.639 687.757, 539.810 682.563 C 573.199 667.035, 585.595 659.457, 598.416 646.734 C 607.453 637.765, 620.603 620.689, 624.705 612.597 C 635.832 590.643, 640.753 550.445, 635.850 521.554 C 633.690 508.826, 627.582 502.208, 615.346 499.340 C 604.370 496.766, 579.685 496.783, 568.566 499.371 C 560.930 501.149, 560.583 501.151, 559.316 499.418 C 557.474 496.898, 557.578 495.705, 561.409 475.490 C 568.206 439.616, 569.413 428.708, 569.428 403 C 569.444 376.468, 568.586 370.261, 562.047 349.620 C 559.935 342.954, 552.737 317.475, 546.051 293 C 539.366 268.525, 532.956 245.575, 531.809 242 C 527.614 228.934, 521.997 220.569, 515.028 217.014 C 502.539 210.643, 462.817 210.323, 451.037 216.499 C 446.934 218.650, 442.196 224.192, 440.606 228.700 C 436.847 239.355, 436.088 267.709, 439.047 287 C 439.680 291.125, 442.812 303.950, 446.008 315.500 C 452.955 340.609, 454.522 347.878, 453.260 349.140 C 451.638 350.762, 449.221 348.993, 443.492 341.990 C 435.916 332.730, 418.992 316.580, 410.596 310.598 C 406.811 307.902, 399.753 303.715, 394.911 301.295 C 386.226 296.954, 386.099 296.837, 385.551 292.697 C 385.246 290.389, 384.837 235.850, 384.643 171.500 C 384.344 72.270, 384.056 52.981, 382.747 44.500 C 380.927 32.715, 379.802 29.482, 376.186 25.661 C 368.066 17.078, 349.972 12.873, 330.335 15.003" stroke="none" fill="#F2E8BF" fill-rule="evenodd"/>
</svg>