<svg xmlns="http://www.w3.org/2000/svg" width="873" height="1249" viewBox="0 0 873 1249" version="1.1">
	<path d="M 312.552 10.032 C 291.679 12.417, 285.443 15.400, 270.963 29.928 C 260.203 40.724, 251.662 52.347, 240.564 71.300 C 225.473 97.070, 217.812 121.217, 213.346 157.086 C 211.638 170.805, 210.868 224.689, 212 251.210 C 212.645 266.309, 212.094 267.124, 203.416 263.895 C 197.423 261.664, 195.933 260.377, 185.209 248.161 C 181.323 243.735, 178.667 241.697, 175.209 240.488 C 166.193 237.336, 160.369 234.190, 153.955 229.005 C 150.405 226.135, 145.604 222.853, 143.286 221.712 C 138.011 219.114, 136.008 214.594, 135.980 205.230 C 135.930 188.056, 132.689 176.593, 125.989 169.894 C 117.759 161.664, 101.646 158.054, 72.974 158.017 C 32.617 157.966, 20.176 164.890, 12.817 191.500 C 10.773 198.889, 10.602 201.713, 10.569 228.500 C 10.536 254.760, 10.736 258.356, 12.680 266.557 C 19.228 294.177, 30.822 309.097, 67.454 337.041 C 99.113 361.191, 113.691 375.483, 123.113 391.606 C 128.967 401.624, 129.859 405.462, 131.071 425.854 C 132.728 453.732, 133.760 458.286, 143.606 481.163 C 153.020 503.038, 153.112 503.616, 157.483 568 C 160.490 612.291, 162.348 630.131, 165.057 640.719 C 166.228 645.298, 166.784 649.700, 166.408 651.416 C 166.027 653.153, 162.384 657.903, 157.401 663.162 C 152.597 668.231, 147.779 674.475, 146.089 677.823 C 141.143 687.622, 98.837 787.034, 96.436 794.500 C 95.198 798.350, 93.450 807.523, 92.550 814.885 C 91.651 822.246, 90.252 831.424, 89.441 835.279 C 86.921 847.261, 80.116 865.021, 74.389 874.566 C 70.442 881.144, 67.599 887.796, 64.033 898.799 C 61.329 907.141, 57.560 916.787, 55.657 920.233 C 50.880 928.884, 47.611 938.546, 45.077 951.500 C 42.328 965.549, 40.683 970.532, 35.336 981 C 28.798 993.802, 27.648 1000.538, 27.568 1026.500 C 27.497 1049.537, 28.383 1056.860, 32.135 1064.247 C 33.181 1066.308, 40.727 1074.718, 48.903 1082.936 C 65.665 1099.783, 65.543 1099.716, 84.500 1102.407 C 90 1103.187, 95.287 1104.138, 96.250 1104.520 C 100.236 1106.101, 97.990 1108.777, 86.925 1115.636 C 70.338 1125.917, 52.405 1142.419, 45.973 1153.321 C 40.170 1163.156, 37.921 1197.438, 41.960 1214.483 C 43.633 1221.545, 44.364 1222.951, 48.288 1226.657 C 55.714 1233.674, 62.425 1234.747, 104.500 1235.648 C 137.683 1236.358, 149.735 1235.561, 161.699 1231.866 C 167.610 1230.040, 168.892 1229.013, 184.481 1213.622 C 193.567 1204.652, 201 1196.802, 201 1196.177 C 201 1194.072, 209.281 1190.744, 215.471 1190.361 C 250.249 1188.207, 259.331 1186.912, 266.966 1183.018 C 273.077 1179.900, 280.706 1171.728, 296.299 1151.598 C 299.555 1147.394, 305.334 1144.340, 316.447 1140.949 C 323.447 1138.813, 325.260 1137.722, 331.655 1131.792 C 335.649 1128.089, 339.948 1124.803, 341.208 1124.491 C 342.537 1124.162, 347.220 1125.215, 352.351 1126.997 C 400.444 1143.701, 469.001 1144.065, 518.752 1127.879 C 533.066 1123.222, 534.609 1123.389, 540.455 1130.218 C 545.679 1136.321, 549.665 1138.777, 558.941 1141.606 C 571.900 1145.557, 574.205 1147.073, 581.172 1156.225 C 603.525 1185.591, 607.231 1187.415, 649.576 1189.898 C 666.332 1190.880, 671.093 1192.397, 674.213 1197.746 C 676.452 1201.585, 700.697 1225.550, 705.828 1228.996 C 708.079 1230.508, 713.435 1232.502, 718.154 1233.585 C 725.564 1235.285, 730.370 1235.490, 761 1235.408 C 806.189 1235.288, 818.472 1233.723, 825.325 1227.211 C 829.353 1223.384, 830.631 1220.522, 832.559 1211.008 C 834.869 1199.605, 834.099 1174.052, 831.102 1162.713 C 828.484 1152.804, 825.834 1149.050, 811.774 1135.334 C 801.342 1125.159, 791.131 1117.506, 779.296 1110.996 C 771.622 1106.775, 772.969 1103.571, 782.862 1102.514 C 807.679 1099.862, 808.490 1099.477, 825.674 1082.172 C 833.654 1074.135, 841.105 1065.754, 842.231 1063.548 C 847.941 1052.356, 848.619 1012.568, 843.417 994 C 842.569 990.975, 839.679 983.775, 836.995 978 C 833.412 970.293, 831.427 964.175, 829.531 955 C 826.309 939.411, 823.818 931.697, 818.712 921.500 C 816.509 917.100, 812.308 906.348, 809.378 897.607 C 805.801 886.941, 802.688 879.626, 799.910 875.362 C 790.968 861.637, 784.743 842.261, 781.513 818.099 C 779.790 805.207, 778.048 796.392, 776.115 790.782 C 772.740 780.985, 728.813 680.078, 725.713 675 C 724.538 673.075, 720.390 668.125, 716.495 664 C 706.996 653.939, 706.217 651.886, 708.429 642.723 C 711.242 631.067, 712.731 616.900, 715.967 571 C 720.855 501.676, 721.092 500.214, 730.861 479.257 C 739.948 459.762, 740.421 457.422, 742.942 419.500 C 743.481 411.384, 744.574 403.490, 745.541 400.717 C 748.401 392.522, 756.638 381.255, 768.293 369.597 C 781.080 356.806, 790.037 349.213, 812 332.550 C 836.632 313.861, 847.225 302.451, 854.438 286.840 C 861.957 270.568, 864.546 252.533, 863.678 222.500 C 862.884 195.022, 859.890 182.101, 852.008 172.129 C 843.567 161.450, 834.896 158.874, 805.288 158.250 C 751.465 157.114, 738.134 166.176, 737.986 204 C 737.947 213.736, 735.524 219.465, 730.569 221.536 C 728.647 222.339, 725.595 224.288, 723.787 225.867 C 716.901 231.881, 708.568 236.980, 702.156 239.104 C 693.691 241.908, 690.165 244.619, 684.052 253.023 C 678.981 259.995, 672.842 264.112, 665.298 265.600 C 662.403 266.170, 662.028 265.961, 661.389 263.413 C 661 261.864, 661.493 250.224, 662.485 237.548 C 666.984 180.028, 659.312 123.546, 642.155 87.894 C 632.569 67.975, 615.438 42.491, 603.500 30.392 C 588.837 15.533, 580.944 11.983, 557.880 9.876 C 544.298 8.635, 526.841 9.681, 518.500 12.235 C 512.704 14.009, 505.642 21.391, 504.178 27.207 C 501.485 37.902, 500.712 52.016, 502.053 66 C 502.765 73.425, 503.424 93.900, 503.517 111.500 C 503.651 136.659, 504.045 145.382, 505.358 152.304 C 508.615 169.462, 516.031 179.496, 533.017 189.724 C 545.949 197.511, 555.987 207.985, 555.996 213.703 C 556.002 217.362, 553.845 220.933, 550.307 223.119 C 542.803 227.757, 540.194 233.609, 536.473 254.148 C 533.878 268.470, 529.939 280.844, 525.221 289.496 C 523.035 293.504, 521.705 294.754, 518.498 295.816 C 512.248 297.885, 507.895 296.126, 503.055 289.575 C 496.018 280.048, 487.728 276.763, 465 274.491 C 446.564 272.648, 427.308 272.646, 409.500 274.486 C 384.523 277.067, 376.336 280.492, 369.548 291.198 C 368.608 292.682, 365.952 294.617, 363.647 295.497 C 360.063 296.866, 358.880 296.910, 355.478 295.799 C 352.021 294.670, 351.011 293.583, 347.764 287.500 C 342.802 278.201, 339.628 268.051, 336.961 252.952 C 333.839 235.275, 332.093 231.157, 324.990 224.730 C 321.753 221.799, 318.669 218.260, 318.139 216.865 C 315.755 210.595, 324.809 200.054, 342.500 188.503 C 354.983 180.353, 359.526 175.808, 363.421 167.576 C 368.604 156.620, 369.291 151.117, 369.484 119 C 369.581 102.775, 370.245 83.110, 370.958 75.300 C 372.572 57.628, 371.898 34.642, 369.546 27.157 C 368.418 23.567, 366.459 20.406, 363.572 17.519 C 359.934 13.882, 358.173 12.972, 352.088 11.588 C 343.304 9.590, 323.308 8.804, 312.552 10.032 M 165.046 995.954 C 163.972 997.028, 161.916 1001.866, 160.477 1006.704 C 159.039 1011.542, 156.104 1020.900, 153.956 1027.500 C 150.035 1039.550, 147.506 1051.705, 146.364 1063.998 C 145.870 1069.305, 146.065 1070.922, 147.350 1072.207 C 148.817 1073.674, 150.222 1073.325, 164.225 1068.019 C 184.301 1060.412, 184.664 1060.226, 186.086 1056.793 C 187.177 1054.160, 186.758 1052.118, 182.167 1037.672 C 179.340 1028.778, 175.645 1016.325, 173.956 1010 C 171.222 999.761, 168.889 994, 167.477 994 C 167.215 994, 166.121 994.879, 165.046 995.954 M 704.529 995.614 C 703.688 996.455, 703 997.303, 703 997.498 C 703 998.971, 695.061 1027.307, 691.296 1039.270 C 686.761 1053.683, 686.687 1054.121, 688.260 1057.419 C 689.677 1060.390, 691.116 1061.283, 700.186 1064.817 C 713.054 1069.832, 722.465 1073, 724.490 1073 C 727.896 1073, 728.236 1068.939, 726.050 1054.333 C 724.498 1043.962, 722.286 1035.095, 717.585 1020.397 C 714.085 1009.454, 710.661 999.287, 709.975 997.805 C 708.408 994.415, 706.496 993.646, 704.529 995.614" stroke="none" fill="#F2E8BF" fill-rule="evenodd"/>
</svg>