<svg xmlns="http://www.w3.org/2000/svg" width="1046" height="1135" viewBox="0 0 1046 1135" version="1.1">
	<path d="M 407.500 12.070 C 385.976 14.216, 380.214 21.683, 379.245 48.685 C 378.746 62.592, 379.672 70.635, 383.117 82.323 C 384.890 88.339, 386.087 90.173, 393.225 97.823 C 406.282 111.815, 420.060 128.214, 422.081 132.167 C 423.861 135.647, 423.868 135.937, 422.228 137.882 C 421.278 139.009, 416.182 141.477, 410.904 143.366 C 405.627 145.256, 399.433 147.759, 397.140 148.929 C 393.924 150.569, 392.523 150.815, 391.009 150.005 C 388.320 148.566, 387.632 147.070, 382.462 131.439 C 377.747 117.183, 372.221 105.101, 366.790 97.176 C 361.475 89.419, 345.436 73.587, 336.192 66.972 C 319.504 55.029, 294.531 45.170, 274.066 42.446 C 255.976 40.037, 232.996 40.824, 221.590 44.241 C 219.315 44.922, 215.379 47.565, 212.322 50.463 C 205.165 57.247, 203.939 61.925, 203.272 85 C 202.501 111.647, 203.771 117.746, 213.867 135.917 C 224.954 155.870, 227.537 158.233, 243 162.568 C 254.873 165.896, 256.105 166.681, 260.575 173.755 C 265.707 181.875, 270.635 186.735, 277.050 190.001 C 280.598 191.807, 283.074 193.850, 283.914 195.663 C 284.636 197.224, 286.076 205.627, 287.113 214.338 C 291.442 250.703, 297.101 267.310, 309.956 281.370 C 315.644 287.591, 317.418 291.577, 316.010 294.975 C 315.379 296.499, 310.506 301.283, 305.182 305.608 C 299.857 309.933, 288.724 320.075, 280.442 328.146 C 268.680 339.607, 264.519 343.053, 261.434 343.883 C 259.261 344.468, 247.362 345.382, 234.992 345.913 C 196.245 347.578, 191.106 349.526, 156.016 375.852 C 119.512 403.239, 107.608 427.060, 99.544 488.861 C 95.932 516.541, 95.935 516.532, 84.832 532.220 C 80.077 538.937, 75.311 544.164, 69.400 549.142 C 64.696 553.103, 58.084 559.754, 54.705 563.922 C 51.327 568.090, 44.935 575.325, 40.502 580 C 27.262 593.963, 22.165 602.173, 16.148 619.235 C 11.050 633.689, 9.704 643.797, 9.723 667.500 C 9.751 702.040, 13.196 711.329, 30.166 722.610 C 43.451 731.442, 56.279 734.460, 80 734.333 C 95.786 734.249, 107.003 732.397, 112.570 728.957 C 116.862 726.304, 121.476 721.083, 127.362 712.217 C 132.950 703.801, 146.532 688.498, 163.040 672.019 C 169.387 665.684, 175.986 658.700, 177.704 656.500 C 179.422 654.300, 181.179 652.850, 181.608 653.278 C 182.038 653.706, 182.723 666.531, 183.131 681.778 C 183.539 697.025, 184.799 719.400, 185.932 731.500 C 188.816 762.304, 188.709 775.654, 185.497 785.821 C 184.120 790.179, 181.233 799.765, 179.081 807.123 C 176.930 814.480, 173.330 826.350, 171.082 833.500 C 165.907 849.962, 161.446 871.581, 159.521 889.523 C 155.786 924.345, 156.089 922.686, 151.325 934.381 C 144.132 952.039, 141.433 956.482, 134.588 961.935 C 121.538 972.328, 113.742 982.095, 103.617 1000.734 C 95.653 1015.395, 90.900 1026.051, 88.111 1035.500 C 83.005 1052.795, 82.669 1090.454, 87.490 1104.970 C 88.470 1107.921, 90.791 1111.339, 93.879 1114.381 C 97.961 1118.401, 99.882 1119.460, 106.014 1121.070 C 120.130 1124.776, 149.240 1124.477, 166.819 1120.446 C 174.971 1118.576, 186.552 1113.210, 191.153 1109.170 C 194.933 1105.851, 200.201 1098.114, 206.379 1086.805 C 210.411 1079.424, 212.110 1077.952, 222.764 1072.606 C 227.256 1070.352, 233.127 1066.107, 238.147 1061.485 C 242.612 1057.373, 249.918 1051.582, 254.383 1048.615 C 264.560 1041.852, 268.475 1037.708, 279.831 1021.670 C 290.187 1007.045, 292.115 1002.608, 294.387 988.173 C 296.045 977.633, 297.258 974, 299.117 974 C 299.692 974, 302.039 975.526, 304.332 977.392 C 314.770 985.886, 370.529 1025.550, 379.500 1030.864 C 406.505 1046.858, 424.789 1055.646, 437.976 1058.969 C 454.862 1063.224, 460.002 1063.500, 522.500 1063.500 C 585.530 1063.500, 591.121 1063.194, 609 1058.774 C 618.306 1056.473, 646.976 1042.529, 666 1031.052 C 675.686 1025.209, 713.197 998.628, 736.202 981.305 C 741.538 977.287, 746.386 974, 746.976 974 C 748.611 974, 749.882 978.225, 751.513 989.090 C 753.546 1002.621, 755.404 1006.923, 765.111 1020.561 C 776.320 1036.310, 781.629 1041.948, 791.884 1048.991 C 796.623 1052.246, 803.875 1058.061, 808 1061.915 C 812.894 1066.487, 818.106 1070.191, 823 1072.576 C 834.231 1078.050, 835.264 1079.058, 841.596 1090.730 C 849.571 1105.432, 856.763 1112.606, 867.789 1116.858 C 872.191 1118.556, 877.752 1120.377, 880.147 1120.905 C 888.891 1122.833, 909.771 1124.250, 921.145 1123.686 C 955.130 1122.002, 961.530 1114.030, 961.432 1073.500 C 961.362 1044.588, 958.875 1033.688, 946.892 1009.785 C 935.229 986.518, 927.347 975.716, 913.216 963.630 C 903.446 955.274, 901.836 952.828, 894.706 935.500 C 889.484 922.810, 889.450 922.649, 887.478 900.898 C 884.794 871.303, 881.326 854.324, 871.569 823 C 860.658 787.972, 858.765 781.392, 857.905 775.500 C 856.976 769.142, 857.692 757.566, 861.088 724 C 862.174 713.275, 863.471 693.749, 863.971 680.609 C 864.519 666.226, 865.307 656.293, 865.950 655.650 C 866.708 654.892, 867.492 655.296, 868.649 657.041 C 869.545 658.393, 875.279 664.450, 881.389 670.500 C 896.175 685.138, 913.432 704.748, 919.671 714 C 926.417 724.005, 932.492 729.475, 939.007 731.409 C 947.880 734.044, 960.862 735.299, 973 734.695 C 997.482 733.476, 1010.173 728.745, 1023.138 716.005 C 1029.983 709.279, 1030.997 707.780, 1032.912 701.565 C 1037.244 687.507, 1037.489 650.882, 1033.378 632 C 1030.370 618.184, 1022.609 600.916, 1014.829 590.727 C 1008.049 581.849, 984.342 556.950, 968.395 541.959 C 961.800 535.759, 953.395 523.088, 950.844 515.500 C 949.920 512.750, 948.202 502.625, 947.026 493 C 941.829 450.460, 934.184 425.624, 920.293 406.158 C 910.111 391.889, 892.802 376.222, 872.422 362.826 C 850.145 348.184, 843.381 346.353, 807 345.118 C 790.281 344.550, 784.828 344.031, 782.479 342.787 C 780.818 341.906, 773.393 335.156, 765.979 327.787 C 758.566 320.418, 747.627 310.644, 741.671 306.068 C 735.715 301.491, 730.370 296.711, 729.794 295.447 C 728.171 291.884, 729.536 288.655, 735.559 281.809 C 748.765 266.798, 754.635 249.802, 758.457 215.500 C 760.552 196.709, 761.538 194.254, 768.449 190.650 C 774.912 187.279, 781.851 180.182, 785.331 173.383 C 788.400 167.385, 789.986 166.395, 801.416 163.336 C 816.290 159.355, 820.069 156.327, 828.665 141.500 C 840.560 120.984, 841.645 117.488, 842.635 96.500 C 843.235 83.771, 842.125 69.368, 839.846 60.309 C 838.533 55.088, 833.077 48.590, 827.705 45.850 C 821.597 42.733, 810.143 41.074, 794.474 41.035 C 771.011 40.977, 758.597 43.204, 738.726 51.039 C 714.451 60.610, 691.944 77.940, 678.964 97.053 C 673.320 105.364, 666.763 119.416, 662.603 132.116 C 658.642 144.206, 656.176 149.718, 654.427 150.390 C 653.372 150.795, 640.715 146.172, 626.772 140.289 C 619.944 137.408, 620.684 134.471, 631.504 121.500 C 635.174 117.100, 643.231 108.041, 649.408 101.369 C 660.035 89.889, 660.753 88.843, 662.790 81.869 C 666.983 67.513, 668.124 51.718, 665.959 38 C 662.915 18.716, 657.793 14.218, 636.340 11.986 C 620.917 10.382, 600.748 13.102, 590 18.235 C 583.846 21.174, 556.046 49.045, 543.098 65.256 C 537.495 72.272, 531.918 78.662, 530.705 79.456 C 529.492 80.250, 526.700 81.156, 524.500 81.470 C 517.660 82.447, 514.304 79.951, 502.348 65 C 489.565 49.014, 470.123 28.749, 461.051 21.955 C 453.428 16.246, 444.681 13.500, 429.383 12.013 C 418.442 10.949, 418.756 10.948, 407.500 12.070" stroke="none" fill="#F2E8BF" fill-rule="evenodd"/>
</svg>