<svg xmlns="http://www.w3.org/2000/svg" width="1191" height="1188" viewBox="0 0 1191 1188" version="1.1">
	<path d="M 357 8.648 C 341.642 10.954, 336.313 12.916, 330.063 18.562 C 324.666 23.438, 323.081 26.623, 321.422 35.918 C 319.994 43.927, 319.654 71.802, 320.880 80.500 C 321.649 85.964, 320.605 89.673, 318.069 90.478 C 317.173 90.762, 313.041 89.686, 308.885 88.085 C 287.811 79.970, 259.512 72.251, 241 69.568 C 212.578 65.449, 158.146 62.530, 135.434 63.908 C 97.785 66.191, 77.713 72.738, 54.688 90.244 C 30.601 108.558, 24.288 118.568, 15.968 151.636 C 10.353 173.957, 8.718 188.352, 8.773 215 C 8.861 257.624, 13.652 278.618, 37.528 341 C 55.484 387.917, 55.344 387.214, 56.972 438.059 C 59.238 508.820, 62.264 520.099, 93.977 576 C 106.610 598.268, 111.414 604.378, 130.855 622.908 C 159.034 649.765, 172.913 661.603, 188.301 671.906 C 199.862 679.648, 200.418 682.390, 192.504 692.656 C 161.747 732.555, 143.091 761.248, 136.095 779.416 C 129.561 796.385, 127 813.023, 127 838.500 C 127 866.462, 130.188 883.995, 138.599 902.292 C 143.970 913.977, 143.740 911.228, 142.497 948.789 C 141.380 982.555, 143.722 996.372, 154.170 1017.656 C 159.983 1029.499, 160.454 1033.230, 156.990 1040.020 C 154.411 1045.075, 141.412 1058.362, 129.586 1068.030 C 120.284 1075.635, 114.526 1083.362, 112.470 1091.002 C 108.705 1104.990, 108.476 1136.531, 112.022 1152.766 C 114.313 1163.255, 123.815 1173.127, 134.883 1176.518 C 143.168 1179.056, 177.243 1179.772, 189.409 1177.662 C 204.602 1175.029, 208.096 1172.702, 232.376 1149.052 C 244.134 1137.599, 255.723 1127.077, 258.127 1125.670 C 264.236 1122.098, 268.889 1121.269, 289.785 1120.035 C 316.561 1118.452, 334.192 1115.119, 363.648 1106.068 C 388.457 1098.445, 424.041 1084.136, 446 1072.953 C 477.585 1056.867, 506.553 1034.873, 527 1011.452 C 538.649 998.109, 538.762 998, 540.839 998 C 543.297 998, 544.711 1001.394, 547.501 1013.984 C 550.867 1029.172, 553.406 1035.248, 558.526 1040.368 C 562.247 1044.089, 564.180 1045.101, 571.208 1047.009 C 581.368 1049.768, 598.502 1050.708, 609 1049.084 C 621.660 1047.125, 627 1045.015, 632.104 1039.953 C 637.243 1034.856, 639.478 1029.311, 642.964 1013 C 646.594 996.012, 648.319 994.589, 655.386 1002.750 C 673.078 1023.178, 694.621 1042.501, 713.818 1055.160 C 746.764 1076.885, 795.076 1097.655, 843.622 1110.966 C 862.537 1116.153, 878.759 1118.742, 900.500 1120.046 C 920.169 1121.226, 925.209 1122.046, 931.016 1125.008 C 933.130 1126.087, 945.179 1136.812, 957.790 1148.843 C 983.426 1173.297, 986.208 1175.169, 1000.652 1177.673 C 1014.265 1180.033, 1047.016 1179.089, 1056.364 1176.068 C 1065.376 1173.155, 1073.715 1165.323, 1076.822 1156.856 C 1079.800 1148.740, 1081.361 1131.970, 1080.673 1115.500 C 1079.465 1086.574, 1076.677 1080.745, 1056.068 1064.055 C 1039.612 1050.728, 1031 1039.606, 1031 1031.679 C 1031 1029.637, 1033.216 1023.630, 1036.582 1016.548 C 1039.653 1010.089, 1043.260 1000.488, 1044.598 995.214 C 1048.131 981.284, 1049.395 960.604, 1047.972 940 C 1046.222 914.664, 1046.253 914.340, 1051.495 902.904 C 1060.218 883.876, 1062.984 868.369, 1062.984 838.500 C 1062.984 811.245, 1060.776 796.732, 1053.928 778.970 C 1048.010 763.621, 1029.603 734.480, 1007.478 705.432 C 1000.747 696.595, 994.475 687.886, 993.541 686.079 C 991.090 681.340, 992.852 677.796, 999.898 673.290 C 1013.521 664.578, 1026.507 653.691, 1055 627.097 C 1072.393 610.863, 1079.114 603.683, 1084.796 595.267 C 1088.049 590.449, 1098.741 571.678, 1111.436 548.500 C 1115.821 540.493, 1122.593 524.080, 1124.856 515.976 C 1130.533 495.639, 1131.631 485.379, 1133.479 435.391 C 1134.461 408.809, 1135.431 393.830, 1136.506 388.626 C 1138.529 378.832, 1143.872 363.337, 1155.170 334.500 C 1171.424 293.015, 1177.420 273.545, 1180.539 252.121 C 1182.991 235.277, 1182.126 186.375, 1179.088 170.009 C 1172.267 133.273, 1165.221 118.002, 1147.161 100.816 C 1120.558 75.499, 1099.030 66.722, 1056.735 63.949 C 1038.586 62.759, 1023.576 63.212, 985.500 66.096 C 942.743 69.335, 928.632 72.060, 894.500 83.668 C 884.050 87.222, 874.780 90.360, 873.899 90.642 C 873.019 90.924, 871.527 90.384, 870.585 89.442 C 869.087 87.944, 868.974 86.578, 869.686 78.614 C 870.870 65.354, 870.553 44.569, 869.041 36.500 C 867.448 27.995, 865.885 24.665, 861.140 19.665 C 853.237 11.340, 844.593 9.068, 817.881 8.298 C 795.982 7.667, 782.184 8.734, 763.500 12.506 C 727.853 19.703, 708.322 30.828, 677.489 61.500 C 648.580 90.258, 623.741 126.334, 607.218 163.563 C 594.621 191.944, 594.369 192.023, 584.983 170.500 C 549.062 88.131, 501.311 36.385, 443.900 17.615 C 432.149 13.773, 416.801 10.508, 403.500 9.022 C 395.068 8.080, 362.526 7.818, 357 8.648 M 412.227 136.242 C 412.710 137.764, 428.182 147.151, 428.947 146.386 C 429.244 146.089, 427.915 144.518, 425.994 142.895 C 420.287 138.075, 411.454 133.806, 412.227 136.242 M 772.427 137.507 C 767.108 140.191, 759.174 146.481, 760.019 147.343 C 760.530 147.863, 775.302 139.098, 777.328 137.072 C 779.493 134.907, 777.169 135.112, 772.427 137.507" stroke="none" fill="#F2E8BF" fill-rule="evenodd"/>
</svg>