<svg xmlns="http://www.w3.org/2000/svg" width="1152" height="1082" viewBox="0 0 1152 1082" version="1.1">
	<path d="M 632.963 8.092 C 585.559 10.685, 526.112 22.688, 472.500 40.490 C 423.931 56.617, 386.455 74.353, 349.593 98.656 C 326.149 114.112, 314.368 123.573, 284.500 150.934 C 249.128 183.337, 239.690 194.249, 218.274 227.500 C 191.853 268.524, 169.391 309.527, 155.130 342.764 C 148.920 357.237, 116.336 447.428, 111.692 463 C 96.417 514.215, 85.640 584.447, 81.653 658.762 C 80.700 676.511, 80.059 682.369, 78.949 683.480 C 77.946 684.482, 73.442 685.247, 64.496 685.933 C 39.304 687.864, 34.138 691.447, 30.386 709.591 C 28.149 720.409, 28.896 747.450, 31.711 757.573 C 34.055 766.002, 36.414 769.415, 44.216 775.673 C 52.716 782.491, 52.323 783.019, 35 788.033 C 28.636 789.876, 26.721 790.984, 22.360 795.352 C 14.700 803.023, 12.541 813.089, 13.231 837.907 C 13.833 859.546, 15.534 866.235, 22.323 873.663 C 25.222 876.835, 35.495 884.988, 45.779 892.278 C 57.589 900.650, 64.685 906.358, 65.789 908.375 C 67.247 911.038, 67.456 913.928, 67.200 927.916 C 66.851 947.023, 68.359 964.715, 71.091 973.561 C 74.687 985.202, 85.549 998.228, 98.807 1006.797 C 112.720 1015.790, 137.947 1025.117, 170.640 1033.357 C 299.641 1065.872, 439.374 1078.316, 638.282 1075.003 C 672.442 1074.434, 709.641 1073.546, 720.946 1073.030 C 732.251 1072.513, 755.450 1071.614, 772.500 1071.031 C 843.692 1068.596, 861.285 1067.804, 896.500 1065.453 C 941.830 1062.425, 950.122 1061.393, 985.500 1054.378 C 1034.573 1044.646, 1058.300 1037.853, 1080 1027.323 C 1090.201 1022.373, 1092.470 1020.769, 1100.088 1013.122 C 1112.960 1000.199, 1116.226 991.920, 1118.084 967.505 C 1119.753 945.565, 1117.917 926.925, 1112.886 914.724 C 1111.299 910.875, 1110 906.639, 1110 905.313 C 1110 901.953, 1112.434 897.592, 1118.131 890.747 C 1120.812 887.525, 1123.682 883.581, 1124.509 881.983 C 1127.768 875.681, 1129.255 864.896, 1129.331 847 C 1129.422 825.682, 1127.731 816.421, 1122.494 809.559 C 1116.981 802.337, 1115.712 799.266, 1116.869 795.946 C 1117.422 794.359, 1120.575 789.559, 1123.874 785.280 C 1129.006 778.623, 1130.185 776.273, 1132.040 769 C 1135.898 753.880, 1135.857 727.573, 1131.955 713.723 C 1130.536 708.685, 1125.792 703.464, 1119.310 699.806 C 1116.389 698.158, 1114 696.363, 1114 695.819 C 1114 695.274, 1117.976 690.929, 1122.835 686.164 C 1135.045 674.190, 1137.185 668.990, 1139.041 646.777 C 1140.633 627.732, 1139.504 613.435, 1134.597 590.500 C 1133.773 586.650, 1132.605 576.750, 1132.001 568.500 C 1130.190 543.757, 1127.736 536.417, 1118.213 527.266 C 1111.972 521.270, 1103.719 516.950, 1093.707 514.439 C 1088.157 513.047, 1086.652 512.228, 1085.479 509.959 C 1084.650 508.356, 1083.396 500.068, 1082.511 490.341 C 1078.921 450.895, 1072.273 407.499, 1061.925 355.948 C 1044.821 270.745, 1015.606 199.485, 976.468 147.500 C 915.387 66.370, 806.336 14.449, 683.500 8.014 C 662.434 6.910, 654.338 6.922, 632.963 8.092 M 766.607 380.582 C 765.653 383.068, 765.896 390.405, 767.042 393.690 C 768.136 396.830, 775.160 401.637, 776.996 400.503 C 778.671 399.467, 778.184 397.734, 773.533 388.177 C 769.082 379.031, 767.759 377.580, 766.607 380.582" stroke="none" fill="#F2E8BF" fill-rule="evenodd"/>
</svg>