<svg xmlns="http://www.w3.org/2000/svg" width="443" height="905" viewBox="0 0 443 905" version="1.1">
	<path d="M 189.376 12.004 C 173.128 13.395, 164.992 16.894, 157.610 25.665 C 152.329 31.940, 123.710 76.189, 122.306 80.249 C 116.580 96.815, 116.609 135.727, 122.356 146.681 C 124.948 151.621, 131.271 156.755, 139.178 160.340 C 147.608 164.162, 148.546 165.315, 151.458 175.441 C 153.566 182.770, 153.639 188.864, 151.663 192.684 C 150.836 194.283, 146.033 199.621, 140.988 204.546 C 135.944 209.471, 128.079 218.492, 123.509 224.594 C 118.940 230.696, 111.698 238.796, 107.417 242.594 C 91.488 256.723, 87.568 260.718, 80.849 269.665 C 77.063 274.706, 70.803 282.313, 66.937 286.569 C 59.013 295.293, 54.427 303.959, 48.451 321.500 C 43.798 335.157, 40.263 342.345, 33.372 352.156 C 24.122 365.326, 14.009 389.729, 11.959 403.825 C 11.150 409.385, 10.920 419.679, 11.265 434.825 C 11.730 455.234, 12.145 459.499, 15.415 477.500 C 20.984 508.157, 24.993 521.944, 50.453 598 C 63.433 636.775, 75.381 673.225, 77.004 679 C 78.627 684.775, 81.322 698.889, 82.994 710.363 C 88.178 745.961, 91.750 758.826, 102.473 780.525 C 116.530 808.970, 139.089 838.297, 159.500 854.661 C 181.898 872.618, 216.211 887.690, 249.304 894.106 C 270.492 898.215, 299.486 898.727, 322.500 895.399 C 336.452 893.382, 397.267 877.886, 404.294 874.558 C 412.477 870.681, 421.292 862.196, 424.967 854.659 C 428.350 847.719, 431.410 835.606, 432.957 823.026 C 434.185 813.050, 434.226 768.014, 433.019 756.500 C 431.738 744.296, 430.100 678.712, 428.997 595.500 C 427.777 503.507, 425.222 461.203, 418.473 421.225 C 412.879 388.092, 405.481 368.674, 391.527 350.500 C 384.113 340.844, 382.064 337.147, 371.082 313.626 C 365.539 301.755, 355.832 287.341, 332.868 256.883 C 324.734 246.093, 317.551 236.110, 316.908 234.697 C 314.120 228.578, 318.034 227.599, 330.001 231.422 C 341.685 235.154, 352.198 236.296, 369.776 235.742 C 380.591 235.402, 387.177 234.717, 390.873 233.548 C 397.691 231.392, 405.025 224.694, 407.910 217.987 C 416.715 197.521, 418.786 139.848, 411.939 105.824 C 409.362 93.015, 407.089 88.031, 400.782 81.363 C 392.188 72.276, 387.856 70.304, 359 62.341 C 335.813 55.943, 304.982 44.983, 288.500 37.279 C 270.967 29.084, 253.847 21.685, 243.621 17.884 C 229.860 12.769, 208.057 10.405, 189.376 12.004" stroke="none" fill="#F2E8BF" fill-rule="evenodd"/>
</svg>