<svg xmlns="http://www.w3.org/2000/svg" width="646" height="745" viewBox="0 0 646 745" version="1.1">
	<path d="M 297 8.044 C 275.671 9.894, 253.106 14.239, 237.212 19.556 C 232.970 20.975, 224.301 24.737, 217.946 27.915 C 205.774 34.003, 207.023 33.693, 179.438 37.491 C 138.540 43.122, 103.808 67.806, 82.576 106.331 C 80.397 110.285, 76.447 115.340, 73.198 118.331 C 34.114 154.318, 19.113 176.776, 11.965 210 C 9.956 219.335, 9.704 223.330, 9.689 246 C 9.674 268.467, 9.920 272.511, 11.751 280 C 14.648 291.843, 15.821 301.911, 16.480 320.600 C 17.328 344.629, 21.093 363.579, 28.479 380.999 C 32.279 389.960, 32.642 396.387, 30.032 408.500 C 25.400 429.992, 25.556 465.670, 30.425 499 C 35.298 532.349, 37.632 540.614, 47.907 560.897 C 54.759 574.423, 56.051 578.497, 59.517 597.500 C 62.843 615.735, 65.378 624.806, 69.718 634 C 72.677 640.268, 75.085 643.308, 84.379 652.506 C 92.628 660.669, 96.747 665.670, 100.330 671.870 C 105.378 680.606, 115.075 691.209, 123.002 696.660 C 129.824 701.350, 160.954 719.534, 165.500 721.485 C 178.115 726.896, 189.277 729.893, 207 732.629 C 218.362 734.383, 237.619 734.799, 332 735.331 C 355.262 735.462, 362.244 734.539, 377.933 729.264 C 403.966 720.511, 416.935 713.575, 428.629 702.152 C 436.678 694.288, 440.336 692.561, 456.744 688.873 C 489.588 681.492, 501.038 674.189, 538 637.047 C 553.044 621.929, 560.184 612.820, 568.996 597.500 C 576.169 585.030, 577.975 582.870, 586.925 576.057 C 601.265 565.141, 606.929 556.796, 616.856 531.957 C 625.733 509.747, 631.083 489.753, 634.640 465.500 C 636.850 450.428, 637.194 400.791, 635.191 386.029 C 633.674 374.853, 633.587 357.889, 634.985 346 C 636.474 333.345, 636.204 291.791, 634.514 273.500 C 631.430 240.111, 626.290 222.117, 611.759 193.834 C 603.458 177.678, 593.442 163.936, 578.108 147.666 C 571.974 141.157, 566.123 134.182, 565.107 132.166 C 564.091 130.150, 561.599 123.327, 559.570 117.005 C 557.540 110.682, 554.525 102.845, 552.871 99.589 C 541.086 76.399, 507.353 50.627, 469.061 35.559 C 456.491 30.613, 439.291 25.731, 421.268 21.994 C 413.146 20.310, 399.750 17.171, 391.500 15.019 C 383.250 12.867, 371.775 10.386, 366 9.507 C 353.386 7.587, 312.309 6.716, 297 8.044" stroke="none" fill="#F2E8BF" fill-rule="evenodd"/>
</svg>