<svg xmlns="http://www.w3.org/2000/svg" width="993" height="975" viewBox="0 0 993 975" version="1.1">
	<path d="M 587.500 9.088 C 576.319 10.237, 563.856 13.206, 539.500 20.524 C 514.788 27.950, 506.039 31.551, 490.104 40.858 C 478.892 47.407, 470.655 51.433, 456 57.528 C 445.395 61.939, 436.967 66.488, 429 72.102 C 420.651 77.986, 393.304 104.329, 386.817 112.737 C 381.582 119.523, 375.853 122.500, 358.500 127.453 C 331.167 135.255, 310.149 142.288, 301.057 146.676 C 293.293 150.422, 290.270 152.599, 284.057 158.918 C 274.896 168.234, 270.468 175.812, 259.275 201.328 C 249.884 222.735, 243.078 241.963, 240.077 255.569 C 237.262 268.327, 235.005 286.564, 234.973 296.801 C 234.931 310.406, 233.360 323.629, 231.327 327.507 C 230.322 329.423, 224.506 338.305, 218.403 347.245 C 204.682 367.343, 196.168 381.686, 186.635 400.762 C 173.646 426.755, 170.253 436.889, 165.470 463.980 C 163.433 475.517, 162.324 479.380, 160.017 482.980 C 152.578 494.591, 148.102 509.004, 146.503 526.500 C 145.700 535.283, 144.335 538.907, 141.623 539.454 C 140.456 539.690, 136.350 540.420, 132.500 541.077 C 122.691 542.751, 113.673 545.643, 105.500 549.737 C 96.115 554.438, 84.146 566.570, 78.086 577.522 C 75.659 581.910, 70.435 590.225, 66.478 596 C 52.586 616.277, 50.930 625.597, 50.655 685.097 C 50.533 711.492, 50.213 719.039, 49.163 720.304 C 48.427 721.190, 44.602 723.691, 40.663 725.862 C 31.668 730.819, 22.466 739.156, 18.268 746.152 C 11.315 757.738, 8.030 782.877, 9.931 809.947 C 11.656 834.494, 16.858 849.027, 29.582 864.846 C 42.391 880.772, 58.742 892.739, 87 906.871 C 114.867 920.808, 137.675 928.727, 192.500 943.502 C 270.571 964.541, 283.928 966.747, 339 967.702 C 419.857 969.104, 479.568 958.088, 557 927.481 C 582.032 917.587, 593.552 910.586, 607.050 897.066 C 622.771 881.318, 626.709 870.237, 627.683 839 C 628.798 803.245, 624.642 785.089, 611.918 770.132 C 603.390 760.107, 603.510 760.333, 606.005 758.997 C 607.652 758.116, 612.839 758.243, 628.153 759.538 C 653.145 761.651, 707.284 761.140, 730 758.576 C 797.569 750.950, 860.852 734.719, 905.592 713.540 C 920.124 706.661, 926.872 701.962, 936.096 692.301 C 949.839 677.906, 952.414 669.284, 952.465 637.500 C 952.527 598.719, 948.525 589.746, 920.054 564.826 C 915.078 560.470, 914.753 559.911, 915.287 556.620 C 915.602 554.678, 917.645 550.031, 919.828 546.294 C 929.301 530.073, 942.855 501.674, 947.412 488.500 C 950.075 480.800, 955.520 465.950, 959.511 455.500 C 974.753 415.592, 980.572 389.758, 983.180 350.417 C 985.156 320.619, 982.910 297.359, 974.955 265.243 C 965.727 227.991, 955.369 206.516, 935.581 183.616 C 927.354 174.096, 926.208 172.181, 919.029 155.955 C 910.227 136.065, 900.099 123.068, 882.080 108.540 C 875.711 103.405, 866.675 95.290, 862 90.506 C 857.325 85.722, 848.325 77.248, 842 71.676 C 835.675 66.103, 825.979 57.259, 820.453 52.022 C 803.567 36.018, 794.366 32.049, 761 26.378 C 749.725 24.462, 734.875 21.584, 728 19.984 C 709.727 15.730, 699.742 14.215, 678.500 12.477 C 668.050 11.621, 652.300 10.266, 643.500 9.465 C 626.438 7.911, 600.640 7.738, 587.500 9.088" stroke="none" fill="#F2E8BF" fill-rule="evenodd"/>
</svg>