<svg xmlns="http://www.w3.org/2000/svg" width="1194" height="1133" viewBox="0 0 1194 1133" version="1.1">
	<path d="M 326.536 9.113 C 320.088 10.052, 312.251 12.384, 307.558 14.760 C 299.250 18.967, 287.276 34.058, 277.090 53.158 C 265.645 74.622, 251.738 110.309, 249.017 125.201 C 246.976 136.365, 250.631 135.439, 208.350 135.502 C 169.212 135.561, 163.328 136.095, 146.512 141.116 C 136.837 144.004, 132.519 146.396, 126.220 152.354 C 116.159 161.869, 113.823 170.555, 113.812 198.500 C 113.803 221.524, 115.341 230.864, 123.013 254.376 C 128.150 270.119, 128.868 273.196, 127.902 275.315 C 126.703 277.946, 126.029 278.292, 108 285.520 C 78.320 297.419, 45.271 319.237, 31.441 336.061 C 23.269 346.002, 21.052 355.674, 21.020 381.526 C 20.980 413.953, 24.699 426.210, 43.064 454.178 C 48.705 462.769, 49.893 466.088, 48.235 468.624 C 47.831 469.242, 43.881 471.562, 39.458 473.780 C 17.073 485.006, 12.698 493.717, 12.731 527 C 12.750 546.825, 14.332 557.105, 18.728 565.976 C 24.052 576.720, 60.289 610.735, 84.899 628.091 C 88.726 630.790, 91.409 633.581, 92.498 635.995 C 94.110 639.570, 94.094 639.895, 92.123 643.760 C 90.991 645.978, 83.617 656.845, 75.737 667.908 C 58.916 691.523, 55.974 696.224, 51.476 706.681 C 44.205 723.583, 42.047 736.966, 42.020 765.308 C 41.984 802.786, 45.826 816.103, 60.677 829.972 C 77.206 845.408, 118.373 861.332, 158.803 867.928 C 170.353 869.812, 174.752 871.156, 176.098 873.213 C 176.427 873.715, 173.858 881.186, 170.390 889.813 C 159.195 917.661, 156.982 928.712, 157.038 956.500 C 157.090 982.638, 159.890 993.119, 169.011 1001.320 C 176.899 1008.412, 188.343 1010.952, 212.500 1010.972 C 236.150 1010.992, 247.451 1009.127, 276.935 1000.343 C 288.834 996.797, 292.957 995.950, 294.934 996.646 C 297.121 997.415, 298.175 999.462, 302.081 1010.524 C 310.684 1034.893, 321.406 1052.609, 336.906 1068.069 C 347.442 1078.579, 351.152 1080.749, 363.500 1083.628 C 369.964 1085.136, 375.340 1085.482, 391.500 1085.430 C 413.547 1085.360, 422.370 1084.138, 437.043 1079.122 C 447.521 1075.540, 480.309 1061.288, 496.887 1053.110 C 503.699 1049.750, 510.600 1047, 512.222 1047 C 516.331 1047, 519.332 1050.498, 531.954 1070 C 548.812 1096.047, 554.696 1101.266, 570.894 1104.542 C 581.982 1106.784, 618.117 1106.163, 627.500 1103.569 C 636.433 1101.099, 646.561 1096.153, 654.848 1090.213 C 665.552 1082.542, 669.593 1080.682, 674.216 1081.302 C 676.634 1081.626, 683.417 1085.007, 692.293 1090.311 C 725.308 1110.041, 740.466 1117.897, 750.500 1120.483 C 764.216 1124.016, 798.762 1124.258, 812.620 1120.918 C 824.764 1117.991, 835.660 1110.442, 847.695 1096.617 C 859.427 1083.140, 866.428 1069.052, 870.999 1049.723 C 874.309 1035.727, 876.332 1029.763, 878.146 1028.650 C 879.380 1027.894, 884.766 1029.307, 899.646 1034.292 C 939.765 1047.733, 956.366 1050.466, 998 1050.486 C 1023.206 1050.498, 1028.446 1050.241, 1034 1048.721 C 1055.688 1042.785, 1063.431 1027.257, 1065.990 984.568 C 1067.073 966.510, 1066.033 942.087, 1063.517 926.451 C 1059.592 902.058, 1050.356 874.649, 1037.267 848.549 L 1032.778 839.598 1034.960 837.831 C 1037.392 835.862, 1038.385 835.655, 1055.715 833.504 C 1080.567 830.420, 1111.957 823.763, 1121.455 819.562 C 1124.241 818.330, 1128.718 815.124, 1131.404 812.438 C 1138.949 804.894, 1140.650 799.809, 1141.928 781 C 1144.930 736.803, 1134.521 696.448, 1108.234 650.373 C 1096.004 628.936, 1094.574 625.835, 1095.398 622.550 C 1096.379 618.642, 1098.526 616.976, 1118.705 604.472 C 1158.124 580.044, 1174.778 566.556, 1178.804 555.795 C 1184.395 540.850, 1184.489 501.455, 1178.972 485.417 C 1176.537 478.340, 1172.058 471.970, 1163.919 464.005 C 1160.263 460.427, 1156.715 456.433, 1156.035 455.128 C 1154.259 451.719, 1155.383 447.763, 1160.438 439.641 C 1166.231 430.333, 1170.546 420.961, 1172.471 413.505 C 1175.013 403.655, 1176.211 381.998, 1175.026 367.317 C 1173.661 350.416, 1171.506 342.865, 1165.748 334.795 C 1158.574 324.743, 1140.587 308.380, 1128.088 300.538 C 1110.503 289.506, 1087.111 281.920, 1060 278.458 C 1046.341 276.714, 1042.507 275.151, 1043.347 271.669 C 1045.654 262.114, 1049.272 240.364, 1051.111 225 C 1052.890 210.137, 1053.342 200.799, 1053.410 177.500 C 1053.498 147.238, 1052.826 139.804, 1048.850 127 C 1046.276 118.713, 1044.214 115.410, 1037.974 109.573 C 1032.300 104.265, 1027.445 101.838, 1017.404 99.291 C 1007.128 96.684, 963.160 96.716, 951 99.339 C 939.596 101.798, 927.554 105.266, 915.709 109.500 C 905.032 113.317, 900.589 113.801, 897.312 111.506 C 896.139 110.684, 892.882 105.752, 890.075 100.545 C 875.975 74.388, 855.227 50.543, 830.768 32.382 C 812.391 18.738, 804.340 15.635, 783 13.973 C 767.992 12.804, 747.864 14.141, 737.311 17.007 C 723.766 20.687, 700.576 32.840, 681.500 46.257 C 668.283 55.553, 665.621 56.667, 661.414 54.661 C 659.611 53.800, 655.698 49.792, 652.452 45.479 C 644.969 35.536, 632.932 23.444, 625.996 18.900 C 614.878 11.617, 602.432 9.471, 576 10.280 C 557.435 10.848, 550.496 12.102, 541.500 16.513 C 534.268 20.059, 521.028 30.257, 509.294 41.318 C 499.119 50.910, 496.031 52.727, 491.731 51.647 C 490.483 51.334, 483.846 47.445, 476.981 43.005 C 448.798 24.774, 419.035 13.860, 385.699 9.532 C 372.805 7.858, 336.896 7.604, 326.536 9.113" stroke="none" fill="#F2E8BF" fill-rule="evenodd"/>
</svg>