<svg xmlns="http://www.w3.org/2000/svg" width="786" height="993" viewBox="0 0 786 993" version="1.1">
	<path d="M 491.500 9.148 C 480.935 10.320, 469.994 13.112, 460.528 17.053 C 452.710 20.308, 439.966 29.072, 434.500 34.955 C 429.095 40.771, 424.623 42.438, 414.500 42.410 C 409.550 42.396, 403.671 41.853, 401.437 41.204 C 399.202 40.555, 391.665 36.236, 384.689 31.606 C 358.217 14.039, 339.417 9.339, 299.267 10.252 C 280.083 10.689, 276.346 11.052, 267.776 13.310 C 243.568 19.688, 228.372 32.843, 210.087 63.251 C 200.618 78.998, 195.879 88.614, 191.975 100 C 187.414 113.302, 185.797 116.160, 178.194 124.361 C 164.142 139.518, 160.502 151.601, 157.968 191.500 C 156.750 210.663, 155.817 215.941, 152.778 220.859 C 151.615 222.742, 141.788 233.419, 130.940 244.586 C 111.010 265.104, 103.314 273.929, 94.571 286.288 C 89.260 293.798, 86.903 295.328, 73.200 300.159 C 53.468 307.117, 42.002 315.774, 32.585 330.827 C 21.741 348.160, 16.644 381.068, 18.982 418.658 C 21.403 457.586, 29.288 479.317, 49.829 503.667 C 60.141 515.892, 60.506 516.968, 60.463 535 C 60.419 553.008, 59.552 556.794, 52.020 571.863 C 39.272 597.368, 29.092 629.837, 20.613 672.041 C 11.124 719.270, 7.338 765.281, 8.315 821.500 C 9.027 862.449, 11.258 880.517, 18.196 901.500 C 26.160 925.588, 42.930 946.075, 62.412 955.517 C 78.438 963.285, 89.185 965.360, 165.500 975.421 C 227.145 983.547, 229.791 983.844, 251 985.004 C 273.319 986.225, 433.912 986.177, 448.500 984.944 C 454.550 984.433, 486.950 983.590, 520.500 983.071 C 608.637 981.708, 643.243 978.774, 681.781 969.401 C 734.538 956.568, 756.570 935.189, 767.959 885.777 C 770.817 873.378, 774.732 845.122, 776.072 827.229 C 777.585 807.024, 776.749 756.165, 774.668 741.822 C 768.669 700.484, 746.246 628.665, 725.237 583.500 C 713.765 558.837, 713.849 559.200, 712.962 530.500 C 711.879 495.436, 710.177 489.942, 695.645 474.599 C 692.570 471.353, 689.542 467.142, 688.914 465.240 C 687.687 461.522, 687.806 460.450, 691.049 446 C 694.069 432.542, 694.988 391.087, 692.579 377 C 687.291 346.086, 674.503 331.448, 642.763 319.978 C 636.756 317.807, 633.254 315.903, 631.554 313.882 C 628.280 309.991, 621.887 290.183, 621.264 282 C 620.879 276.932, 621.454 272.636, 623.877 262.500 C 628.313 243.941, 629.818 233.203, 630.570 214.731 C 631.727 186.300, 628.387 158.562, 621.532 139.680 C 618.680 131.826, 617.464 123.123, 615.985 100 C 613.674 63.877, 607.695 48.395, 589.345 31.025 C 575.663 18.074, 559.812 11.543, 535.969 9.032 C 524.733 7.849, 502.704 7.906, 491.500 9.148" stroke="none" fill="#F2E8BF" fill-rule="evenodd"/>
</svg>