<svg xmlns="http://www.w3.org/2000/svg" width="700" height="984" viewBox="0 0 700 984" version="1.1">
	<path d="M 619 11.619 C 617.075 11.843, 609.650 12.911, 602.500 13.994 C 578.289 17.659, 561.581 19.088, 520.500 21.007 C 415.177 25.927, 351.442 35.142, 294.500 53.685 C 237.469 72.257, 188.018 101.081, 142 142.578 C 66.659 210.515, 24.251 287.636, 11.442 380 C 10.424 387.338, 9.648 402.544, 9.298 422.016 C 8.842 447.313, 9.041 454.838, 10.462 466.016 C 14.933 501.204, 34.114 558.824, 52.567 592.500 C 62.162 610.013, 73.572 626.553, 93.956 652.500 C 113.487 677.362, 131.271 697.553, 142.256 707.338 C 153.894 717.704, 154.171 718.999, 151.497 750.500 C 148.753 782.822, 147.502 841.697, 148.805 877.220 C 150.850 932.994, 153.142 944.367, 164.928 957.241 C 176.163 969.513, 191.666 973.978, 223 973.967 C 257.117 973.955, 272.606 970.160, 284.519 958.894 C 294.591 949.368, 298.161 938.543, 300.202 911.332 C 301.360 895.900, 301.228 891.564, 297.869 835 C 296.743 816.023, 297.280 772.672, 298.938 748.709 C 300.100 731.923, 300.196 731.786, 312.714 729.013 C 357.529 719.086, 375.503 714.182, 398.934 705.492 C 438.418 690.848, 473.439 671.217, 504.500 646.318 C 531.122 624.977, 561.044 592.649, 582.387 562.166 C 632.609 490.438, 666.382 407.865, 678.981 326 C 684.415 290.688, 685.766 265.090, 686.978 174.500 C 687.479 137.100, 688.452 94.661, 689.140 80.192 C 690.110 59.809, 690.128 51.589, 689.218 43.692 C 687.583 29.505, 686.394 26.347, 680.424 20.333 C 672.793 12.644, 669.215 11.785, 643.500 11.470 C 631.950 11.328, 620.925 11.395, 619 11.619" stroke="none" fill="#F2E8BF" fill-rule="evenodd"/>
</svg>