<svg xmlns="http://www.w3.org/2000/svg" width="656" height="1125" viewBox="0 0 656 1125" version="1.1">
	<path d="M 212.539 12.112 C 193.046 14.952, 184.402 21.481, 146.951 61.651 C 117.988 92.717, 100.620 115.357, 96.616 127.265 C 92.946 138.177, 91.572 160.778, 93.337 181.163 C 94.122 190.225, 94.044 190.956, 92.087 192.913 C 90.382 194.618, 88.761 195, 83.224 195 C 68.205 195, 51.124 198.359, 44.732 202.570 C 39.687 205.894, 28.888 219.712, 24.085 228.991 C 19.273 238.288, 14.819 250.834, 12.367 262 C 9.655 274.349, 9.617 322.737, 12.310 334.214 C 16.816 353.416, 24.238 365.303, 42.883 383.180 C 57.267 396.971, 58.663 398.873, 56.887 402.250 C 56.237 403.488, 47.051 413.050, 36.475 423.500 C 16.223 443.511, 14.694 445.608, 11.621 457.596 C 8.551 469.570, 7.716 484.489, 8.325 516.500 C 9.092 556.828, 11.321 585.910, 15.609 611.500 C 20.683 641.779, 29.295 661.862, 43.714 677.040 C 51.636 685.378, 62.623 693.764, 68.617 696.046 C 70.203 696.650, 74.875 697.809, 79 698.621 C 90.058 700.798, 93.518 702.547, 95.291 706.855 C 100.484 719.469, 104.981 741.730, 105.017 755 C 105.058 770.280, 106.427 776.394, 112.544 788.615 C 117.263 798.043, 118.332 801.229, 119.587 809.615 C 121.443 822.004, 122.372 825.459, 126.590 835.650 C 128.903 841.238, 130.646 848.030, 132.085 857.062 C 134.664 873.259, 135.794 876.570, 141.407 884.370 C 148.405 894.097, 154.207 899.077, 164.280 904 C 177.050 910.242, 177.483 911.129, 178.894 934 C 179.941 950.956, 181.056 957.953, 184.708 970.470 C 186.115 975.291, 187.695 977.759, 192.921 983.300 C 200.956 991.816, 204.034 993.403, 217.650 996.042 C 230.691 998.570, 233.727 999.651, 235.522 1002.403 C 236.274 1003.557, 237.778 1011.475, 238.864 1020 C 239.950 1028.525, 241.968 1039.100, 243.348 1043.500 C 244.728 1047.900, 246.357 1053.525, 246.967 1056 C 251.694 1075.170, 257.758 1084.885, 268.687 1090.801 C 271.884 1092.531, 277.425 1096.470, 281 1099.553 C 293.728 1110.532, 300.618 1112.437, 327.500 1112.409 C 353.933 1112.382, 361.331 1110.332, 374.767 1099.315 C 378.470 1096.279, 383.525 1092.639, 386 1091.226 C 398.095 1084.322, 403.426 1076.611, 408.072 1059.302 C 409.223 1055.011, 411.259 1047.972, 412.595 1043.660 C 413.931 1039.348, 415.905 1028.882, 416.981 1020.402 C 418.057 1011.922, 419.415 1004.092, 419.999 1003.002 C 421.565 1000.077, 425.542 998.439, 434.500 997.033 C 449.179 994.729, 454.397 992.569, 460.672 986.202 C 463.763 983.066, 467.335 978.925, 468.611 977 C 472.155 971.651, 475.790 952.872, 477.058 933.352 C 478.494 911.255, 478.975 910.299, 491.885 903.850 C 502.404 898.597, 507.769 893.858, 514.944 883.483 C 520.467 875.498, 521.142 873.419, 523.990 855.602 C 525.433 846.578, 527.052 840.421, 529.380 835.102 C 533.039 826.743, 534.260 822.076, 536.403 808.277 C 537.587 800.646, 538.698 797.452, 542.836 789.777 C 548.789 778.737, 550.984 769.506, 551.036 755.292 C 551.085 742.075, 555.056 721.189, 560.277 706.697 C 561.318 703.806, 567.298 700, 570.800 700 C 571.834 700, 576.240 699.090, 580.590 697.978 C 601.672 692.591, 621.105 671.706, 632.475 642.217 C 641.278 619.387, 644.213 597.075, 647.102 531 C 648.741 493.514, 647.427 467.542, 643.181 453.472 C 640.377 444.182, 633.216 435.589, 612.500 416.659 C 598.993 404.316, 597.328 402.036, 598.957 398.105 C 599.606 396.537, 604.911 390.815, 610.745 385.389 C 629.636 367.823, 637.944 355.267, 642.716 337.070 C 644.915 328.686, 645.290 324.758, 645.740 305.380 C 646.464 274.161, 643.952 256.819, 636.004 238.161 C 629.494 222.879, 616.523 205.390, 608.698 201.344 C 603.720 198.770, 588.132 196.027, 578.399 196.013 C 562.771 195.991, 560.359 193.967, 562.161 182.394 C 563.703 172.488, 562.726 141.184, 560.598 132.328 C 556.904 116.953, 541.687 96.627, 503.195 55.655 C 483.020 34.179, 468.642 21.173, 460.681 17.198 C 447.190 10.460, 410.981 9.027, 393.934 14.557 C 391.295 15.413, 387.769 17.676, 385.577 19.921 C 379.729 25.910, 377.941 33.531, 377.273 55.307 C 376.693 74.255, 375.931 77.126, 371.500 77.062 C 370.400 77.046, 349.700 76.794, 325.500 76.501 C 285.883 76.023, 281.375 75.803, 280.250 74.294 C 279.563 73.372, 279.002 71.691, 279.005 70.559 C 279.071 40.468, 276.997 27.216, 271.219 20.821 C 266.568 15.672, 263.287 14.064, 254.082 12.422 C 245.705 10.928, 221.888 10.750, 212.539 12.112 M 516.282 543.245 C 512.348 545.076, 511.500 549.998, 511.500 571 C 511.500 587.921, 511.739 590.938, 513.308 593.812 C 515.663 598.127, 518.097 597.636, 519.880 592.486 C 521.976 586.432, 522.076 545.635, 520 543.648 C 518.871 542.568, 517.952 542.468, 516.282 543.245 M 135.246 544.680 C 134.835 545.681, 134.537 556.175, 134.582 568 C 134.650 585.629, 134.961 590.189, 136.313 593.327 C 138.575 598.575, 140.982 597.943, 143.284 591.496 C 144.831 587.165, 145.003 584.060, 144.573 568.159 C 144.157 552.763, 143.782 549.310, 142.238 546.659 C 140.106 542.997, 136.368 541.939, 135.246 544.680" stroke="none" fill="#F2E8BF" fill-rule="evenodd"/>
</svg>