<svg xmlns="http://www.w3.org/2000/svg" width="865" height="1072" viewBox="0 0 865 1072" version="1.1">
	<path d="M 303.500 8.125 C 223.574 14.923, 156.310 45.227, 102.579 98.648 C 46.610 154.294, 16.194 222.024, 9.910 305 C 8.464 324.092, 9.310 370.939, 11.382 386.500 C 20.904 458.036, 45.981 513.920, 90.910 563.730 C 144.886 623.569, 217.827 658.832, 302.521 666.032 C 319.518 667.477, 370.258 666.811, 387.142 664.922 C 403.996 663.035, 405.509 663.620, 412.726 674.806 C 420.591 686.998, 421.648 689.834, 424.495 706.373 C 425.881 714.426, 427.642 722.836, 428.409 725.062 C 432.293 736.333, 442.151 744.751, 457 749.476 C 469.101 753.326, 469.224 753.463, 485.527 781.187 C 559.065 906.251, 595.466 963.438, 620.941 993.929 C 655.223 1034.960, 685.102 1055.226, 720.500 1061.456 C 733.067 1063.668, 759.013 1064.489, 773.594 1063.136 C 799.051 1060.775, 816.466 1054.050, 829.933 1041.381 C 849.411 1023.058, 855.378 1004.669, 855.367 963 C 855.360 937.891, 854.057 927.599, 848.782 911 C 842.418 890.973, 834.754 877.142, 806.667 835 C 764.920 772.363, 736.846 734.054, 687.546 672.453 C 646.324 620.946, 648.100 623.906, 645.491 602.356 C 642.492 577.581, 637.611 569.784, 618.960 559.979 C 610.580 555.573, 608.549 554.036, 606.938 550.879 C 603.246 543.642, 604.145 540.996, 616.918 521.500 C 625.291 508.719, 639.185 481.117, 644.855 466 C 655.035 438.857, 661.392 410.933, 665.117 377 C 666.762 362.013, 666.761 311.983, 665.116 297 C 659.788 248.480, 646.820 205.304, 626.820 169.500 C 611.882 142.757, 595.735 121.589, 573.043 99 C 518.140 44.347, 452.166 14.840, 369.696 8.054 C 354.942 6.840, 318.150 6.879, 303.500 8.125" stroke="none" fill="#F2E8BF" fill-rule="evenodd"/>
</svg>