<svg xmlns="http://www.w3.org/2000/svg" width="714" height="1223" viewBox="0 0 714 1223" version="1.1">
	<path d="M 242.702 11.525 C 232.980 13.362, 230.590 14.593, 224.865 20.713 C 217.525 28.561, 214.838 38.016, 211.285 68.500 C 209.840 80.900, 209.511 93.292, 209.390 140 C 209.310 171.075, 209.189 197.063, 209.122 197.750 C 208.921 199.813, 206.504 199.168, 203.924 196.364 C 199.879 191.965, 191.653 187.224, 185.141 185.537 C 170.832 181.829, 141.332 181.839, 128.083 185.557 C 117.355 188.567, 110.313 196.532, 106.029 210.500 C 95.664 244.296, 95.852 309.092, 106.420 345 L 108.922 353.500 106.889 355.218 C 105.772 356.163, 103.427 357.148, 101.679 357.406 C 80.250 360.572, 78.676 360.999, 72.318 365.366 C 59.966 373.849, 55.616 385.619, 54.343 414 C 53.220 439.041, 56.561 463.698, 64.441 488.529 C 67.674 498.715, 67.723 499.120, 66 501.248 C 64.376 503.254, 63.005 503.504, 50.360 504.106 C 34.387 504.866, 27.981 506.123, 22.831 509.509 C 13.088 515.914, 10.681 524.226, 10.671 551.500 C 10.660 580.407, 13.114 591.150, 25.520 616.500 C 46.865 660.117, 78.707 692.699, 122.722 715.961 C 132.208 720.974, 132.075 722.965, 121.515 734 C 111.515 744.450, 108.816 751.691, 106.944 773.086 C 105.264 792.284, 106.939 813.139, 112.044 836.597 C 123.151 887.636, 132.098 919.822, 152.046 980.500 C 163.420 1015.099, 185.786 1078.149, 195.678 1103.500 C 207.251 1133.159, 224.147 1164.015, 236.499 1178.047 C 250.980 1194.498, 264.907 1202.088, 293.392 1209.052 C 314.321 1214.169, 329.133 1215.394, 370.500 1215.431 C 417.249 1215.472, 429.244 1213.981, 455.877 1204.819 C 474.029 1198.574, 484.168 1192.675, 493.651 1182.841 C 503.744 1172.375, 507.337 1164.962, 517.807 1133 C 545.465 1048.562, 572.858 944.955, 594.346 843.500 C 602.124 806.779, 602.407 804.508, 602.385 779 C 602.357 745.313, 600.274 738.125, 586.574 724.429 C 573.462 711.321, 564.813 707.547, 532.500 700.837 C 490.321 692.078, 457.771 687.431, 418.500 684.563 C 398.771 683.123, 396.491 682.721, 395.653 680.539 C 395.004 678.846, 402.614 665.442, 409.284 656.532 C 415.997 647.564, 420.631 645.175, 441.500 639.926 C 463.165 634.477, 471.257 634.414, 493.529 639.522 C 526.736 647.137, 534.069 648.106, 563 648.696 C 584.576 649.136, 591.593 648.929, 600.762 647.582 C 628.408 643.521, 644.335 634.503, 671.557 607.500 C 689.926 589.279, 695.726 581.030, 699.911 567.175 C 704.578 551.725, 705.500 543.116, 705.500 515 C 705.500 486.115, 704.915 481.213, 698.360 455.196 C 692.981 433.847, 692.889 429.959, 697.448 416.602 C 702.338 402.273, 703.259 395.831, 703.248 376 C 703.235 352.312, 701.743 345.723, 694.711 338.288 C 690.483 333.817, 688.527 332.598, 682.585 330.729 C 676.154 328.706, 673.515 328.504, 654 328.540 C 631.366 328.582, 624.743 329.363, 603.170 334.527 C 585.153 338.840, 583.819 338.163, 587.049 326.341 C 589.905 315.888, 590.958 279.683, 588.868 263.853 C 588.115 258.159, 587.515 249, 587.533 243.500 C 587.566 233.606, 587.628 233.351, 593.401 219.500 C 596.634 211.744, 599.849 202.155, 600.609 198 C 602.622 186.998, 603.446 163.002, 602.155 153 C 600.460 139.873, 599.361 137.080, 593.640 131.365 C 588.958 126.687, 587.787 126.067, 580.500 124.408 C 574.487 123.039, 568.526 122.599, 556.500 122.636 C 530.145 122.716, 523.804 124.410, 478.584 143.448 C 459.474 151.493, 446.685 157.829, 433.167 165.948 C 427.625 169.277, 422.636 172, 422.081 172 C 420.332 172, 419.228 168.734, 418.533 161.500 C 415.693 131.935, 407.775 108.369, 393.453 86.856 C 386.447 76.332, 370.117 58.595, 359.247 49.703 C 341.484 35.170, 309.100 16.805, 294.305 12.872 C 283.848 10.092, 254.358 9.322, 242.702 11.525 M 412.500 450.928 C 406.253 453.155, 397.063 457.732, 394.750 459.769 C 393.536 460.838, 393 462.794, 393 466.155 C 393 468.820, 393.350 471, 393.777 471 C 394.721 471, 415.795 456.414, 419.463 453.221 C 424.305 449.007, 420.971 447.909, 412.500 450.928" stroke="none" fill="#F2E8BF" fill-rule="evenodd"/>
</svg>