<svg xmlns="http://www.w3.org/2000/svg" width="946" height="916" viewBox="0 0 946 916" version="1.1">
	<path d="M 222.799 8.040 C 200.140 9.598, 176.352 14.235, 155.945 21.072 C 124.095 31.743, 97.816 52.007, 75.822 82.857 C 39.835 133.335, 18.414 213.586, 10.520 327.500 C 5.140 405.153, 6.704 490.717, 15.558 603 C 16.924 620.325, 20.052 660.825, 22.510 693 C 27.638 760.133, 29.118 774.655, 32.598 791.979 C 38.249 820.115, 46.698 837.399, 63.203 854.591 C 73.884 865.717, 82.167 871.890, 94.500 877.915 C 140.896 900.580, 226.678 913.209, 291.500 906.918 C 314.001 904.734, 332.506 900.076, 349.029 892.438 C 354.270 890.015, 360.969 887.575, 363.916 887.016 C 367.410 886.353, 428.950 885.992, 540.886 885.978 C 711.603 885.956, 743.298 885.460, 765.114 882.466 C 815.728 875.520, 857.907 852.939, 889.516 815.866 C 915.588 785.289, 929.878 752.227, 935.474 709.539 C 938.540 686.153, 938.956 655.324, 938.960 451.500 C 938.964 249.249, 938.565 218.957, 935.577 194.930 C 929.933 149.531, 913.290 112.991, 884.035 81.769 C 852.949 48.591, 813.905 28.517, 767 21.596 C 745.194 18.379, 721.546 18.029, 524.974 18.015 C 394.497 18.005, 325.649 17.649, 320.121 16.956 C 315.541 16.382, 307.228 14.811, 301.647 13.467 C 280.418 8.351, 249.370 6.214, 222.799 8.040" stroke="none" fill="#F2E8BF" fill-rule="evenodd"/>
</svg>