<svg xmlns="http://www.w3.org/2000/svg" width="773" height="937" viewBox="0 0 773 937" version="1.1">
	<path d="M 518.500 14.640 C 505.651 17.351, 499.167 21.953, 497.034 29.874 C 496.474 31.955, 495.368 37.366, 494.576 41.899 C 493.785 46.432, 492.421 51.234, 491.546 52.571 C 489.654 55.458, 487.583 55.585, 478.312 53.380 C 474.565 52.489, 466.775 51.706, 461 51.640 C 441.362 51.415, 427.972 56.523, 423.244 66.043 C 420.811 70.941, 419.096 84.047, 418.996 98.500 C 418.966 102.900, 417.808 112.350, 416.424 119.500 C 415.039 126.650, 413.652 137.450, 413.343 143.500 C 412.750 155.079, 411.419 159, 408.081 159 C 407.051 159, 402.823 157.392, 398.685 155.428 C 379.127 146.139, 351.970 147.193, 329.216 158.122 L 320.500 162.309 300 162.440 C 281.724 162.556, 278.784 162.810, 272.898 164.780 C 266.224 167.013, 259.352 171.625, 256.384 175.863 C 253.690 179.708, 251.974 188.325, 251.119 202.292 C 250.672 209.588, 249.786 216.531, 249.150 217.720 C 248.328 219.255, 245.498 220.642, 239.382 222.508 C 224.811 226.952, 219.449 234.228, 215.969 254.274 C 215.271 258.298, 215.012 275.179, 215.238 302 C 215.524 336.108, 215.867 344.445, 217.162 348.808 C 219.900 358.034, 225.796 362.420, 239.596 365.497 C 248.170 367.408, 256 370.879, 256 372.767 C 256 373.552, 254.247 376.184, 252.105 378.618 C 249.353 381.745, 247.742 384.869, 246.611 389.271 C 244.414 397.828, 243.001 409.566, 242.994 419.322 C 242.989 427.360, 241.720 434.437, 240.106 435.434 C 239.656 435.713, 234.068 437.046, 227.690 438.397 C 214.204 441.254, 205.918 444.943, 197.392 451.886 C 192.437 455.922, 190.762 458.089, 188.517 463.371 C 186.995 466.952, 185.099 470.132, 184.303 470.437 C 182.210 471.240, 179.100 469.347, 174.186 464.279 C 171.813 461.832, 167.468 458.730, 164.530 457.385 C 158.746 454.737, 146.213 452, 139.872 452 C 137.699 452, 134.251 451.149, 132.210 450.108 C 130.170 449.068, 122.650 446.738, 115.500 444.930 C 82.410 436.563, 52.662 443.687, 47.973 461.101 C 47.349 463.418, 46.417 467.933, 45.901 471.133 C 43.799 484.187, 42.699 485.542, 31.816 488.482 C 25.952 490.066, 19.105 494.584, 15.793 499.055 C 10.750 505.864, 9.419 537.926, 13.133 563.154 L 15.291 577.808 13.145 587.154 C 9.434 603.313, 8.737 611.991, 9.270 635.390 C 9.886 662.404, 10.880 666.743, 17.973 673.378 C 20.915 676.130, 24.968 678.610, 28.815 680.013 C 35.717 682.529, 37.841 685.228, 42.025 696.799 C 45.792 707.212, 54.075 712.947, 69.826 716.045 C 79.415 717.932, 97.582 716.771, 107.845 713.615 C 118.852 710.230, 130.963 709.779, 140 712.418 C 152.671 716.118, 175.199 714.424, 186.045 708.956 C 191.356 706.278, 197.695 698.877, 198.991 693.841 C 203.681 675.616, 204.505 674.035, 211.311 670.194 C 223.659 663.225, 225.529 656.714, 225.437 621 C 225.379 597.994, 225.209 595.789, 222.658 584.843 C 220.039 573.604, 220.001 573.039, 221.591 569.064 C 223.969 563.122, 225.673 562.540, 234.815 564.549 C 248.652 567.589, 249.405 568.312, 252.458 581.477 C 255.479 594.502, 263.770 606.781, 272.331 610.911 C 274.624 612.017, 282.045 614.308, 288.822 616.002 C 295.599 617.696, 303.474 619.948, 306.322 621.006 C 320.186 626.158, 330.293 628.184, 344.500 628.661 C 352.200 628.919, 359.679 629.582, 361.120 630.133 C 365.343 631.748, 366.201 635.202, 367.053 654 C 367.489 663.625, 368.376 674.534, 369.024 678.242 C 370.119 684.509, 370.571 685.321, 375.419 689.752 C 382.816 696.512, 388.949 698.322, 406.090 698.803 C 417.727 699.130, 420.846 698.870, 427.800 696.994 C 432.266 695.788, 438.013 693.384, 440.572 691.651 C 454.088 682.497, 455.152 682, 461.251 682 C 468.688 682, 471.535 684.440, 472.483 691.624 C 472.837 694.306, 473.642 698.674, 474.273 701.331 C 475.820 707.850, 474.381 710.233, 465.248 716.268 C 457.179 721.601, 455.516 724.076, 453.447 733.836 C 450.691 746.842, 452.651 780.579, 457.002 795 C 457.583 796.925, 458.465 804.800, 458.962 812.500 C 460.972 843.630, 466.812 852.068, 489.047 855.971 C 492.596 856.594, 496.250 857.324, 497.166 857.593 C 499.445 858.261, 500.993 863.186, 501.035 869.899 C 501.091 878.851, 503.593 890.629, 506.488 895.570 C 512.387 905.635, 522.721 909.718, 545.500 910.982 C 554.518 911.483, 562.095 912.420, 564.500 913.333 C 588.669 922.506, 595.138 924.009, 610.338 923.983 C 629.512 923.950, 640.694 919.908, 645.633 911.223 C 650.108 903.356, 654.818 899.104, 660.995 897.354 C 668.187 895.317, 674.351 891.720, 676.983 888.025 C 680.658 882.863, 682.159 872.310, 681.893 853.500 C 681.600 832.807, 682.180 831.051, 690.218 828.289 C 696.988 825.963, 702.253 820.696, 704.630 813.870 C 706.209 809.335, 706.494 805.547, 706.462 789.500 C 706.429 772.835, 706.156 769.637, 704.238 763.480 C 700.731 752.217, 694.442 745.455, 682.277 739.864 C 674.374 736.233, 673 733.775, 673 723.273 C 673 712.130, 671.177 699.005, 669.144 695.515 C 665.163 688.679, 656.242 684.196, 642.137 681.942 C 633.134 680.504, 628.424 677.816, 625.197 672.276 C 618.993 661.627, 613.395 657.513, 601 654.492 C 591.324 652.133, 587.297 650.131, 586.017 647.040 C 585.197 645.061, 585.170 641.100, 585.916 632.502 C 586.664 623.893, 586.616 617.129, 585.740 607.592 C 584.100 589.738, 584.410 580.011, 586.923 570.500 C 588.902 563.008, 591.364 538.035, 590.916 530 C 590.349 519.846, 591.682 518.568, 601.923 519.449 C 613.025 520.404, 614.575 521.248, 616.969 527.646 C 618.086 530.632, 619 533.470, 619 533.953 C 619 534.435, 621.099 536.678, 623.665 538.936 C 631.111 545.491, 639.049 547.500, 657.500 547.500 C 670.712 547.500, 673.391 547.208, 679.976 545.052 C 689.448 541.950, 697.151 535.047, 699.004 528 C 701.221 519.568, 704.029 514.228, 706.836 513.109 C 708.301 512.525, 712.548 511.576, 716.274 511 C 731.971 508.576, 740.862 502.575, 742.943 493 C 744.905 483.975, 745.387 465.928, 744.049 451.633 C 742.580 435.938, 742.787 435.249, 751.945 425.423 C 755.059 422.081, 758.431 417.612, 759.436 415.493 C 765.720 402.251, 765.322 348.657, 758.777 326.675 C 757.029 320.805, 751.435 315.506, 741 309.840 C 732.049 304.979, 725.782 302.856, 703.500 297.135 C 694.872 294.920, 688.928 291.972, 682.781 286.858 C 676.734 281.829, 671.910 280.174, 659.608 278.912 C 643.399 277.248, 621.242 280.215, 613.324 285.109 C 608.913 287.835, 600.877 296.973, 597.607 302.980 C 594.647 308.418, 591 321.516, 591 326.705 C 591 328.900, 590.195 330.896, 588.710 332.380 C 586.657 334.434, 585.137 334.737, 573.960 335.324 C 541.750 337.014, 535.221 340.558, 529.414 359.500 C 527.996 364.126, 527.548 369.051, 527.458 381 C 527.371 392.548, 526.916 397.775, 525.674 401.500 C 521.857 412.949, 518.897 428.786, 518.386 440.500 C 517.848 452.839, 516.163 459.340, 513.210 460.473 C 512.364 460.798, 508.351 460.325, 504.292 459.422 C 498.619 458.159, 493.628 457.891, 482.706 458.260 C 466.353 458.812, 459.119 460.464, 450.849 465.535 C 447.741 467.441, 444.489 469, 443.622 469 C 441.141 469, 439.262 465.204, 437.053 455.726 C 434.346 444.118, 432.935 440.969, 428.074 435.696 C 421.085 428.114, 409.624 424.194, 388.551 422.179 C 380.133 421.374, 378.326 420.886, 376.800 419.002 C 375.054 416.845, 375.067 416.653, 377.234 412.797 C 378.464 410.609, 380.377 408.350, 381.485 407.777 C 388.103 404.356, 391.700 400.037, 395.434 391.028 C 397.643 385.699, 400.139 381.300, 401.435 380.450 C 402.656 379.650, 406.320 378.524, 409.578 377.947 C 427.309 374.807, 435.136 369.189, 437.566 357.859 C 438.316 354.362, 438.948 346.100, 438.970 339.500 C 439.019 325.256, 440.024 320.985, 444.202 317.273 C 456.891 305.996, 460.606 301.510, 462.312 295.407 C 464.407 287.912, 465.921 276.636, 465.991 268 C 466.026 263.754, 466.731 259.986, 468.025 257.134 C 469.718 253.402, 470.332 252.861, 472.253 253.409 C 481.003 255.904, 485.737 257, 487.760 257 C 493.211 257, 498.117 261.245, 500.513 268.035 C 502.374 273.311, 506.074 277.450, 511.356 280.166 C 523.955 286.645, 551.682 286.466, 567.214 279.806 C 576.899 275.653, 583.477 265.753, 588.680 247.500 C 592.452 234.265, 592.918 233.267, 595.836 232.168 C 597.301 231.615, 604.885 230.911, 612.688 230.603 C 651.927 229.054, 662.658 220.923, 666.091 190.138 C 667.266 179.596, 666.687 169.938, 664.282 160 C 662.393 152.195, 659.505 147.360, 654.244 143.193 C 649.464 139.407, 646.642 133.884, 644.437 124 C 641.572 111.155, 637.166 105.199, 628.879 102.967 C 623.516 101.523, 622.139 98.076, 620.956 83.135 C 619.772 68.172, 619.183 64.636, 616.821 58.282 C 614.488 52.010, 608.020 45.878, 601.167 43.444 C 588.865 39.074, 582.129 35, 576.300 28.401 C 572.193 23.752, 568.816 21.063, 564.521 19.020 C 552.725 13.409, 533.159 11.547, 518.500 14.640 M 448 208 C 442.388 213.612, 449.332 233.235, 455.329 228.711 C 459.119 225.853, 461.287 215.273, 458.970 210.945 C 457.952 209.042, 453.079 206, 451.050 206 C 450.472 206, 449.100 206.900, 448 208" stroke="none" fill="#F2E8BF" fill-rule="evenodd"/>
</svg>