<svg xmlns="http://www.w3.org/2000/svg" width="1215" height="1238" viewBox="0 0 1215 1238" version="1.1">
	<path d="M 594.226 13.146 C 577.815 15.499, 570.624 20.976, 566.500 34.262 C 565.093 38.793, 563.349 43.564, 562.624 44.865 C 561.095 47.609, 531.005 61.881, 515.015 67.446 C 495.315 74.304, 437.626 83.964, 416.218 83.991 C 404.396 84.006, 404.182 83.830, 387.965 60.876 C 373.228 40.016, 366.031 31.397, 360.587 28.082 C 354.343 24.282, 342.730 22.497, 324.500 22.536 C 293.520 22.600, 284.981 27.142, 281.485 45.413 C 279.524 55.664, 279.556 79.709, 281.547 92 C 283.054 101.305, 284.413 104.858, 291.488 118 C 296.355 127.040, 296.203 130.650, 290.502 141.549 C 280.454 160.758, 261.151 187.854, 240.962 211.087 C 216.302 239.466, 192.303 258.795, 163.680 273.330 L 153.500 278.500 138.500 278.111 C 105.731 277.260, 87.525 277.498, 81.598 278.855 C 73.618 280.680, 66.627 287.033, 64.487 294.402 C 60.893 306.783, 60.866 335.057, 64.433 350.391 C 66.400 358.846, 70.591 364.850, 79.635 372.176 C 86.979 378.124, 89.780 382.722, 93.027 394.161 C 97.643 410.424, 97.448 430.444, 92.480 450.121 C 84.723 480.849, 64.004 532.431, 55.962 541.041 C 54.066 543.070, 50.255 544.788, 41.777 547.435 C 31.700 550.580, 29.722 551.565, 26.652 554.964 C 16.309 566.412, 14.264 602.983, 22.877 622.454 C 24.012 625.020, 27.502 629.098, 31.954 633.062 C 39.752 640.002, 46.975 650.892, 55.578 668.680 C 64.914 687.983, 83.808 739.164, 87.629 755.500 C 90.270 766.794, 90.289 805.221, 87.659 818.500 C 84.920 832.332, 82.239 837.246, 72.507 846.273 C 65.761 852.530, 63.729 855.109, 62.087 859.498 C 59.065 867.574, 57.672 881.521, 58.340 897 C 59.651 927.364, 63.589 932.286, 92.224 939.353 C 107.069 943.017, 112.891 945.479, 124.188 952.871 C 143.766 965.684, 164.962 985.125, 193.232 1016.197 C 213.336 1038.295, 218.040 1044.518, 223.757 1056.579 C 229.841 1069.415, 230.712 1074.514, 229.079 1087.738 C 225.822 1114.118, 226.790 1140.274, 231.353 1149.189 C 236.725 1159.686, 245.501 1162.540, 272 1162.408 C 295.290 1162.291, 303.360 1160.487, 311.979 1153.470 C 315.016 1150.997, 319.975 1147.743, 323 1146.238 C 328.347 1143.578, 329.055 1143.492, 348.500 1143.149 C 375.698 1142.668, 411.475 1145.701, 435.500 1150.523 C 453.757 1154.188, 483.373 1164.626, 512 1177.486 C 526.630 1184.058, 549.199 1195.582, 552.455 1198.143 C 553.950 1199.319, 557.634 1204.019, 560.643 1208.586 C 566.366 1217.277, 571.411 1222.436, 575.861 1224.151 C 589.864 1229.546, 630.029 1229.232, 640.681 1223.644 C 644.368 1221.710, 649.641 1216.029, 655.053 1208.162 C 658.138 1203.678, 660.742 1201.147, 663.956 1199.509 C 666.455 1198.236, 672.775 1194.659, 678 1191.560 C 696.518 1180.577, 731.543 1165.332, 758.854 1156.368 C 784.012 1148.110, 819.877 1143.633, 861.500 1143.554 C 893.516 1143.492, 892.391 1143.258, 904.466 1152.507 C 913.957 1159.776, 921.933 1161.940, 942 1162.691 C 958.032 1163.291, 971.178 1161.660, 977.730 1158.260 C 982.974 1155.539, 987.004 1150.046, 988.685 1143.326 C 991.021 1133.993, 991.500 1109.496, 989.610 1096.040 C 986.598 1074.601, 987.339 1069.534, 995.946 1052.720 C 1001.130 1042.594, 1005.374 1037.200, 1025.228 1015.500 C 1054.125 983.917, 1075.216 964.726, 1094.858 952.144 C 1106.499 944.688, 1111.602 942.567, 1126.354 939.059 C 1142.464 935.227, 1146.456 933.448, 1151.654 927.782 C 1157.694 921.197, 1159.503 912.698, 1159.483 891 C 1159.467 874.055, 1157.822 862.423, 1154.545 856.087 C 1153.723 854.497, 1149.253 849.740, 1144.613 845.516 C 1138.618 840.059, 1135.579 836.449, 1134.115 833.046 C 1130.601 824.877, 1128.809 811.817, 1128.280 790.500 C 1127.684 766.514, 1128.520 760.636, 1136.430 733.243 C 1145.870 700.550, 1151.535 687.114, 1167.966 658.448 C 1176.639 643.318, 1179.389 639.401, 1185.483 633.500 C 1193.426 625.809, 1195.921 620.858, 1198.069 608.522 C 1199.865 598.212, 1198.792 576.053, 1196.093 567.714 C 1192.735 557.335, 1188.126 553.140, 1175.500 548.972 C 1168.547 546.677, 1164.691 544.805, 1162.843 542.830 C 1159.381 539.127, 1147.279 514.639, 1141.676 500 C 1136.141 485.539, 1127.769 459.990, 1125.128 449.500 C 1120.320 430.406, 1119.962 412.823, 1124.054 396.779 C 1127.599 382.879, 1129.122 380.318, 1139.672 370.523 C 1145.776 364.855, 1149.961 360.082, 1151.117 357.467 C 1154.703 349.362, 1156.257 335.875, 1155.722 317.500 C 1155.123 296.944, 1153.747 291.478, 1147.639 285.388 C 1144.156 281.915, 1142.337 280.998, 1136.158 279.598 C 1124.050 276.854, 1111.951 276.543, 1092.313 278.469 C 1077.391 279.933, 1073.415 280.020, 1068.471 278.994 C 1057.689 276.756, 1032.369 262.198, 1014.500 247.963 C 984.749 224.263, 945.679 176.578, 927.710 142.037 C 921.251 129.620, 921.376 126.123, 928.740 113.338 C 935.266 102.006, 936.987 94.343, 937.684 73.500 C 938.094 61.268, 937.838 55.304, 936.597 48.176 C 934.688 37.205, 933.481 34.571, 928.161 29.764 C 922.087 24.277, 912.930 22.481, 891.500 22.573 C 874.195 22.648, 864.690 24.041, 858.046 27.476 C 852.436 30.377, 845.297 38.770, 830.255 60.148 C 818.036 77.516, 814.399 82.014, 811.863 82.898 C 799.300 87.277, 725.018 75.967, 696.500 65.333 C 685.688 61.301, 660.891 49.223, 659.390 47.258 C 658.651 46.291, 656.381 41.250, 654.345 36.055 C 650.052 25.105, 646.042 20.125, 639.120 17.147 C 628.776 12.697, 609.402 10.970, 594.226 13.146 M 486.500 187.674 C 480.949 188.367, 478.915 189.053, 479.518 190.029 C 480.309 191.309, 487.527 191.259, 492.276 189.940 C 494.352 189.364, 495.788 188.466, 495.467 187.946 C 494.891 187.014, 492.395 186.938, 486.500 187.674 M 722 187.896 C 722 189.659, 726.538 191, 732.506 191 C 737.720 191, 740.430 189.763, 737.597 188.675 C 736.831 188.382, 733.009 187.826, 729.102 187.441 C 723.998 186.938, 722 187.066, 722 187.896" stroke="none" fill="#F2E8BF" fill-rule="evenodd"/>
</svg>