<svg xmlns="http://www.w3.org/2000/svg" width="803" height="1243" viewBox="0 0 803 1243" version="1.1">
	<path d="M 364 9.502 C 363.175 9.716, 352.600 10.400, 340.500 11.022 C 306.108 12.788, 297.415 14.834, 277 25.963 C 267.523 31.129, 260.510 34.033, 248 37.970 C 218.148 47.364, 206.556 56.080, 188.111 83 C 179.108 96.140, 171.702 103.066, 158.144 111.028 C 138.173 122.757, 134.494 125.458, 122 137.568 C 115.125 144.231, 104.775 152.994, 99 157.041 C 80.529 169.985, 69.701 182.664, 56.761 206.500 C 30.703 254.500, 26.756 267.616, 23.965 315.500 C 23.325 326.474, 21.996 337.989, 20.561 345 C 17.710 358.926, 17.243 363.251, 16.021 387.066 C 15.395 399.253, 14.355 408.688, 12.994 414.526 C 8.698 432.948, 8.149 462.513, 11.730 482.500 C 13.569 492.762, 13.707 537.739, 11.996 569 C 10.775 591.311, 10.763 624.238, 11.970 638.830 C 14.601 670.643, 23.678 696.172, 43.509 727.539 C 55.764 746.923, 57.382 750.823, 62.404 773.066 C 67.023 793.525, 70.999 806.288, 81.696 834.986 C 93.389 866.361, 99.366 875.434, 124.119 899.393 C 143.165 917.827, 142.532 916.834, 153.698 945.854 C 161.090 965.068, 163.973 973.984, 169.512 994.757 C 172.734 1006.845, 176.056 1014.207, 182.788 1024.191 C 189.144 1033.614, 192.010 1039.347, 197.571 1053.753 C 205.021 1073.055, 207.940 1077.709, 229.401 1104.500 C 255.818 1137.477, 271.713 1155.510, 285.500 1168.146 C 297.011 1178.695, 304.026 1182.475, 327 1190.503 C 344.114 1196.484, 347.744 1198.352, 359.178 1207.063 C 373.443 1217.931, 379.821 1220.632, 401.500 1224.986 C 407.550 1226.201, 417.675 1228.560, 424 1230.227 C 434.525 1233.001, 437.237 1233.298, 456 1233.737 C 486.753 1234.456, 497.995 1231.924, 510 1221.578 C 517.741 1214.907, 522.494 1212.318, 535.253 1207.824 C 555.560 1200.671, 565.824 1193.803, 574.354 1181.661 C 580.206 1173.332, 597.713 1139.149, 606.190 1119.500 C 609.987 1110.700, 616.163 1098.100, 619.916 1091.500 C 631.507 1071.112, 672.856 988.202, 674.943 981.162 C 679.801 964.782, 682.791 935.851, 683.902 894.500 L 684.680 865.500 687.950 857.500 C 692.780 845.681, 695.562 836.093, 698.540 821 C 701.821 804.368, 702.252 803.324, 710.575 791.804 C 718.530 780.794, 724.198 769.174, 726.334 759.500 C 727.185 755.650, 728.838 745.075, 730.008 736 C 731.178 726.925, 732.589 717.754, 733.142 715.620 C 735.369 707.027, 736.091 699.410, 736.946 675.500 C 737.746 653.159, 738.128 649.437, 740.539 640.500 C 744.259 626.715, 745.627 620.223, 749.076 600 C 752.266 581.295, 758.098 561.055, 765.500 543 C 773.675 523.059, 776.772 510.399, 782.500 473.500 C 784.378 461.400, 787.294 444.975, 788.979 437 C 793.234 416.861, 794.774 393.912, 793.188 374.258 C 791.719 356.041, 790.731 351.840, 782.622 329.339 C 779.065 319.468, 774.538 304.665, 772.563 296.445 C 765.200 265.803, 763.402 261.119, 754.865 250.352 C 748.359 242.147, 744.765 234.111, 740.619 218.500 C 734.903 196.982, 732.739 192.642, 719.573 176.294 C 717.711 173.981, 714.298 167.231, 711.991 161.294 C 705.739 145.208, 702.546 139.853, 692.469 128.543 C 687.434 122.892, 680.661 114.720, 677.418 110.384 C 668.741 98.782, 652.831 83.317, 642.446 76.389 C 631.430 69.041, 622.186 65.092, 606.457 61.016 C 590.400 56.854, 586.723 55.370, 579.752 50.238 C 565.045 39.412, 556.253 35.989, 536.662 33.462 C 521.813 31.548, 513.443 29.554, 499.500 24.609 C 489.169 20.946, 479.128 19.361, 451.906 17.095 C 444.361 16.467, 434.340 14.789, 426.906 12.910 C 414.954 9.888, 413.603 9.761, 390 9.443 C 376.525 9.261, 364.825 9.288, 364 9.502" stroke="none" fill="#F2E8BF" fill-rule="evenodd"/>
</svg>