<svg xmlns="http://www.w3.org/2000/svg" width="918" height="1038" viewBox="0 0 918 1038" version="1.1">
	<path d="M 523.662 9.157 C 519.351 9.650, 509.451 11.435, 501.662 13.124 C 488.499 15.980, 485.455 16.253, 458.500 17.003 C 429.412 17.813, 421.745 18.698, 409.500 22.660 C 402.315 24.985, 393.447 29.564, 386.267 34.656 C 377.542 40.844, 373.756 41.919, 355 43.531 C 335.890 45.174, 329.305 46.660, 319.136 51.626 C 311.046 55.576, 299.889 65.405, 292.293 75.271 C 287.515 81.478, 282.434 84.655, 272.811 87.453 C 269.729 88.349, 263.448 90.630, 258.854 92.522 C 248.772 96.675, 245.456 96.785, 232.477 93.393 C 216.262 89.156, 188.496 89.738, 174.702 94.605 C 169.699 96.370, 163.450 101.581, 157.620 108.850 C 154.747 112.432, 151.316 115.455, 148.876 116.556 C 144.895 118.351, 144.789 118.344, 136.680 115.739 C 123.905 111.635, 116.662 110.627, 100.500 110.704 C 79.838 110.803, 71.479 112.941, 64.845 119.823 C 62.106 122.665, 59.740 126.267, 59.096 128.576 C 56.712 137.122, 55.757 150.775, 56.351 167.806 C 56.742 179.020, 56.564 186.940, 55.843 190.306 C 55.231 193.163, 51.281 202.250, 47.064 210.500 C 35.064 233.976, 30.735 249.904, 28.924 277.253 C 26.912 307.624, 30.081 335.662, 38.155 358.921 C 45.427 379.871, 58.929 402.438, 73.293 417.649 C 89.201 434.496, 101.951 442.695, 118.929 446.998 C 130.728 449.988, 132.503 451.093, 134.559 456.729 C 135.516 459.353, 137.631 464.875, 139.259 469 C 144.600 482.536, 143.528 487.405, 131.716 503.247 C 125.104 512.116, 123.218 516.937, 121.446 529.500 C 119.985 539.853, 117.324 541.901, 107.654 540.113 C 97.942 538.318, 77.050 537.721, 64 538.866 C 42.695 540.736, 34.012 543.893, 24.715 553.150 C 18.255 559.582, 15.123 565.697, 12.612 576.778 C 8.917 593.086, 8.240 623.797, 11.140 643.500 C 12.768 654.561, 20.829 690.260, 23.501 698.245 C 24.837 702.235, 26.642 708.650, 27.513 712.500 C 30.643 726.333, 34.279 736.668, 39.476 746.500 C 42.384 752, 46.430 760.869, 48.469 766.210 C 50.507 771.550, 53.956 778.406, 56.133 781.446 C 61.790 789.346, 62.768 792.283, 64.531 806.668 C 66.225 820.492, 68.883 832.251, 71.875 839.168 C 76.715 850.356, 87.813 861.481, 102.189 869.556 C 108.538 873.122, 110.158 874.649, 114.500 881.162 C 121.200 891.212, 126.288 896.855, 133.579 902.324 C 136.922 904.831, 140.181 907.514, 140.821 908.285 C 141.461 909.055, 144.599 915.509, 147.795 922.626 C 154.870 938.383, 158.133 943.309, 167.921 953.018 C 180.569 965.564, 193.446 970.490, 221.252 973.420 C 237.309 975.112, 241.460 976.677, 248.960 983.868 C 268.395 1002.503, 291.801 1008.876, 342.558 1009.355 L 369.500 1009.610 387.500 1016.689 C 416.482 1028.088, 426.249 1029.951, 457.178 1029.980 C 479.265 1030.001, 488.759 1029.113, 501.500 1025.832 C 511.112 1023.357, 527.557 1015.778, 537.140 1009.407 C 546.980 1002.865, 550.556 1002.041, 573.820 1000.957 C 595.535 999.944, 609.294 997.754, 620.547 993.518 C 629.270 990.235, 634.358 987.124, 646.267 977.790 C 659.867 967.132, 661.599 966.201, 685.651 956.623 C 697.118 952.057, 708.888 947.103, 711.808 945.614 C 729.656 936.513, 745.275 924.605, 766.392 904 C 791.607 879.396, 795.749 873.707, 805.653 850.078 C 811.847 835.298, 814.720 830.529, 833.961 803.092 C 854.127 774.337, 856.016 771.092, 866.312 747.500 C 886.321 701.654, 899.506 668.324, 903.485 653.536 C 908.983 633.099, 909.420 626.431, 909.384 563.500 C 909.355 511.044, 909.146 503.636, 907.205 486 C 906.025 475.275, 903.689 447.825, 902.015 425 C 897.012 356.780, 896.097 352.466, 881.132 326.500 C 875.225 316.251, 870.788 303.351, 865.482 281 C 853.415 230.168, 852.162 227.126, 836.135 209.789 C 826.325 199.177, 824.512 195.569, 819.152 176 C 811.300 147.333, 801.569 128.184, 783.581 106 C 774.525 94.831, 757.319 77.982, 748.912 72.049 C 731.143 59.510, 717.989 55.261, 689.923 52.994 C 682.690 52.410, 675.186 51.269, 673.247 50.459 C 671.308 49.649, 665.129 44.562, 659.516 39.156 C 650.756 30.718, 647.836 28.598, 638.905 24.195 C 623.849 16.772, 603.780 11.453, 581.789 9.058 C 570.367 7.814, 534.891 7.874, 523.662 9.157 M 477.313 385.786 C 474.879 387.333, 473.868 392.869, 472.897 409.954 C 471.706 430.920, 469.941 442.919, 466.394 454.146 C 458.056 480.542, 440.650 506.014, 427.650 510.845 C 414.745 515.640, 387.622 517.039, 375 513.560 C 364.432 510.647, 364.408 510.646, 362.181 513.037 C 361.042 514.258, 358.206 519.773, 355.877 525.291 C 353.549 530.809, 349.018 539.323, 345.808 544.211 C 336.146 558.925, 319.087 575.302, 308.790 579.750 C 300.338 583.401, 275.937 585.609, 261.084 584.068 C 247.062 582.613, 244.012 581.659, 238.342 576.954 C 235.679 574.743, 232.440 572.664, 231.144 572.332 C 228.154 571.568, 223.316 573.859, 215 579.978 C 211.425 582.608, 206.025 585.998, 203 587.511 C 193.978 592.024, 193.935 593.049, 202.425 601.079 C 205.959 604.421, 211.803 611.321, 215.411 616.412 C 223.198 627.396, 225.189 628.654, 245.500 635.410 C 253.200 637.971, 262.875 641.860, 267 644.052 C 282.545 652.312, 287.254 654.234, 300.083 657.559 C 317.064 661.959, 322.194 664.383, 330.063 671.722 C 338.040 679.163, 342.502 681.467, 351.692 682.888 C 360.787 684.294, 375.008 684.324, 378.685 682.943 C 380.233 682.362, 385.550 679.445, 390.500 676.462 C 406.092 667.063, 419.670 663.208, 444.500 661.129 C 450.550 660.623, 456.740 659.638, 458.255 658.942 C 460.145 658.072, 462.385 655.089, 465.392 649.437 C 479.545 622.832, 505.464 599.070, 531.287 589.025 C 541.575 585.023, 541.889 584.509, 543.098 569.693 C 544.226 555.867, 545.567 547.489, 548.252 537.500 C 550.940 527.499, 551.115 508.506, 548.661 493.087 C 547.218 484.020, 546.437 481.758, 542.618 475.587 C 534.027 461.707, 532.102 456.856, 529.486 442.500 C 526.955 428.614, 526.351 427.331, 518.284 418.704 C 511.215 411.145, 508.250 406.254, 503.188 393.803 C 502.585 392.319, 500.928 390.344, 499.507 389.413 C 494.623 386.213, 480.318 383.875, 477.313 385.786" stroke="none" fill="#F2E8BF" fill-rule="evenodd"/>
</svg>