<svg xmlns="http://www.w3.org/2000/svg" width="818" height="1199" viewBox="0 0 818 1199" version="1.1">
	<path d="M 391.500 9.570 C 370.547 12.427, 348.741 19.703, 332.753 29.171 C 327.942 32.020, 317.592 39.120, 309.753 44.948 C 301.914 50.776, 288.803 60.211, 280.618 65.914 C 251.616 86.121, 233.548 103.310, 206.293 136.622 C 183.719 164.213, 175.647 175.145, 156.544 204 C 128.978 245.638, 120.984 258.439, 102.525 290.500 C 92.709 307.550, 82.612 325.038, 80.089 329.362 C 77.103 334.477, 72.161 340.591, 65.944 346.862 C 60.316 352.538, 55.537 358.350, 54.319 361 C 51.644 366.821, 49.574 376.338, 47.467 392.500 C 46.050 403.366, 44.214 410.424, 36.275 435.500 C 11.552 513.593, 10.099 520.284, 9.299 559.661 C 8.715 588.433, 9.530 599.352, 13.646 617.921 C 18.751 640.955, 24.778 654.025, 35.875 666.127 C 47.231 678.511, 60.812 685.663, 80.628 689.695 C 88.121 691.219, 94.630 691.500, 122.500 691.500 C 162.566 691.500, 176.955 690.017, 210.862 682.394 C 223.431 679.568, 226.500 679.170, 227.747 680.205 C 229.451 681.619, 229.260 686.995, 226.530 714.500 C 224.796 731.969, 224.532 768.793, 226.054 781.026 C 227.818 795.212, 229.602 799.785, 237.722 810.944 C 239.384 813.229, 239.499 817.725, 239.489 879.944 C 239.480 936.958, 239.230 948.507, 237.747 960.500 C 233.368 995.905, 231.611 1022.088, 231.607 1052 C 231.604 1084.067, 232.559 1093.262, 237.630 1109.975 C 243.973 1130.880, 257.300 1148.184, 277.500 1161.744 C 290.543 1170.500, 307.383 1177.005, 334.872 1183.907 C 361.979 1190.712, 369.157 1191.478, 406 1191.490 C 440.508 1191.501, 448.990 1190.797, 466 1186.509 C 481.582 1182.580, 514.851 1171.180, 524.500 1166.461 C 548.561 1154.696, 569.262 1132.017, 578.577 1107.216 C 585.389 1089.081, 587.987 1066.365, 587.978 1025 C 587.969 985.942, 584.391 922.853, 580.462 892.500 C 579.109 882.050, 576.881 864.050, 575.511 852.500 C 571.712 820.475, 569.371 804.337, 565.429 783 C 560.364 755.581, 559.293 747.181, 558.039 725 C 557.432 714.275, 556.483 702.575, 555.929 699 C 555.375 695.425, 554.661 690.012, 554.342 686.971 C 553.387 677.866, 554.058 677.855, 573.071 686.660 C 612.906 705.106, 646.136 711.736, 693.500 710.688 C 725.743 709.974, 736.646 707.423, 750.885 697.263 C 764.946 687.229, 780.914 669.558, 790.041 653.930 C 800.954 635.245, 806.588 609.959, 809.077 568.499 C 811.003 536.416, 809.072 504.721, 802.985 468.500 C 794.278 416.686, 789.874 401.717, 763.999 336 C 732.958 257.161, 726.974 245.967, 684.623 187.500 C 654.591 146.038, 634.673 121.746, 610.532 97.137 C 577.504 63.469, 541.049 33.966, 523.500 26.704 C 507.515 20.088, 476.332 11.866, 458.199 9.484 C 443.906 7.607, 405.529 7.656, 391.500 9.570" stroke="none" fill="#F2E8BF" fill-rule="evenodd"/>
</svg>